<svg width="865" height="300" viewBox="0 0 865 300" fill="none" xmlns="http://www.w3.org/2000/svg">
<path d="M51.0897 230.363C51.0897 233.709 51.3346 236.998 51.8076 240.212C51.6214 254.038 48.704 271.118 38.4345 278.453C24.2607 288.577 8.90575 292.796 3 293.639C15.2333 295.748 42.7373 298.954 54.8862 294.905C62.1407 292.487 70.057 287.541 76.4257 282.872C87.88 291.988 102.385 297.436 118.162 297.436L690.463 297.436C727.506 297.436 757.536 267.407 757.536 230.364C757.536 193.321 727.506 163.291 690.463 163.291L118.162 163.291C82.3481 163.291 53.0901 191.361 51.188 226.7C51.0845 226.56 51.0897 229.846 51.0897 230.363Z" fill="white" stroke="black" stroke-width="4.32186" stroke-linejoin="round"/>
<path d="M168.472 256.744H156.322C155.372 256.744 154.672 256.544 154.222 256.144C153.822 255.694 153.622 254.994 153.622 254.044V217.219H142.597C141.647 217.219 140.947 217.019 140.497 216.619C140.097 216.169 139.897 215.469 139.897 214.519V205.444C139.897 204.494 140.097 203.819 140.497 203.419C140.947 202.969 141.647 202.744 142.597 202.744H182.197C183.147 202.744 183.822 202.969 184.222 203.419C184.672 203.819 184.897 204.494 184.897 205.444V214.519C184.897 215.469 184.672 216.169 184.222 216.619C183.822 217.019 183.147 217.219 182.197 217.219H171.172V254.044C171.172 254.994 170.947 255.694 170.497 256.144C170.097 256.544 169.422 256.744 168.472 256.744ZM237.574 242.569C237.574 244.869 237.224 246.969 236.524 248.869C235.874 250.719 234.674 252.319 232.924 253.669C231.224 254.969 228.849 255.994 225.799 256.744C222.799 257.494 218.974 257.869 214.324 257.869C209.674 257.869 205.824 257.494 202.774 256.744C199.724 255.994 197.324 254.969 195.574 253.669C193.874 252.319 192.674 250.719 191.974 248.869C191.324 246.969 190.999 244.869 190.999 242.569V216.994C190.999 214.694 191.324 212.619 191.974 210.769C192.674 208.869 193.874 207.244 195.574 205.894C197.324 204.544 199.724 203.494 202.774 202.744C205.824 201.994 209.674 201.619 214.324 201.619C218.974 201.619 222.799 201.994 225.799 202.744C228.849 203.494 231.224 204.544 232.924 205.894C234.674 207.244 235.874 208.869 236.524 210.769C237.224 212.619 237.574 214.694 237.574 216.994V242.569ZM208.024 239.869C208.024 240.869 208.399 241.719 209.149 242.419C209.899 243.069 211.624 243.394 214.324 243.394C217.024 243.394 218.749 243.069 219.499 242.419C220.249 241.719 220.624 240.869 220.624 239.869V219.694C220.624 218.744 220.249 217.944 219.499 217.294C218.749 216.594 217.024 216.244 214.324 216.244C211.624 216.244 209.899 216.594 209.149 217.294C208.399 217.944 208.024 218.744 208.024 219.694V239.869ZM288.736 256.744H276.586C275.636 256.744 274.936 256.544 274.486 256.144C274.086 255.694 273.886 254.994 273.886 254.044V217.219H262.861C261.911 217.219 261.211 217.019 260.761 216.619C260.361 216.169 260.161 215.469 260.161 214.519V205.444C260.161 204.494 260.361 203.819 260.761 203.419C261.211 202.969 261.911 202.744 262.861 202.744H302.461C303.411 202.744 304.086 202.969 304.486 203.419C304.936 203.819 305.161 204.494 305.161 205.444V214.519C305.161 215.469 304.936 216.169 304.486 216.619C304.086 217.019 303.411 217.219 302.461 217.219H291.436V254.044C291.436 254.994 291.211 255.694 290.761 256.144C290.361 256.544 289.686 256.744 288.736 256.744ZM326.779 256.744H315.154C314.204 256.744 313.504 256.544 313.054 256.144C312.654 255.694 312.454 254.994 312.454 254.044V205.444C312.454 204.494 312.654 203.819 313.054 203.419C313.504 202.969 314.204 202.744 315.154 202.744H326.779C327.729 202.744 328.404 202.969 328.804 203.419C329.254 203.819 329.479 204.494 329.479 205.444V221.719H342.004V205.444C342.004 204.494 342.204 203.819 342.604 203.419C343.054 202.969 343.754 202.744 344.704 202.744H356.329C357.279 202.744 357.954 202.969 358.354 203.419C358.804 203.819 359.029 204.494 359.029 205.444V254.044C359.029 254.994 358.804 255.694 358.354 256.144C357.954 256.544 357.279 256.744 356.329 256.744H344.704C343.754 256.744 343.054 256.544 342.604 256.144C342.204 255.694 342.004 254.994 342.004 254.044V237.394H329.479V254.044C329.479 254.994 329.254 255.694 328.804 256.144C328.404 256.544 327.729 256.744 326.779 256.744ZM406.863 256.744H372.063C371.113 256.744 370.413 256.544 369.963 256.144C369.563 255.694 369.363 254.994 369.363 254.044V205.444C369.363 204.494 369.563 203.819 369.963 203.419C370.413 202.969 371.113 202.744 372.063 202.744H406.863C407.813 202.744 408.488 202.969 408.888 203.419C409.338 203.819 409.563 204.494 409.563 205.444V214.219C409.563 215.169 409.338 215.869 408.888 216.319C408.488 216.719 407.813 216.919 406.863 216.919H386.163V222.694H400.788C401.738 222.694 402.413 222.919 402.813 223.369C403.263 223.769 403.488 224.444 403.488 225.394V233.419C403.488 234.369 403.263 235.069 402.813 235.519C402.413 235.919 401.738 236.119 400.788 236.119H386.163V242.569H406.863C407.813 242.569 408.488 242.794 408.888 243.244C409.338 243.644 409.563 244.319 409.563 245.269V254.044C409.563 254.994 409.338 255.694 408.888 256.144C408.488 256.544 407.813 256.744 406.863 256.744ZM449.156 256.744H437.981C437.031 256.744 436.331 256.544 435.881 256.144C435.481 255.694 435.281 254.994 435.281 254.044V205.444C435.281 204.494 435.481 203.819 435.881 203.419C436.331 202.969 437.031 202.744 437.981 202.744H450.056C450.856 202.744 451.506 202.919 452.006 203.269C452.556 203.619 453.056 204.194 453.506 204.994L460.256 217.219C460.506 217.669 460.706 217.994 460.856 218.194C461.056 218.394 461.306 218.494 461.606 218.494H462.281C462.581 218.494 462.806 218.394 462.956 218.194C463.156 217.994 463.381 217.669 463.631 217.219L470.306 204.994C470.756 204.194 471.231 203.619 471.731 203.269C472.281 202.919 472.956 202.744 473.756 202.744H485.906C486.856 202.744 487.531 202.969 487.931 203.419C488.381 203.819 488.606 204.494 488.606 205.444V254.044C488.606 254.994 488.381 255.694 487.931 256.144C487.531 256.544 486.856 256.744 485.906 256.744H474.356C473.406 256.744 472.706 256.544 472.256 256.144C471.856 255.694 471.656 254.994 471.656 254.044V227.644L467.231 235.819C466.781 236.669 466.231 237.294 465.581 237.694C464.981 238.044 464.206 238.219 463.256 238.219H460.256C459.306 238.219 458.506 238.044 457.856 237.694C457.256 237.294 456.731 236.669 456.281 235.819L451.856 227.644V254.044C451.856 254.994 451.631 255.694 451.181 256.144C450.781 256.544 450.106 256.744 449.156 256.744ZM544.679 242.569C544.679 244.869 544.329 246.969 543.629 248.869C542.979 250.719 541.779 252.319 540.029 253.669C538.329 254.969 535.954 255.994 532.904 256.744C529.904 257.494 526.079 257.869 521.429 257.869C516.779 257.869 512.929 257.494 509.879 256.744C506.829 255.994 504.429 254.969 502.679 253.669C500.979 252.319 499.779 250.719 499.079 248.869C498.429 246.969 498.104 244.869 498.104 242.569V216.994C498.104 214.694 498.429 212.619 499.079 210.769C499.779 208.869 500.979 207.244 502.679 205.894C504.429 204.544 506.829 203.494 509.879 202.744C512.929 201.994 516.779 201.619 521.429 201.619C526.079 201.619 529.904 201.994 532.904 202.744C535.954 203.494 538.329 204.544 540.029 205.894C541.779 207.244 542.979 208.869 543.629 210.769C544.329 212.619 544.679 214.694 544.679 216.994V242.569ZM515.129 239.869C515.129 240.869 515.504 241.719 516.254 242.419C517.004 243.069 518.729 243.394 521.429 243.394C524.129 243.394 525.854 243.069 526.604 242.419C527.354 241.719 527.729 240.869 527.729 239.869V219.694C527.729 218.744 527.354 217.944 526.604 217.294C525.854 216.594 524.129 216.244 521.429 216.244C518.729 216.244 517.004 216.594 516.254 217.294C515.504 217.944 515.129 218.744 515.129 219.694V239.869ZM599.977 242.569C599.977 244.869 599.627 246.969 598.927 248.869C598.277 250.719 597.077 252.319 595.327 253.669C593.627 254.969 591.252 255.994 588.202 256.744C585.202 257.494 581.377 257.869 576.727 257.869C572.077 257.869 568.227 257.494 565.177 256.744C562.127 255.994 559.727 254.969 557.977 253.669C556.277 252.319 555.077 250.719 554.377 248.869C553.727 246.969 553.402 244.869 553.402 242.569V216.994C553.402 214.694 553.727 212.619 554.377 210.769C555.077 208.869 556.277 207.244 557.977 205.894C559.727 204.544 562.127 203.494 565.177 202.744C568.227 201.994 572.077 201.619 576.727 201.619C581.377 201.619 585.202 201.994 588.202 202.744C591.252 203.494 593.627 204.544 595.327 205.894C597.077 207.244 598.277 208.869 598.927 210.769C599.627 212.619 599.977 214.694 599.977 216.994V242.569ZM570.427 239.869C570.427 240.869 570.802 241.719 571.552 242.419C572.302 243.069 574.027 243.394 576.727 243.394C579.427 243.394 581.152 243.069 581.902 242.419C582.652 241.719 583.027 240.869 583.027 239.869V219.694C583.027 218.744 582.652 217.944 581.902 217.294C581.152 216.594 579.427 216.244 576.727 216.244C574.027 216.244 572.302 216.594 571.552 217.294C570.802 217.944 570.427 218.744 570.427 219.694V239.869ZM623.475 256.744H612.225C611.275 256.744 610.575 256.544 610.125 256.144C609.725 255.694 609.525 254.994 609.525 254.044V205.444C609.525 204.494 609.725 203.819 610.125 203.419C610.575 202.969 611.275 202.744 612.225 202.744H620.025C620.975 202.744 621.775 202.894 622.425 203.194C623.125 203.494 623.8 204.019 624.45 204.769L639 221.419V205.444C639 204.494 639.2 203.819 639.6 203.419C640.05 202.969 640.75 202.744 641.7 202.744H652.95C653.9 202.744 654.575 202.969 654.975 203.419C655.425 203.819 655.65 204.494 655.65 205.444V254.044C655.65 254.994 655.425 255.694 654.975 256.144C654.575 256.544 653.9 256.744 652.95 256.744H641.7C640.75 256.744 640.05 256.544 639.6 256.144C639.2 255.694 639 254.994 639 254.044V244.819L626.175 229.294V254.044C626.175 254.994 625.95 255.694 625.5 256.144C625.1 256.544 624.425 256.744 623.475 256.744Z" fill="black"/>
<rect x="51.1883" y="20.7913" width="465.824" height="129.379" rx="64.6897" fill="white" stroke="black" stroke-width="4.32186" stroke-linejoin="round"/>
<path d="M116.963 112.083H104.813C103.863 112.083 103.163 111.883 102.713 111.483C102.313 111.033 102.113 110.333 102.113 109.383V72.5583H91.0881C90.1381 72.5583 89.4381 72.3583 88.9881 71.9582C88.5881 71.5082 88.3881 70.8082 88.3881 69.8583V60.7833C88.3881 59.8333 88.5881 59.1583 88.9881 58.7583C89.4381 58.3082 90.1381 58.0832 91.0881 58.0832H130.688C131.638 58.0832 132.313 58.3082 132.713 58.7583C133.163 59.1583 133.388 59.8333 133.388 60.7833V69.8583C133.388 70.8082 133.163 71.5082 132.713 71.9582C132.313 72.3583 131.638 72.5583 130.688 72.5583H119.663V109.383C119.663 110.333 119.438 111.033 118.988 111.483C118.588 111.883 117.913 112.083 116.963 112.083ZM155.007 112.083H143.382C142.432 112.083 141.732 111.883 141.282 111.483C140.882 111.033 140.682 110.333 140.682 109.383V60.7833C140.682 59.8333 140.882 59.1583 141.282 58.7583C141.732 58.3082 142.432 58.0832 143.382 58.0832H155.007C155.957 58.0832 156.632 58.3082 157.032 58.7583C157.482 59.1583 157.707 59.8333 157.707 60.7833V77.0583H170.232V60.7833C170.232 59.8333 170.432 59.1583 170.832 58.7583C171.282 58.3082 171.982 58.0832 172.932 58.0832H184.557C185.507 58.0832 186.182 58.3082 186.582 58.7583C187.032 59.1583 187.257 59.8333 187.257 60.7833V109.383C187.257 110.333 187.032 111.033 186.582 111.483C186.182 111.883 185.507 112.083 184.557 112.083H172.932C171.982 112.083 171.282 111.883 170.832 111.483C170.432 111.033 170.232 110.333 170.232 109.383V92.7333H157.707V109.383C157.707 110.333 157.482 111.033 157.032 111.483C156.632 111.883 155.957 112.083 155.007 112.083ZM235.091 112.083H200.291C199.341 112.083 198.641 111.883 198.191 111.483C197.791 111.033 197.591 110.333 197.591 109.383V60.7833C197.591 59.8333 197.791 59.1583 198.191 58.7583C198.641 58.3082 199.341 58.0832 200.291 58.0832H235.091C236.041 58.0832 236.716 58.3082 237.116 58.7583C237.566 59.1583 237.791 59.8333 237.791 60.7833V69.5582C237.791 70.5082 237.566 71.2082 237.116 71.6582C236.716 72.0583 236.041 72.2583 235.091 72.2583H214.391V78.0333H229.016C229.966 78.0333 230.641 78.2583 231.041 78.7083C231.491 79.1083 231.716 79.7833 231.716 80.7333V88.7583C231.716 89.7083 231.491 90.4083 231.041 90.8583C230.641 91.2583 229.966 91.4583 229.016 91.4583H214.391V97.9083H235.091C236.041 97.9083 236.716 98.1333 237.116 98.5833C237.566 98.9833 237.791 99.6583 237.791 100.608V109.383C237.791 110.333 237.566 111.033 237.116 111.483C236.716 111.883 236.041 112.083 235.091 112.083ZM277.834 112.083H266.209C265.259 112.083 264.559 111.883 264.109 111.483C263.709 111.033 263.509 110.333 263.509 109.383V60.7833C263.509 59.8333 263.709 59.1583 264.109 58.7583C264.559 58.3082 265.259 58.0832 266.209 58.0832H289.159C295.959 58.0832 300.609 59.4333 303.109 62.1333C305.609 64.8332 306.859 68.3582 306.859 72.7082V82.3083C306.859 86.6583 305.609 90.1833 303.109 92.8833C300.609 95.5833 295.959 96.9333 289.159 96.9333H280.534V109.383C280.534 110.333 280.309 111.033 279.859 111.483C279.459 111.883 278.784 112.083 277.834 112.083ZM280.384 72.1082V83.4332H287.134C288.584 83.4332 289.534 83.0583 289.984 82.3083C290.434 81.5583 290.659 80.7082 290.659 79.7583V75.7832C290.659 74.8333 290.434 73.9833 289.984 73.2333C289.534 72.4832 288.584 72.1082 287.134 72.1082H280.384ZM355.507 112.083H317.332C316.382 112.083 315.682 111.883 315.232 111.483C314.832 111.033 314.632 110.333 314.632 109.383V60.7833C314.632 59.8333 314.832 59.1583 315.232 58.7583C315.682 58.3082 316.382 58.0832 317.332 58.0832H328.957C329.907 58.0832 330.582 58.3082 330.982 58.7583C331.432 59.1583 331.657 59.8333 331.657 60.7833V97.9083H341.932V85.7583C341.932 84.8083 342.132 84.1333 342.532 83.7333C342.982 83.2833 343.682 83.0583 344.632 83.0583H355.507C356.457 83.0583 357.132 83.2833 357.532 83.7333C357.982 84.1333 358.207 84.8083 358.207 85.7583V109.383C358.207 110.333 357.982 111.033 357.532 111.483C357.132 111.883 356.457 112.083 355.507 112.083ZM386.355 73.8332L382.83 85.2333H394.605L391.08 73.8332C390.88 73.3832 390.655 73.0582 390.405 72.8583C390.205 72.6583 389.955 72.5583 389.655 72.5583H387.78C387.48 72.5583 387.205 72.6583 386.955 72.8583C386.755 73.0582 386.555 73.3832 386.355 73.8332ZM382.08 109.383C382.08 110.333 381.855 111.033 381.405 111.483C381.005 111.883 380.33 112.083 379.38 112.083H368.355C367.405 112.083 366.705 111.883 366.255 111.483C365.855 111.033 365.655 110.333 365.655 109.383V89.5833C365.655 88.0833 365.88 86.3583 366.33 84.4083C366.83 82.4583 367.58 80.1833 368.58 77.5833L375.105 60.5582C375.405 59.7082 375.855 59.0832 376.455 58.6833C377.105 58.2833 377.93 58.0832 378.93 58.0832H399.105C400.055 58.0832 400.83 58.2833 401.43 58.6833C402.08 59.0832 402.555 59.7082 402.855 60.5582L409.38 77.5833C410.38 80.1833 411.105 82.4583 411.555 84.4083C412.055 86.3583 412.305 88.0833 412.305 89.5833V109.383C412.305 110.333 412.08 111.033 411.63 111.483C411.23 111.883 410.555 112.083 409.605 112.083H398.28C397.28 112.083 396.53 111.883 396.03 111.483C395.58 111.033 395.355 110.333 395.355 109.383V98.8833H382.08V109.383ZM435.516 112.083H424.266C423.316 112.083 422.616 111.883 422.166 111.483C421.766 111.033 421.566 110.333 421.566 109.383V60.7833C421.566 59.8333 421.766 59.1583 422.166 58.7583C422.616 58.3082 423.316 58.0832 424.266 58.0832H432.066C433.016 58.0832 433.816 58.2332 434.466 58.5332C435.166 58.8333 435.841 59.3583 436.491 60.1083L451.041 76.7583V60.7833C451.041 59.8333 451.241 59.1583 451.641 58.7583C452.091 58.3082 452.791 58.0832 453.741 58.0832H464.991C465.941 58.0832 466.616 58.3082 467.016 58.7583C467.466 59.1583 467.691 59.8333 467.691 60.7833V109.383C467.691 110.333 467.466 111.033 467.016 111.483C466.616 111.883 465.941 112.083 464.991 112.083H453.741C452.791 112.083 452.091 111.883 451.641 111.483C451.241 111.033 451.041 110.333 451.041 109.383V100.158L438.216 84.6332V109.383C438.216 110.333 437.991 111.033 437.541 111.483C437.141 111.883 436.466 112.083 435.516 112.083Z" fill="black"/>
<path d="M805.01 74.0801C805.533 77.3846 805.806 80.671 805.841 83.9197C808.188 97.5469 813.742 113.959 825.032 119.598C840.615 127.38 856.441 129.145 862.406 129.054C850.653 133.051 823.989 140.52 811.357 138.421C803.813 137.167 795.221 133.521 788.2 129.905C778.313 140.702 764.839 148.351 749.256 150.819L561.315 180.268C524.728 186.062 490.37 161.1 484.576 124.513C478.781 87.9264 503.743 53.5692 540.33 47.7743L728.271 18.3259C763.644 12.7233 796.933 35.8705 804.34 70.4775C804.42 70.3226 804.929 73.5694 805.01 74.0801Z" fill="#4AB0EA" stroke="black" stroke-width="4.32186" stroke-linejoin="round"/>
<path d="M565.745 142.517L553.744 144.417C552.806 144.566 552.083 144.478 551.576 144.153C551.111 143.771 550.804 143.111 550.655 142.173L544.895 105.801L534.005 107.526C533.067 107.674 532.344 107.586 531.837 107.262C531.372 106.88 531.065 106.22 530.916 105.281L529.497 96.3182C529.348 95.3799 529.44 94.6819 529.772 94.2243C530.146 93.7094 530.803 93.3777 531.741 93.2291L570.853 87.0343C571.792 86.8857 572.494 87.0023 572.959 87.3842C573.466 87.7089 573.794 88.3404 573.942 89.2787L575.362 98.2419C575.511 99.1802 575.398 99.9068 575.024 100.422C574.691 100.879 574.056 101.182 573.118 101.331L562.228 103.056L567.989 139.427C568.138 140.366 568.025 141.092 567.651 141.607C567.319 142.065 566.683 142.368 565.745 142.517ZM631.779 117.706C632.139 119.978 632.122 122.107 631.728 124.093C631.375 126.022 630.44 127.79 628.923 129.397C627.447 130.947 625.262 132.331 622.367 133.549C619.521 134.759 615.802 135.727 611.209 136.455C606.616 137.182 602.755 137.414 599.625 137.15C596.495 136.887 593.964 136.25 592.033 135.24C590.142 134.172 588.707 132.78 587.726 131.062C586.787 129.287 586.137 127.264 585.778 124.992L581.777 99.7318C581.417 97.4601 581.413 95.3598 581.766 93.4309C582.16 91.4448 583.091 89.6521 584.559 88.0528C586.076 86.4457 588.282 85.0331 591.178 83.8153C594.073 82.5974 597.817 81.6247 602.409 80.8973C607.002 80.1699 610.839 79.9419 613.919 80.2133C617.049 80.477 619.559 81.1425 621.449 82.21C623.389 83.2696 624.828 84.6869 625.767 86.4618C626.748 88.1795 627.419 90.1742 627.778 92.4459L631.779 117.706ZM602.171 119.662C602.327 120.65 602.83 121.43 603.681 122.005C604.523 122.529 606.278 122.58 608.944 122.158C611.611 121.736 613.264 121.145 613.903 120.385C614.534 119.577 614.772 118.679 614.615 117.691L611.459 97.7642C611.311 96.8259 610.815 96.0944 609.973 95.5698C609.122 94.9957 607.364 94.9199 604.697 95.3422C602.03 95.7646 600.381 96.3801 599.75 97.1888C599.111 97.9482 598.866 98.797 599.014 99.7353L602.171 119.662ZM700.807 121.125L677.473 124.82C671.3 125.798 666.512 125.291 663.108 123.299C659.754 121.299 657.67 117.731 656.857 112.595L653.196 89.4832C652.383 84.3472 653.262 80.3099 655.834 77.3714C658.455 74.4251 662.853 72.463 669.026 71.4853L687.545 68.5522C688.483 68.4036 689.185 68.5202 689.651 68.9021C690.158 69.2268 690.485 69.8582 690.634 70.7966L692.054 79.7598C692.202 80.6981 692.09 81.4247 691.715 81.9396C691.383 82.3972 690.748 82.7003 689.809 82.849L674.401 85.2893C672.87 85.5318 671.785 86.0327 671.146 86.792C670.499 87.502 670.274 88.4742 670.469 89.7089L673.273 107.413C673.469 108.648 673.885 109.518 674.522 110.025C675.209 110.524 676.12 110.683 677.256 110.503L684.441 109.365L682.611 97.8092C682.462 96.8709 682.554 96.1729 682.887 95.7153C683.261 95.2004 683.917 94.8687 684.855 94.7201L696.337 92.9015C697.276 92.7529 697.977 92.8695 698.443 93.2514C698.95 93.5761 699.278 94.2076 699.426 95.1459L703.052 118.036C703.2 118.974 703.088 119.7 702.714 120.215C702.381 120.673 701.746 120.976 700.807 121.125ZM755.481 98.1135C755.841 100.385 755.824 102.514 755.43 104.5C755.077 106.429 754.142 108.197 752.625 109.804C751.149 111.354 748.964 112.738 746.069 113.956C743.223 115.166 739.504 116.135 734.911 116.862C730.318 117.59 726.457 117.822 723.327 117.558C720.197 117.294 717.667 116.657 715.735 115.647C713.845 114.58 712.409 113.187 711.428 111.469C710.489 109.694 709.84 107.671 709.48 105.399L705.479 80.1393C705.119 77.8676 705.115 75.7673 705.468 73.8384C705.862 71.8523 706.793 70.0596 708.261 68.4603C709.778 66.8532 711.985 65.4406 714.88 64.2227C717.775 63.0049 721.519 62.0322 726.112 61.3048C730.704 60.5774 734.541 60.3494 737.621 60.6208C740.751 60.8845 743.261 61.55 745.151 62.6175C747.091 63.6771 748.53 65.0944 749.47 66.8693C750.45 68.587 751.121 70.5817 751.48 72.8534L755.481 98.1135ZM725.873 100.069C726.029 101.057 726.533 101.838 727.383 102.412C728.225 102.937 729.98 102.988 732.647 102.565C735.313 102.143 736.966 101.552 737.605 100.793C738.237 99.9842 738.474 99.086 738.318 98.0983L735.162 78.1717C735.013 77.2334 734.517 76.5019 733.675 75.9772C732.825 75.4032 731.066 75.3274 728.399 75.7497C725.733 76.1721 724.084 76.7876 723.452 77.5963C722.813 78.3557 722.568 79.2045 722.717 80.1428L725.873 100.069Z" fill="white"/>
</svg>
