<svg width="22" height="22" viewBox="0 0 22 22" fill="none" xmlns="http://www.w3.org/2000/svg">
<path id="Icons" d="M9.59096 14.7052V11.7344L11.0374 10.9323M11.0374 10.9323L12.4838 11.7344M11.0374 10.9323V9.50634M12.4838 11.7344L15.2803 10.1896V4.24805M12.4838 11.7344V5.73344M6.82667 17.7651L12.4517 20.7359M12.4517 20.7359L15.2803 19.2208V17.7651M12.4517 20.7359V20.8547M12.4517 20.7359V16.267M15.2803 17.7651L20.8088 14.824V11.7344M15.2803 17.7651V14.7349M15.2803 17.7651L12.4517 16.267M15.2803 8.79335L20.8088 11.7344M20.8088 11.7344L15.2803 14.7349M9.55882 14.7349L11.0374 15.518M11.0374 15.518L5.3481 18.5375M11.0374 15.518L12.4517 16.267M5.3481 18.5375L2.55166 17.0224V10.962M5.3481 18.5375V12.5365M2.55166 10.962L8.17667 7.96153L11.0374 9.50634M2.55166 10.962L5.3481 12.5365M11.0374 9.50634L5.3481 12.5365M9.55882 11.7344L15.2803 14.7349M15.2803 7.24854L19.4267 5.05016M19.4267 5.05016V10.9917M19.4267 5.05016L16.6624 3.41623L15.216 4.21834M12.4838 5.73344L15.216 4.21834M12.4838 5.73344L6.73024 2.70324M15.216 4.21834L9.62311 1.24756L6.73024 2.70324M6.73024 2.70324V4.36688M6.73024 4.36688V8.73394M6.73024 4.36688L1.20166 7.27825M1.20166 7.27825V10.2193L2.55166 10.9917M1.20166 7.27825L5.41238 9.44693" stroke="white" stroke-width="1.00241" stroke-linecap="round"/>
</svg>
