<svg width="19" height="18" viewBox="0 0 19 18" fill="none" xmlns="http://www.w3.org/2000/svg">
<path fill-rule="evenodd" clip-rule="evenodd" d="M7.32698 5.0625C6.53091 5.0625 5.88557 5.70784 5.88557 6.50391V14.3086C5.88557 15.1047 6.53091 15.75 7.32698 15.75H15.1317C15.9277 15.75 16.5731 15.1047 16.5731 14.3086V6.50391C16.5731 5.70784 15.9277 5.0625 15.1317 5.0625H7.32698ZM4.76057 6.50391C4.76057 5.08652 5.90959 3.9375 7.32698 3.9375H15.1317C16.5491 3.9375 17.6981 5.08652 17.6981 6.50391V14.3086C17.6981 15.726 16.5491 16.875 15.1317 16.875H7.32698C5.90959 16.875 4.76057 15.726 4.76057 14.3086V6.50391Z" fill="white"/>
<path fill-rule="evenodd" clip-rule="evenodd" d="M4.75891 1.125L4.76057 1.125H12.3543L12.3559 1.125C13.0262 1.12691 13.6686 1.39404 14.1425 1.86803C14.6165 2.34201 14.8837 2.98433 14.8856 3.65465C14.8856 3.65909 14.8855 3.66353 14.8855 3.66797L14.8679 4.51172C14.8614 4.82231 14.6044 5.06885 14.2938 5.06238C13.9832 5.05591 13.7366 4.79888 13.7431 4.48828L13.7605 3.65176C13.7579 3.2809 13.6094 2.92588 13.3471 2.66352C13.0834 2.3999 12.7263 2.25125 12.3535 2.25H4.76147C4.31416 2.25152 3.88559 2.42989 3.56928 2.7462C3.25297 3.06252 3.0746 3.49108 3.07307 3.93839V11.5304C3.07433 11.9032 3.22297 12.2604 3.48659 12.524C3.75023 12.7876 4.10742 12.9363 4.48023 12.9375H5.32307C5.63373 12.9375 5.88557 13.1893 5.88557 13.5C5.88557 13.8107 5.63373 14.0625 5.32307 14.0625H4.47932L4.47772 14.0625C3.80741 14.0606 3.16509 13.7935 2.6911 13.3195C2.21711 12.8455 1.94998 12.2032 1.94808 11.5329L1.94807 11.5312V3.9375L1.94808 3.93584C1.95028 3.19103 2.24713 2.47737 2.77378 1.95071C3.30044 1.42405 4.01411 1.1272 4.75891 1.125Z" fill="white"/>
</svg>
