<svg width="145" height="30" viewBox="0 0 145 30" fill="none" xmlns="http://www.w3.org/2000/svg">
<g clip-path="url(#clip0_4470_560)">
<path d="M67.8929 0.60856V4.37453C64.4152 4.32616 63.6025 6.36725 63.6748 9.89363H75.2258V25.412H77.4971V28.9832H68.5418V25.412H70.878V13.4648H63.6748C63.6964 17.4468 63.7181 21.4292 63.7397 25.412H67.1142V28.9832H56.861V25.412L59.3918 25.3471V13.4648H56.861V9.89363H59.3918C59.3109 3.7512 61.8022 0.537981 67.8929 0.60856ZM134.668 0.60856H141.742V25.412H144.078V28.9832H138.302V25.3471C138.259 25.3687 138.216 25.3904 138.172 25.412C137.069 28.5367 131.57 30.4284 127.53 28.7884C124.22 27.4451 122.351 24.6264 121.69 20.6072C120.618 14.1052 126.37 8.10018 132.916 9.6339C134.975 10.1163 136.008 11.1602 137.394 12.2311V4.17974H134.668V0.60856ZM0.987745 1.51759H13.1877C22.681 1.51726 27.6342 2.0545 31.2281 8.01064C32.401 9.9544 33.5994 13.2175 33.0451 16.7113C32.0663 22.8812 29.1381 26.6864 23.7004 28.3339C21.1015 29.1213 17.6059 28.9832 14.226 28.9832H0.922852V25.1523H3.77816V5.28356H0.987745V1.51759ZM8.25581 5.28356V25.1523H10.9813V5.28356H8.25581ZM15.459 5.28356V25.1523C20.7109 25.2146 24.3156 24.7714 26.4909 21.8408C27.2271 20.8489 27.7761 19.5724 28.1132 18.2047C29.6229 12.0806 26.5288 7.13759 22.2728 5.803C20.4113 5.21928 17.8892 5.26648 15.459 5.28356ZM44.2068 9.50404C50.0872 9.42807 53.201 12.0056 54.4599 16.5165C54.7401 17.5205 55.057 19.142 54.7195 20.3474H39.5344C39.8226 21.4294 39.9383 22.3746 40.443 23.2044C41.7119 25.2907 45.2784 26.5587 48.36 25.2172C49.7273 24.622 50.0724 23.4679 51.0206 22.4901H54.7844V22.5551C53.8767 25.2492 52.4162 27.3887 49.9174 28.4638C45.6712 30.2906 40.1541 29.0706 37.9121 26.2561C37.156 25.307 36.4689 24.1954 36.0302 22.9447C34.1323 17.5343 37.0788 12.684 40.3781 10.7377C41.5215 10.0632 42.6186 9.57274 44.2068 9.50404ZM98.5226 25.412V28.9832H89.8918V25.412H91.9683C92.0014 22.9675 92.4239 16.7967 91.7088 15.0881C91.3246 14.1705 90.4103 13.5375 89.3077 13.3349C84.0585 12.3704 85.3583 20.9202 85.4141 25.412H87.4907V28.9832H78.8599V25.412H81.0662V13.4648H78.8599V9.89363H84.3109C84.3323 10.9109 84.354 11.9281 84.3758 12.9454V12.8155C85.0708 11.9082 85.588 11.0165 86.5822 10.4131C90.7522 7.88136 95.1806 10.3109 96.1215 14.1141C96.6887 16.4062 96.2513 20.2732 96.2513 22.8797C96.2727 23.7238 96.2944 24.5679 96.3162 25.412H98.5226ZM108.776 9.50404C114.656 9.42807 117.77 12.0056 119.029 16.5165C119.309 17.5205 119.626 19.142 119.288 20.3474H104.103C104.392 21.4294 104.507 22.3746 105.012 23.2044C106.281 25.2907 109.847 26.5587 112.929 25.2172C114.296 24.622 114.641 23.4679 115.59 22.4901H119.353V22.5551C118.446 25.2492 116.985 27.3887 114.486 28.4638C110.24 30.2906 104.723 29.0706 102.481 26.2561C101.726 25.3081 101.035 24.1952 100.599 22.9447C98.7114 17.5265 101.639 12.6896 104.947 10.7377C106.09 10.0632 107.181 9.62793 108.776 9.50404ZM50.8259 17.6853C50.6269 14.3497 46.9078 11.668 43.1685 13.2051C41.2049 14.0122 40.3535 15.5088 39.6642 17.6204L50.8259 17.6853ZM115.395 17.6853C115.196 14.3497 111.477 11.668 107.737 13.2051C105.774 14.0122 104.922 15.5088 104.233 17.6204L115.395 17.6853ZM131.034 13.3349C128.899 13.4122 126.876 14.648 126.037 17.6853C124.86 21.9498 128.254 26.255 132.527 25.477C139.371 24.2308 139.149 13.2066 131.034 13.3349ZM72.8248 0.60856C73.4537 0.60856 74.0685 0.795157 74.5914 1.14476C75.1143 1.49435 75.5218 1.99125 75.7625 2.57261C76.0032 3.15397 76.0662 3.79369 75.9435 4.41085C75.8208 5.02802 75.5179 5.59493 75.0732 6.03988C74.6285 6.48484 74.0619 6.78786 73.4451 6.91062C72.8283 7.03338 72.189 6.97038 71.6079 6.72957C71.0269 6.48876 70.5303 6.08097 70.1809 5.55776C69.8315 5.03455 69.645 4.41942 69.645 3.79016C69.645 2.94634 69.98 2.13709 70.5763 1.54043C71.1727 0.943763 71.9815 0.60856 72.8248 0.60856Z" fill="black"/>
</g>
<defs>
<clipPath id="clip0_4470_560">
<rect width="143.155" height="28.7825" fill="white" transform="translate(0.922852 0.608887)"/>
</clipPath>
</defs>
</svg>
