<svg width="148" height="46" viewBox="0 0 148 46" fill="none" xmlns="http://www.w3.org/2000/svg">
<path fill-rule="evenodd" clip-rule="evenodd" d="M15.1098 2.8833C12.4113 4.2916 10.1934 5.48064 10.2018 5.53124C10.2018 5.65773 16.6868 8.93814 16.9144 8.9297C17.0156 8.9297 17.7746 8.57552 18.601 8.15387L20.1021 7.38648L21.7381 8.22977L23.3741 9.07306L26.0557 7.86715C30.0867 6.05407 30.5083 5.85169 30.4409 5.79266C30.3565 5.69989 28.9061 4.92407 24.9763 2.858C23.0789 1.86292 21.2405 0.876263 20.8864 0.682306C20.5322 0.479916 20.1949 0.328125 20.1358 0.328125C20.0768 0.328125 17.8083 1.475 15.1098 2.8833ZM3.26155 9.02246L0.444957 10.4729V16.8482C0.444957 20.3563 0.478689 23.2235 0.529286 23.2235C0.571451 23.2235 1.95445 22.6248 3.6073 21.8911L6.60099 20.5587V13.8377L8.05988 14.6304C9.18989 15.246 10.3115 15.8531 11.4415 16.4687L13.3642 17.506L14.2159 17.1181C14.7556 16.8735 15.2869 16.629 15.8182 16.3844C16.2314 16.1904 17.2433 15.7351 18.0698 15.3725C18.8962 15.0098 19.6551 14.6388 19.7648 14.5545C19.9081 14.4448 18.1541 13.475 13.2799 10.9705C9.60311 9.0815 6.47449 7.54671 6.33113 7.55514C6.18777 7.56357 4.80478 8.22134 3.26155 9.02246ZM30.9384 9.42724C29.0241 10.2958 27.4556 11.0379 27.4556 11.0801C27.4556 11.1223 28.5013 11.7463 29.7747 12.4631C31.0565 13.1799 32.0937 13.8039 32.0937 13.8545C32.0937 13.9051 30.9637 14.4533 29.5807 15.0689C28.1977 15.6929 24.7065 17.2699 21.814 18.577L12.1414 22.9536C9.7043 24.0499 7.51174 25.045 7.26719 25.1546C2.3002 27.4062 0.925633 28.0303 0.740109 28.1399C0.554585 28.2495 0.51242 28.8736 0.478688 32.019L0.436523 35.7717L2.94953 37.0535L5.46254 38.3353L8.95377 36.7583C10.868 35.8897 12.445 35.1392 12.445 35.0802C12.445 35.0212 12.0908 34.7935 11.6607 34.5658C11.2307 34.3381 10.3368 33.8321 9.67057 33.4442C9.0128 33.0563 8.35504 32.7021 8.21168 32.6515C8.06832 32.6009 7.95026 32.525 7.95026 32.466C7.95026 32.4154 9.48505 31.6817 11.3656 30.8469C15.0086 29.2193 17.7915 27.9628 23.7704 25.2558C26.4437 24.0499 29.1169 22.8356 31.7986 21.6297C34.1513 20.5671 36.8836 19.3275 37.8703 18.8721L39.6665 18.0457L39.7086 14.2509L39.7508 10.4561L37.2041 9.15739C35.8042 8.44059 34.5983 7.85029 34.5393 7.85029C34.4718 7.85029 32.8527 8.56708 30.9384 9.42724ZM38.9918 23.1223C38.6124 23.3078 37.8703 23.6536 37.339 23.8897C36.8077 24.1258 35.7958 24.5812 35.0958 24.9016L33.8225 25.4835L33.7972 28.8145C33.7803 30.6445 33.7128 32.1371 33.6454 32.1287C33.4936 32.1034 31.1071 30.8806 28.7037 29.5904C26.9665 28.6627 26.8569 28.6206 26.4521 28.823C26.216 28.941 24.8077 29.5735 23.3235 30.2228C21.8393 30.8806 20.5743 31.454 20.5153 31.5131C20.4563 31.5637 23.4415 33.1828 27.1604 35.1139L33.9068 38.622L36.7908 37.1294C38.3762 36.3114 39.7255 35.5609 39.7845 35.4681C39.9279 35.2573 39.911 22.7597 39.7761 22.7766C39.7171 22.785 39.3629 22.9368 38.9918 23.1223ZM23.0199 37.7872C22.5223 37.998 22.0164 38.2172 21.5188 38.4365C20.0093 39.0858 20.3045 39.1111 18.5083 38.2172C17.3108 37.6185 16.7964 37.4414 16.5687 37.5257C16.4 37.5932 14.958 38.2425 13.3558 38.9678C11.7619 39.693 10.3958 40.2917 10.3283 40.2917C9.6537 40.2917 10.7753 40.9579 15.0761 43.1252L20.119 45.6719L22.2441 44.6263C23.4078 44.0528 25.769 42.8975 27.4725 42.0626C29.1843 41.2278 30.5589 40.5279 30.5336 40.4941C30.5083 40.4688 29.0747 39.7352 27.346 38.8581L24.2089 37.2727L23.0199 37.7872Z" fill="black"/>
<path d="M109.838 18.3244C107.038 18.6725 104.973 20.2624 104.214 22.6354C103.692 24.249 103.755 25.7836 104.412 27.3419C105.187 29.1849 106.856 30.498 109.071 30.9963C109.711 31.1466 111.364 31.1545 112.029 31.0279C114.6 30.5217 116.395 28.9239 117.139 26.5034C117.313 25.926 117.337 25.7519 117.337 24.7236C117.337 23.6953 117.313 23.5213 117.139 22.9439C116.403 20.5551 114.671 18.981 112.195 18.4589C111.681 18.3561 110.273 18.277 109.838 18.3244ZM111.404 21.4647C112.329 21.7099 113.207 22.3111 113.611 23.0151C114.236 24.075 114.212 25.4751 113.563 26.4876C112.401 28.3148 109.743 28.6154 108.145 27.0967C106.816 25.831 106.769 23.8219 108.034 22.4535C108.881 21.5517 110.225 21.1641 111.404 21.4647Z" fill="black"/>
<path d="M123.522 18.3244C120.722 18.6725 118.658 20.2624 117.898 22.6354C117.376 24.249 117.44 25.7836 118.096 27.3419C118.871 29.1849 120.54 30.498 122.755 30.9963C123.396 31.1466 125.049 31.1545 125.713 31.0279C128.284 30.5217 130.08 28.9239 130.823 26.5034C130.997 25.926 131.021 25.7519 131.021 24.7236C131.021 23.6953 130.997 23.5213 130.823 22.9439C130.088 20.5551 128.355 18.981 125.88 18.4589C125.365 18.3561 123.957 18.277 123.522 18.3244ZM125.096 21.4647C126.03 21.7099 126.9 22.3111 127.303 23.0151C127.928 24.075 127.905 25.4751 127.256 26.4876C126.093 28.3148 123.435 28.6154 121.838 27.0967C120.509 25.831 120.461 23.8219 121.727 22.4535C122.565 21.5517 123.91 21.1641 125.096 21.4647Z" fill="black"/>
<path d="M141.952 18.3639C140.323 18.6012 139.097 19.6454 138.701 21.1483C138.322 22.5642 138.591 24.0117 139.35 24.7157C139.801 25.1349 140.339 25.3801 141.818 25.8547C143.25 26.3135 143.574 26.5113 143.724 26.9938C143.89 27.5475 143.479 28.2119 142.854 28.386C142.514 28.4809 141.873 28.4809 141.446 28.378C140.98 28.2673 140.141 27.856 139.785 27.5475C139.627 27.3972 139.445 27.2865 139.413 27.2865C139.382 27.2865 139.2 27.5554 139.026 27.8876C138.781 28.3543 138.701 28.4571 138.686 28.3306L138.662 28.1724H136.756H134.857V23.3789V18.5854H133.283H131.709V24.7315V30.8776H135.181L140.409 30.9108L138.999 30.2053C138.999 30.0233 138.67 30.2053 138.686 30.2053C138.701 30.2053 138.986 30.3397 139.318 30.49C140.347 30.9725 141.003 31.1149 142.277 31.1149C143.519 31.1149 144.104 31.0042 144.871 30.6324C145.48 30.3397 146.303 29.525 146.58 28.9555C147.126 27.8164 147.205 26.2819 146.746 25.3089C146.667 25.127 146.398 24.7711 146.145 24.5259C145.607 23.988 145.029 23.6953 143.55 23.2207C142.965 23.0388 142.38 22.8173 142.245 22.7382C141.771 22.4455 141.676 21.8048 142.047 21.4014C142.696 20.7053 143.851 20.7686 145.053 21.5675L145.291 21.7178L145.931 20.4917C146.271 19.8273 146.556 19.2657 146.54 19.2578C146.469 19.1866 145.575 18.8306 145.069 18.6724C144.001 18.3402 142.878 18.2216 141.952 18.3639Z" fill="black"/>
<path d="M53.5186 22.9834V31.0833H56.382C57.9561 31.0833 59.6014 31.0358 60.0285 30.9884C63.5643 30.5533 66.1746 28.4097 67.0131 25.2615C67.2899 24.2174 67.3532 22.3823 67.1555 21.2907C66.752 19.1708 65.6525 17.4622 63.9598 16.3074C63.2004 15.7853 62.5202 15.5005 61.4286 15.1999C60.5743 14.9706 60.4398 14.9706 57.0385 14.9231L53.5265 14.8835V22.9834H53.5186ZM59.7675 18.1899C61.9902 18.6645 63.4694 20.5234 63.4694 22.849C63.4615 24.3914 62.9869 25.7203 62.1009 26.5983C61.2229 27.4842 59.9178 27.9114 58.0985 27.9193H57.2363V22.9913V18.0634H58.1934C58.7154 18.0634 59.4194 18.1267 59.7675 18.1899Z" fill="black"/>
<path d="M68.4922 22.9914V31.0834L75.3106 31.0755H82.1212L83.8772 28.6076C84.8501 27.2628 85.6649 26.1554 85.6886 26.1554C85.7282 26.1554 86.5429 27.2628 87.5079 28.6234L89.2719 31.0913H91.4867C92.6969 31.0913 93.6936 31.0597 93.6936 31.0359C93.6936 31.0043 92.3884 29.185 90.8143 26.9939L87.9351 23.0072L90.6878 19.163C92.2065 17.0589 93.5275 15.2475 93.6145 15.1447C93.7885 14.9707 93.7885 14.9944 93.7885 16.6159V18.2612H95.4654H97.1423V24.6763V31.0913H99.1436H101.145V24.6763V18.2612L103.099 18.2454L105.044 18.2138L104 16.5685L102.956 14.9232L96.1219 14.9153H89.2798L87.5237 17.3832C86.5508 18.7279 85.7361 19.8353 85.7123 19.8511C85.6807 19.8511 84.866 18.7437 83.9009 17.3832L82.137 14.9153H75.3265H68.508V22.9914H68.4922ZM80.5234 18.9415C82.0895 21.1088 83.371 22.9281 83.371 22.9835C83.371 23.0389 82.0895 24.874 80.5154 27.0572L77.652 31.028L77.6204 29.4777L77.6045 27.9273H74.9072H72.2099V26.108V24.2966H74.3931H76.5762V22.762V21.2275H74.3931H72.2099V19.6455V18.0635H74.9072H77.6045V16.5289C77.6045 15.6826 77.6204 14.9944 77.6441 14.9944C77.6678 14.9944 78.9572 16.7741 80.5234 18.9415Z" fill="black"/>
</svg>
