<svg width="188" height="50" viewBox="0 0 188 50" fill="none" xmlns="http://www.w3.org/2000/svg">
<g clip-path="url(#clip0_367_297)">
<path d="M70.0975 31.5632H76.8163C77.301 31.5632 77.695 31.9552 77.695 32.4377V36.6263C77.695 37.1086 77.301 37.5008 76.8163 37.5008H63.096C62.6114 37.5008 62.2174 37.1086 62.2174 36.6263V13.3582C62.2174 12.8758 62.6114 12.4836 63.096 12.4836H69.2223C69.7069 12.4836 70.1009 12.8758 70.1009 13.3582V31.5632H70.0975Z" fill="#FAF0F0"/>
<path d="M106.14 13.7572L97.7821 29.9009V36.6228C97.7821 37.1051 97.3886 37.4973 96.9039 37.4973H90.7773C90.2926 37.4973 89.8986 37.1051 89.8986 36.6228V29.9009L81.5409 13.7572C81.2411 13.1743 81.663 12.4836 82.322 12.4836H89.3302C89.6754 12.4836 89.9892 12.685 90.1323 12.9973L93.9115 21.3502L97.6918 12.9973C97.8347 12.685 98.1452 12.4836 98.4936 12.4836H105.362C106.018 12.4836 106.443 13.1743 106.144 13.7572H106.14Z" fill="#FAF0F0"/>
<path d="M134.285 37.4973H127.754C127.458 37.4973 127.186 37.3516 127.022 37.1051L118.939 24.921V36.6263C118.939 37.1086 118.546 37.5008 118.061 37.5008H111.935C111.45 37.5008 111.056 37.1086 111.056 36.6263V13.3582C111.056 12.8758 111.45 12.4836 111.935 12.4836H118.462C118.758 12.4836 119.037 12.6329 119.198 12.8827L127.28 25.2751V13.3582C127.28 12.8758 127.674 12.4836 128.159 12.4836H134.285C134.769 12.4836 135.164 12.8758 135.164 13.3582V36.6228C135.164 37.1051 134.769 37.4973 134.285 37.4973Z" fill="#FAF0F0"/>
<path d="M149.076 18.7371V21.8117H156.007C156.492 21.8117 156.886 22.2039 156.886 22.6862V26.8401C156.886 27.3225 156.492 27.7147 156.007 27.7147H149.076V31.2474H157.07C157.555 31.2474 157.949 31.6395 157.949 32.1219V36.6297C157.949 37.1121 157.555 37.5043 157.07 37.5043H142.071C141.586 37.5043 141.192 37.1121 141.192 36.6297V13.3582C141.192 12.8758 141.586 12.4836 142.071 12.4836H157.07C157.555 12.4836 157.949 12.8758 157.949 13.3582V17.866C157.949 18.3484 157.555 18.7405 157.07 18.7405H149.076V18.7371Z" fill="#FAF0F0"/>
<path d="M179.166 37.1294L174.815 30.9975L171.234 37.067C171.077 37.3342 170.788 37.4973 170.477 37.4973H163.601C162.908 37.4973 162.489 36.7338 162.862 36.1543L170.272 24.6018L162.628 13.8613C162.217 13.2819 162.632 12.4836 163.343 12.4836H170.526C170.812 12.4836 171.077 12.6225 171.244 12.855L175.418 18.7371L178.856 12.914C179.013 12.6467 179.302 12.4836 179.613 12.4836H186.489C187.183 12.4836 187.601 13.2471 187.228 13.8267L179.961 25.1293L187.782 36.1161C188.194 36.6957 187.779 37.4938 187.067 37.4938H179.885C179.598 37.4938 179.334 37.355 179.166 37.1259V37.1294Z" fill="#FAF0F0"/>
<path d="M22.7998 16.3914L10.4777 24.4876C10.115 24.727 10.115 25.258 10.4777 25.4974L22.9114 33.6664C23.546 34.0828 23.926 34.7873 23.926 35.5438V48.3734C23.926 48.8905 23.3402 49.1958 22.9148 48.8973L0.906544 33.6143C0.338206 33.2187 0 32.5732 0 31.8862V18.0988C0 17.4082 0.338206 16.7627 0.906544 16.3706L22.9114 1.08758C23.3367 0.79261 23.9225 1.09452 23.9225 1.61159V14.3093C23.9225 15.1491 23.5006 15.9299 22.7963 16.3914H22.7998Z" fill="#FAF0F0"/>
<path d="M52.3917 18.0986V31.8859C52.3917 32.5765 52.0536 33.222 51.4852 33.6141L29.4769 48.8971C29.0515 49.1921 28.4658 48.8902 28.4658 48.3731V35.5436C28.4658 34.7871 28.8458 34.0826 29.4804 33.6662L41.9141 25.4972C42.2767 25.2578 42.2767 24.7268 41.9141 24.4873L29.5919 16.3912C28.8877 15.9297 28.4658 15.1454 28.4658 14.309V1.61138C28.4658 1.09431 29.0515 0.78893 29.4769 1.08737L51.4852 16.3704C52.0536 16.766 52.3917 17.4115 52.3917 18.0986Z" fill="#FAF0F0"/>
</g>
<defs>
<clipPath id="clip0_367_297">
<rect width="188" height="48.0602" fill="white" transform="translate(0 0.969971)"/>
</clipPath>
</defs>
</svg>
