<svg width="189" height="49" viewBox="0 0 189 49" fill="none" xmlns="http://www.w3.org/2000/svg">
<g clip-path="url(#clip0_4470_293)">
<path d="M70.5978 30.6H77.3167C77.8014 30.6 78.1953 30.9921 78.1953 31.4746V35.6631C78.1953 36.1455 77.8014 36.5377 77.3167 36.5377H63.5964C63.1117 36.5377 62.7178 36.1455 62.7178 35.6631V12.395C62.7178 11.9127 63.1117 11.5205 63.5964 11.5205H69.7226C70.2073 11.5205 70.6012 11.9127 70.6012 12.395V30.6H70.5978Z" fill="black"/>
<path d="M106.64 12.7941L98.2819 28.9377V35.6596C98.2819 36.142 97.8884 36.5342 97.4036 36.5342H91.277C90.7924 36.5342 90.3984 36.142 90.3984 35.6596V28.9377L82.0407 12.7941C81.7408 12.2111 82.1627 11.5205 82.8217 11.5205H89.83C90.1752 11.5205 90.489 11.7218 90.632 12.0341L94.4113 20.3871L98.1916 12.0341C98.3344 11.7218 98.645 11.5205 98.9933 11.5205H105.862C106.518 11.5205 106.943 12.2111 106.643 12.7941H106.64Z" fill="black"/>
<path d="M134.785 36.5342H128.255C127.958 36.5342 127.686 36.3884 127.522 36.142L119.44 23.9579V35.6631C119.44 36.1455 119.046 36.5377 118.561 36.5377H112.435C111.95 36.5377 111.557 36.1455 111.557 35.6631V12.395C111.557 11.9127 111.95 11.5205 112.435 11.5205H118.962C119.258 11.5205 119.537 11.6697 119.698 11.9196L127.78 24.3119V12.395C127.78 11.9127 128.174 11.5205 128.659 11.5205H134.785C135.27 11.5205 135.664 11.9127 135.664 12.395V35.6596C135.664 36.142 135.27 36.5342 134.785 36.5342Z" fill="black"/>
<path d="M149.575 17.7739V20.8486H156.507C156.991 20.8486 157.386 21.2408 157.386 21.7231V25.877C157.386 26.3594 156.991 26.7515 156.507 26.7515H149.575V30.2842H157.57C158.055 30.2842 158.449 30.6763 158.449 31.1588V35.6666C158.449 36.149 158.055 36.5411 157.57 36.5411H142.571C142.086 36.5411 141.691 36.149 141.691 35.6666V12.395C141.691 11.9127 142.086 11.5205 142.571 11.5205H157.57C158.055 11.5205 158.449 11.9127 158.449 12.395V16.9029C158.449 17.3852 158.055 17.7774 157.57 17.7774H149.575V17.7739Z" fill="black"/>
<path d="M179.666 36.1663L175.315 30.0344L171.734 36.1038C171.578 36.3711 171.288 36.5342 170.978 36.5342H164.102C163.408 36.5342 162.989 35.7707 163.363 35.1911L170.772 23.6386L163.129 12.8982C162.718 12.3187 163.132 11.5205 163.844 11.5205H171.026C171.312 11.5205 171.578 11.6594 171.744 11.8919L175.918 17.7739L179.356 11.9508C179.513 11.6836 179.803 11.5205 180.113 11.5205H186.989C187.683 11.5205 188.101 12.284 187.728 12.8635L180.461 24.1662L188.282 35.153C188.694 35.7326 188.279 36.5307 187.568 36.5307H180.385C180.098 36.5307 179.834 36.3919 179.666 36.1628V36.1663Z" fill="black"/>
<path d="M23.2998 15.4283L10.9777 23.5244C10.615 23.7639 10.615 24.2948 10.9777 24.5342L23.4114 32.7033C24.046 33.1197 24.426 33.8241 24.426 34.5806V47.4102C24.426 47.9273 23.8402 48.2327 23.4148 47.9342L1.40654 32.6512C0.838206 32.2556 0.5 31.6101 0.5 30.923V17.1356C0.5 16.4451 0.838206 15.7996 1.40654 15.4075L23.4114 0.124447C23.8367 -0.170525 24.4225 0.131389 24.4225 0.648457V13.3461C24.4225 14.186 24.0006 14.9668 23.2963 15.4283H23.2998Z" fill="black"/>
<path d="M52.8918 17.1354V30.9228C52.8918 31.6134 52.5536 32.2589 51.9852 32.651L29.977 47.934C29.5516 48.229 28.9658 47.927 28.9658 47.41V34.5804C28.9658 33.8239 29.3459 33.1195 29.9805 32.7031L42.4142 24.534C42.7767 24.2946 42.7767 23.7637 42.4142 23.5242L30.092 15.4281C29.3877 14.9666 28.9658 14.1823 28.9658 13.3459V0.648247C28.9658 0.131178 29.5516 -0.174205 29.977 0.124238L51.9852 15.4073C52.5536 15.8028 52.8918 16.4484 52.8918 17.1354Z" fill="black"/>
</g>
<defs>
<clipPath id="clip0_4470_293">
<rect width="188" height="48.0602" fill="white" transform="translate(0.5 0.00683594)"/>
</clipPath>
</defs>
</svg>
