<svg width="86" height="86" viewBox="0 0 86 86" fill="none" xmlns="http://www.w3.org/2000/svg">
<g clip-path="url(#clip0_2209_1241)">
<path d="M70.1856 72.4455C70.1128 72.5182 70.0583 72.5909 70.0674 72.6C70.0765 72.6091 70.1492 72.5546 70.2219 72.4818C70.2947 72.4091 70.3492 72.3364 70.3401 72.3273C70.331 72.3182 70.2583 72.3727 70.1856 72.4455Z" fill="black"/>
<path d="M42.9863 85.9817C37.3772 85.9817 31.9408 84.8363 26.8227 82.5908C21.8863 80.4181 17.4499 77.309 13.6499 73.3544C9.84995 69.409 6.87723 64.809 4.79541 59.6908C2.64087 54.3999 1.54994 48.7817 1.54994 42.9908C1.54994 42.7817 1.54994 42.5817 1.54994 42.3726C1.54994 42.1272 1.54085 41.909 1.54994 41.709C1.55903 40.0817 1.64995 38.4362 1.81359 36.7999C1.95904 35.3817 2.19541 33.9544 2.58632 32.1635C3.86813 26.3453 6.44085 20.7544 10.0318 15.9908C11.059 14.6272 12.2681 13.2362 13.6318 11.8544C15.1136 10.3453 16.8681 8.86351 18.8409 7.45442C21.7772 5.36351 25.1136 3.62715 28.4954 2.44533C30.4045 1.7817 32.3409 1.25442 34.25 0.890787C34.8318 0.781696 35.45 0.681696 36.0863 0.590787C38.35 0.199878 40.6681 -0.00012207 42.9772 -0.00012207C48.5863 -0.00012207 54.0227 1.14533 59.15 3.39079C64.0863 5.56352 68.5227 8.6726 72.3227 12.6272C76.1227 16.5726 79.0954 21.1726 81.1772 26.2908C83.3318 31.5817 84.4227 37.1999 84.4227 42.9908C84.4227 48.7817 83.3318 54.3999 81.1772 59.6908C79.0954 64.809 76.1136 69.3999 72.3227 73.3544C68.5227 77.309 64.0863 80.4181 59.15 82.5908C54.0318 84.8453 48.5954 85.9817 42.9863 85.9817Z" fill="black"/>
<path d="M3.51245 32.3772C4.77049 26.7534 7.24929 21.4507 10.7718 16.8636C11.7689 15.5609 12.9431 14.2398 14.285 12.8912C15.7294 11.4508 17.4161 10.0472 19.3451 8.68941C22.2059 6.68026 25.4489 5.0289 28.7011 3.91882C30.5742 3.27663 32.438 2.78122 34.3017 2.42343C36.0164 2.10233 37.8615 1.89132 39.8371 1.79041C42.4091 1.67114 45.1208 1.8271 47.991 2.27664C48.6061 2.36838 49.2211 2.48765 49.8455 2.62526C56.0332 3.97387 61.6337 6.60686 66.6472 10.5243C68.4458 11.9371 70.1977 13.5609 71.8844 15.4049C72.3038 15.8636 72.7138 16.3315 73.1052 16.8086C77.718 22.4507 80.7186 28.8176 82.0885 35.9001C82.3028 37.0285 82.4985 38.3863 82.6569 39.9734C82.7129 40.5698 82.7594 41.1753 82.7781 41.7716C82.8713 44.1018 82.7874 46.3954 82.5358 48.6431C82.4612 49.2853 82.3774 49.8999 82.2655 50.4963C81.8928 52.588 81.4455 54.4412 80.9236 56.0834C80.4111 57.6888 79.7588 59.3402 78.9667 61.0558C77.6807 63.8264 76.0313 66.4043 74.1768 68.7804C74.1489 68.8171 74.0836 68.7988 74.0743 68.7529C73.9345 67.9364 73.8414 67.0649 73.5898 66.2667C73.3102 65.3952 72.9468 64.4777 72.5647 63.6429C71.7726 61.9181 70.4679 60.4136 69.1167 59.0374C66.8523 56.7255 64.9885 54.7623 63.0875 52.4412C61.1399 50.0651 59.4811 47.3587 59.2481 44.2394C59.1084 42.3587 59.1084 40.4413 59.2575 38.4781C59.332 37.4689 59.5463 36.5056 59.6954 35.5423C59.742 35.2763 59.6675 35.1295 59.8725 34.9185C59.9377 34.8542 59.9564 34.7625 59.9377 34.6708C59.8911 34.5148 59.8632 34.3864 59.8725 34.2212C59.9191 33.5056 59.9936 32.8451 60.0775 32.2396C60.1707 31.5791 60.2359 30.9644 60.2732 30.4047C60.3571 29.1571 60.4316 27.8727 60.4875 26.5424C60.5528 25.1388 60.5994 23.8452 60.4316 22.4966C60.2732 21.2122 60.0309 19.9462 59.7234 18.6985C59.4532 17.5976 59.0338 16.6434 58.484 15.8361C57.7198 14.6985 56.9184 13.6527 56.0891 12.6802C55.3715 11.8453 54.5142 11.038 53.6848 10.2765C52.4454 9.12977 51.029 8.18483 49.4448 7.68025C48.6527 7.42337 47.814 7.33163 46.9753 7.31328C46.2391 7.29493 45.5029 7.14814 44.7854 7.07475C44.2542 7.0197 43.7137 7.12979 43.2012 7.15732C41.9338 7.22154 41.0858 7.28576 40.6478 7.34998C39.2966 7.53346 37.992 7.79951 36.7433 8.15731C35.8953 8.39584 34.9168 8.77198 33.7985 9.28573C31.9627 10.1298 30.481 11.3499 29.3441 12.9462C27.6015 15.3958 26.5205 18.3498 25.9521 21.3315C25.8496 21.8819 25.7657 22.4874 25.7005 23.148C25.6166 24.0287 25.5141 24.9369 25.4116 25.8727C25.2532 27.2213 25.2252 28.6892 25.3277 29.9644C25.393 30.7901 25.4302 31.4965 25.4396 32.1112C25.4862 34.5331 25.4675 36.4873 25.393 37.9826C25.365 38.5056 25.3371 39.0652 25.2998 39.6615C25.2066 41.3955 24.9177 43.2395 24.4797 44.8174C24.312 45.4321 24.0045 46.0926 23.641 46.6156C23.0819 47.4137 22.5041 48.0834 21.9077 48.6339C20.5006 49.9366 19.1867 51.1568 17.9659 52.2944C17.2204 52.9916 16.5308 53.7715 15.8971 54.6522C15.0025 55.8907 14.1079 57.3769 13.232 59.1292C12.3839 60.8172 11.7503 62.386 11.247 64.1016C11.0793 64.6704 10.9116 65.2117 10.7438 65.7346C10.6879 65.8998 10.6879 66.0832 10.6693 66.2484C10.66 66.3034 10.6507 66.3034 10.6134 66.2667C8.02275 62.7071 6.02853 58.8448 4.64003 54.6889C3.99704 52.7715 3.42858 50.6155 3.08379 48.5146C2.80422 46.7807 2.60853 45.0376 2.51534 43.2853C2.47807 42.689 2.46875 42.1202 2.46875 41.5881C2.47807 39.9918 2.57126 38.3955 2.72968 36.8083C2.90674 35.3038 3.18629 33.8543 3.51245 32.3772Z" fill="white"/>
<path d="M54.5771 15.6363C54.5407 15.5818 54.5134 15.5272 54.5043 15.4727C54.4952 15.4181 54.5134 15.3727 54.568 15.3454C55.3225 15.6636 56.0225 16.0272 56.6771 16.4454C56.768 16.5 56.7861 16.4909 56.7316 16.3909C56.5589 16.1 56.3407 15.8272 56.0862 15.5636C55.7043 15.1818 55.3225 14.8454 54.9498 14.5636C54.3407 14.1 53.5861 13.7545 52.8771 13.4909C52.2952 13.2727 51.6225 13.1545 50.8589 13.1363C50.8498 13.1363 50.8498 13.1363 50.8407 13.1272C50.8316 13.1181 50.8316 13.109 50.8316 13.1C50.8407 13.0818 50.8498 13.0636 50.8771 13.0636C51.1771 13 51.4861 12.9636 51.8043 12.9636C51.9498 12.9636 51.9498 12.9363 51.8134 12.8818C51.468 12.7545 51.1134 12.7363 50.7407 12.809C50.4952 12.8545 50.4771 12.8181 50.6952 12.6909C50.8134 12.6181 50.9589 12.5818 51.1225 12.5636C51.1498 12.5636 51.168 12.5272 51.1498 12.5C51.1407 12.4909 51.1316 12.4818 51.1134 12.4727C50.5043 12.3818 50.0225 12.5818 49.668 13.0818C49.5589 13.2363 49.5043 13.4181 49.5043 13.6272C49.5043 13.8363 49.5407 14.0363 49.6316 14.2363C49.2952 14.509 49.0498 14.7727 48.9043 15.009C48.6952 15.3363 48.4225 15.8545 48.0862 16.5545C47.8589 17.0272 47.6498 17.6272 47.468 18.3545C47.3407 18.8454 47.2134 19.3181 47.1043 19.8C47.1043 19.809 47.1043 19.8272 47.1134 19.8363C47.1225 19.8545 47.1407 19.8636 47.168 19.8454C47.1861 19.8363 47.2043 19.8181 47.2134 19.809C47.268 19.7363 47.3043 19.6909 47.3134 19.6636C47.4407 19.3545 47.5771 19.0727 47.7225 18.809C47.868 18.5545 47.9043 18.5727 47.8407 18.8545C47.6862 19.5545 47.5134 20.2181 47.5225 20.9181C47.5407 22.2 47.5498 23.4909 47.5498 24.8C47.5498 25.1363 47.6043 25.4636 47.6316 25.7909C47.6407 25.9 47.7134 25.9636 47.8589 25.9727C47.9862 25.9818 48.068 25.9818 48.1043 25.9545C48.4407 26.1 48.7862 26.1636 49.1316 26.1454C49.1498 26.1454 49.1589 26.1545 49.1589 26.1727C49.1498 26.7818 49.3952 27.209 49.7861 27.6363C49.8861 27.7454 49.868 27.7727 49.7225 27.7272C49.1771 27.5272 48.5862 27.4 47.9498 27.3545C47.3316 27.309 46.8043 27.4727 46.3498 27.8363C45.9589 28.1545 45.6407 28.4727 45.4043 28.7818C45.0316 29.2727 44.6498 29.7363 44.2589 30.1727C43.3316 31.2272 41.6952 31.7636 40.3407 31.8181C39.1589 31.8636 38.0043 31.7636 36.868 31.509C36.6861 31.4636 36.3952 31.4272 36.0043 31.3909C35.768 31.3727 35.5498 31.4 35.3407 31.4727C34.7225 31.7 34.0861 32.7454 34.3043 33.4C34.3771 33.6272 34.4407 33.8636 34.4861 34.1363C34.5771 34.6454 34.8134 34.9818 35.1771 35.3272C35.6589 35.7818 36.168 36.1545 36.7043 36.4454C36.8134 36.5 36.868 36.609 36.8771 36.7727C36.8861 37.0545 36.8862 37.3181 36.8589 37.5545C36.7498 38.7454 36.4498 39.8636 35.968 40.909C35.5498 41.8181 35.068 42.7454 34.5316 43.709C33.3589 45.8 32.1134 47.9272 30.8134 50.0818C30.2043 51.0818 29.6043 52.1454 29.0225 53.2545C28.7134 53.8363 28.4498 54.3818 28.2316 54.8909C27.6861 56.1818 27.2589 57.5 26.968 58.8454C26.8043 59.6091 26.7134 60.4181 26.6134 61.2181C26.5043 62.0363 26.468 62.8909 26.4316 63.7363C26.4043 64.0818 26.2771 64.4363 26.0316 64.7818C25.3225 65.7909 24.4589 66.5 23.4316 66.909C23.1498 67.0181 22.877 67.1363 22.5952 67.2363C22.5043 67.2727 22.4043 67.2909 22.2952 67.2909C22.2316 67.2909 22.2316 67.2818 22.2861 67.2636C22.468 67.2 22.6498 67.1181 22.8225 67.0181C23.0952 66.8545 23.368 66.6727 23.6316 66.4727C23.6498 66.4636 23.6498 66.4363 23.6407 66.4181L23.6225 66.4C23.6134 66.3909 23.5952 66.3818 23.5771 66.3909C23.0316 66.6636 22.5952 66.8272 22.268 66.8909C21.7316 66.9909 21.0952 67.0363 20.368 67.0181C20.3589 67.0181 20.3589 67.0181 20.3589 67.0091C20.3589 67 20.3589 66.9909 20.3589 66.9818C20.7498 66.9363 21.0952 66.8091 21.4043 66.6C21.4861 66.5454 21.8316 66.4363 21.8589 66.4C21.868 66.3909 21.868 66.3818 21.868 66.3727C21.868 66.3454 21.8498 66.3272 21.8134 66.3363C20.9771 66.4727 20.168 66.4 19.4043 66.1181C18.8771 65.9272 18.377 65.709 17.9134 65.4727C17.7134 65.3727 17.5407 65.2454 17.3952 65.0909C16.7225 64.3909 16.2316 63.6545 15.9134 62.8909C15.7134 62.4181 15.5407 61.8272 15.3771 61.1181C15.168 60.1818 15.3134 59.1545 15.5498 58.2545C15.6134 58.0091 15.6498 57.6 15.6589 57.0181C16.5225 55.409 17.5407 54.0454 18.7134 52.9363C19.6407 52.0545 20.5316 51.2 21.5043 50.309C22.4861 49.409 23.3862 48.5363 24.1771 47.4727C24.8316 46.5909 25.2316 45.6727 25.4861 44.5818C25.8407 43.0181 26.0589 41.4818 26.1498 39.9545C26.2861 37.6545 26.3407 35.4181 26.3134 33.2272C26.3043 32.5272 26.268 31.7818 26.2134 30.9818C26.1861 30.6454 26.168 30.2909 26.1498 29.9363C26.0861 28.6636 26.1316 27.3727 26.2861 26.0727C26.4225 24.8818 26.5134 23.4727 26.6771 22.4181C27.1134 19.6363 28.0316 16.9545 29.4952 14.5C30.7043 12.4818 32.4225 11 34.6589 10.0636C35.6316 9.6545 36.4225 9.36359 37.0407 9.19086C38.5316 8.76359 40.0043 8.49086 41.4771 8.34541C42.5498 8.24541 43.6589 8.19086 44.7861 8.19996C45.2952 8.19996 45.8498 8.23632 46.4316 8.29086C47.0043 8.34541 47.5498 8.41814 48.0498 8.49995C48.468 8.57268 48.9316 8.71814 49.4225 8.93632C50.468 9.39086 51.3861 9.96359 52.1952 10.6636C52.7498 11.1363 53.377 11.7272 54.0952 12.4272C55.2498 13.5636 56.2043 14.8545 57.1407 16.2C57.5316 16.7636 57.8225 17.2818 58.0316 17.7636C58.3043 18.4 58.5316 19.1181 58.7043 19.9272C58.9589 21.109 59.1498 22.1545 59.2589 23.0636C59.3225 23.609 59.3589 24.3272 59.3589 25.2181C59.368 26.4 59.3316 27.6 59.2498 28.8181C59.2043 29.5 59.177 30.109 59.1407 30.6363C59.077 31.8636 59.0043 33.0545 58.9316 34.2181C58.9316 34.2454 58.8952 34.2727 58.868 34.2545C58.8407 34.2454 58.8225 34.2272 58.8043 34.209C57.4043 32.6818 55.8134 31.2818 54.0316 30.0181C53.8589 29.9 53.5952 29.7545 53.3952 29.6C53.3589 29.5636 53.3589 29.5454 53.4134 29.5454C53.4589 29.5454 53.5043 29.5545 53.5407 29.5727C53.5589 29.5818 53.5861 29.5909 53.6043 29.5909C53.9861 29.6181 54.368 29.5727 54.7498 29.4636C55.8862 29.1272 56.7407 28.4727 57.3043 27.5C57.5225 27.1272 57.6225 26.7454 57.6225 26.3636C57.6225 26.3 57.6952 26.2636 57.7407 26.3L57.8134 26.3545C57.8862 26.409 57.9862 26.3727 58.0225 26.2909C58.1407 25.9636 58.1134 25.5727 57.868 25.3181C57.768 25.2181 57.7134 25.1 57.7225 24.9636C57.768 24.3727 57.7952 23.8363 57.7952 23.3545C57.7952 22.4727 57.668 21.5454 57.5498 20.6545C57.3861 19.4636 56.9407 18.2636 56.2316 17.0545C56.2225 17.0363 56.2316 17.009 56.2589 17.009C56.2771 17.009 56.2952 17.0181 56.3134 17.0272C56.6952 17.3545 57.0498 17.6909 57.3589 18.0454C57.4043 18.1 57.4134 18.0909 57.3862 18.0272C56.8771 16.8363 55.8407 16.1272 54.5771 15.6363ZM36.0771 14.9363C35.7952 15.0909 35.5498 15.2818 35.3407 15.5181C35.2862 15.5818 35.0861 15.8181 34.7407 16.2363C34.3771 16.6818 34.0771 17.1636 33.8589 17.6909C33.5498 18.0818 33.3498 18.5181 33.268 19C33.1861 19.4545 33.1043 19.9727 33.0225 20.5454C32.9952 20.7454 32.9771 20.9363 32.968 21.1363C32.9589 21.3545 32.9134 21.5636 32.8134 21.7818C32.7952 21.8272 32.7862 21.9181 32.7952 21.9636C32.8134 22.0454 32.8407 22.0454 32.868 21.9727C33.0407 21.5545 33.1498 21.1909 33.1952 20.8636C33.3225 20.9 33.3771 21.0181 33.3498 21.2363C33.1407 22.709 33.1134 24.1 33.268 25.4181C33.2771 25.5363 33.3225 25.6909 33.3771 25.8909C33.268 25.909 33.1952 25.9181 33.168 25.9272C33.0589 25.9727 33.0589 25.9909 33.1771 25.9909C33.6316 26.009 34.0861 26.0181 34.5498 26.0181C34.5861 26.0181 34.6225 26.0454 34.6316 26.0818C34.8771 26.7454 35.2407 27.3363 35.7316 27.8363C37.2225 29.3818 39.1134 29.8818 41.2589 29.509C42.6043 29.2727 43.6771 28.6636 44.468 27.6727C44.7407 27.3363 44.9771 26.8909 45.1952 26.3454C45.2134 26.3 45.2407 26.2818 45.2952 26.2909C45.7407 26.3727 45.9316 25.9727 45.9498 25.6C45.9771 25.1363 46.0043 24.7454 45.4043 24.6818C45.3589 24.6818 45.3225 24.6363 45.3316 24.5909C45.4771 23.5363 45.4407 22.4818 45.2316 21.4363C45.277 21.3272 45.377 21.2818 45.5498 21.309C45.5952 20.7727 45.5498 20.1818 45.4043 19.5272C45.2134 18.6545 45.0498 18 44.9043 17.5545C44.9043 17.4272 44.9043 17.309 44.9043 17.1909C44.9043 17.0636 44.8952 16.9454 44.868 16.8272C44.7225 16.2363 44.5225 15.6272 44.2861 15.009L44.5407 15.1181C44.5771 15.1363 44.6225 15.109 44.6225 15.0636C44.6771 14.2454 44.5861 13.5545 44.0771 12.8727C44.0589 12.8454 44.0316 12.8181 44.0043 12.7909C43.9043 12.709 43.8771 12.7272 43.9225 12.8454C43.968 12.9636 44.0134 13.0909 44.0498 13.2272C44.1043 13.4 44.068 13.4181 43.9589 13.2727C43.668 12.9 43.3043 12.6363 42.868 12.4727C42.8498 12.4636 42.8316 12.4818 42.8225 12.5C42.8134 12.5363 42.8225 12.5545 42.8498 12.5818C42.9771 12.6909 43.1043 12.8181 43.2225 12.9454C43.3043 13.0363 43.2862 13.0545 43.1771 13.0181C42.7498 12.8545 42.3225 12.6727 41.8589 12.6363C40.6407 12.5363 39.5589 12.709 38.6316 13.1727C37.9952 13.4909 37.3043 13.9363 36.5589 14.5181C36.468 14.5909 36.3771 14.6727 36.2952 14.7545C36.2225 14.8181 36.1498 14.8909 36.0771 14.9363ZM39.2316 31.1454C40.9225 31.3636 42.5407 30.9 43.7498 29.6818C44.3589 29.0636 44.868 28.4 45.268 27.6909C45.3498 27.5454 45.4043 27.3818 45.4589 27.2272C45.4589 27.2181 45.4589 27.209 45.4498 27.209C45.4407 27.209 45.4316 27.209 45.4316 27.2181C45.3316 27.4636 45.1952 27.7 45.0407 27.9181C43.9407 29.4727 42.4407 30.6 40.5316 30.9363C40.168 31 39.7952 31.0454 39.4134 31.0818C39.3498 31.0818 39.2862 31.1 39.2225 31.1272C39.2134 31.1363 39.2134 31.1454 39.2316 31.1454ZM56.1952 29.5545C55.7498 29.7818 55.2134 29.9545 54.568 30.0818C54.5316 30.0909 54.5225 30.109 54.5498 30.1363C54.568 30.1545 54.5952 30.1727 54.6225 30.1727C56.068 30.1909 57.1043 29.4 57.9225 28.2818C57.9316 28.2727 57.9316 28.2636 57.9225 28.2545L57.9043 28.2363H57.8952C57.3771 28.809 56.8043 29.2454 56.1952 29.5545ZM35.0316 30.2363C35.868 30.7181 36.8861 31.0272 37.868 30.9181C37.8861 30.9181 37.8862 30.909 37.8862 30.8909V30.8636C37.8862 30.8636 37.8861 30.8545 37.8771 30.8545C37.6134 30.8545 37.368 30.8272 37.1407 30.7636C36.6134 30.609 36.0861 30.4181 35.5589 30.1909C34.6861 29.809 34.0407 29.2636 33.5225 28.5181C33.5134 28.509 33.5043 28.509 33.4952 28.509C33.4862 28.509 33.4862 28.5181 33.4952 28.5272C33.8316 29.2636 34.3407 29.8363 35.0316 30.2363ZM55.3316 30.4818C55.8952 30.3909 56.5134 30.2181 56.9225 29.8C56.9407 29.7818 56.9407 29.7636 56.9316 29.7454C56.9316 29.7363 56.9225 29.7272 56.9134 29.7272C56.8952 29.7272 56.8861 29.7272 56.868 29.7363C56.3952 30.0272 55.8771 30.2545 55.3134 30.4363C55.3134 30.4363 55.3043 30.4363 55.3134 30.4454L55.3225 30.4727C55.3134 30.4727 55.3134 30.4818 55.3316 30.4818Z" fill="#464B51"/>
<path d="M54.5682 15.3454C53.841 15.0454 53.0864 14.7909 52.3228 14.5818C52.0682 14.509 51.8409 14.4727 51.6319 14.4727C51.2682 14.4727 50.9409 14.4727 50.6319 14.4636C50.4228 14.4636 50.2137 14.5 50.0137 14.5727C49.9864 14.5818 49.9591 14.5818 49.9319 14.5636C49.8137 14.4818 49.7137 14.3727 49.6409 14.2454C49.5591 14.0545 49.5137 13.8454 49.5137 13.6363C49.5137 13.4272 49.5682 13.2363 49.6773 13.0909C50.0319 12.6 50.5137 12.4 51.1228 12.4818C51.1409 12.4818 51.15 12.4909 51.1591 12.509C51.1773 12.5363 51.1591 12.5636 51.1319 12.5727C50.9682 12.5818 50.8319 12.6272 50.7046 12.7C50.4864 12.8272 50.4955 12.8636 50.75 12.8181C51.1228 12.7454 51.4773 12.7727 51.8228 12.8909C51.9591 12.9363 51.95 12.9636 51.8137 12.9727C51.4955 12.9818 51.1864 13.0181 50.8864 13.0727C50.8682 13.0818 50.85 13.0909 50.841 13.1091C50.841 13.1181 50.8409 13.1272 50.85 13.1363C50.8591 13.1454 50.8591 13.1454 50.8682 13.1454C51.6318 13.1636 52.3046 13.2818 52.8864 13.5C53.5955 13.7636 54.35 14.109 54.9591 14.5727C55.3318 14.8545 55.7046 15.1909 56.0955 15.5727C56.35 15.8272 56.5682 16.1 56.7409 16.4C56.7955 16.4909 56.7773 16.5091 56.6864 16.4545C56.0318 16.0272 55.3228 15.6636 54.5682 15.3454Z" fill="black"/>
<path d="M44.2766 14.9908C43.5857 14.7363 43.013 14.5817 42.5676 14.5181C41.9312 14.4272 41.0767 14.409 39.9948 14.4636C39.3948 14.4908 38.8312 14.5726 38.3221 14.6999C37.7766 14.8363 37.2312 15.009 36.7039 15.1999C36.4312 15.2999 36.1948 15.4181 35.9948 15.5545C35.9585 15.5726 35.913 15.5636 35.9039 15.5181C35.8767 15.409 35.9039 15.2999 35.9767 15.1908C36.0312 15.109 36.0676 15.0181 36.0766 14.9272C36.1494 14.8726 36.2221 14.809 36.2948 14.7363C36.3767 14.6545 36.4676 14.5726 36.5585 14.4999C37.3039 13.9181 37.9948 13.4726 38.6312 13.1545C39.5585 12.6908 40.6403 12.5181 41.8585 12.6181C42.3221 12.6545 42.7585 12.8363 43.1767 12.9999C43.2857 13.0454 43.3039 13.0181 43.2221 12.9272C43.1039 12.7999 42.9766 12.6726 42.8494 12.5636C42.8221 12.5454 42.813 12.5181 42.8221 12.4817C42.8221 12.4636 42.8403 12.4545 42.8676 12.4545C43.3039 12.609 43.6766 12.8726 43.9585 13.2545C44.0676 13.3999 44.1039 13.3817 44.0494 13.209C44.013 13.0726 43.9676 12.9454 43.9221 12.8272C43.8767 12.709 43.9039 12.6817 44.0039 12.7726C44.0312 12.7908 44.0585 12.8181 44.0766 12.8545C44.5857 13.5363 44.6766 14.2272 44.6221 15.0454C44.6221 15.0908 44.5767 15.1181 44.5403 15.0999L44.2766 14.9908Z" fill="black"/>
<path d="M49.6416 14.2363C49.7234 14.3636 49.8234 14.4727 49.9325 14.5545C49.9598 14.5727 49.9871 14.5727 50.0143 14.5636C50.2143 14.4909 50.4234 14.4545 50.6325 14.4545C50.9325 14.4545 51.2689 14.4636 51.6325 14.4636C51.8416 14.4636 52.0689 14.5 52.3234 14.5727C53.0871 14.7818 53.8416 15.0454 54.5689 15.3363C54.5143 15.3636 54.4961 15.4091 54.5052 15.4636C54.5143 15.5181 54.5416 15.5727 54.578 15.6272C54.1962 15.6454 53.8052 15.5363 53.4689 15.5545C53.0962 15.5636 52.7143 15.6091 52.3234 15.6727C51.2598 15.8545 50.4143 16.3909 49.8052 17.2909C49.4234 17.8545 49.178 18.5545 48.9325 19.2091C48.7871 19.5818 48.7234 19.9818 48.6962 20.3818C48.6052 21.5545 48.5325 22.7272 48.4871 23.8909C48.478 24.0727 48.4871 24.2454 48.5143 24.4181C48.5143 24.4545 48.5143 24.4818 48.4871 24.5C48.3234 24.6909 48.1871 24.8 48.1143 25.0545C48.0416 25.3181 48.0507 25.6272 48.1416 25.9727C48.1052 26 48.0325 26.0091 47.8962 25.9909C47.7507 25.9727 47.678 25.9181 47.6689 25.8091C47.6416 25.4818 47.5871 25.1545 47.5871 24.8181C47.578 23.5091 47.578 22.2181 47.5598 20.9363C47.5507 20.2272 47.7234 19.5727 47.878 18.8727C47.9416 18.5909 47.8962 18.5727 47.7598 18.8272C47.6143 19.0818 47.478 19.3636 47.3507 19.6818C47.3416 19.7091 47.3053 19.7545 47.2507 19.8272C47.2416 19.8454 47.2234 19.8545 47.2053 19.8636C47.178 19.8818 47.1598 19.8727 47.1507 19.8545C47.1416 19.8454 47.1416 19.8272 47.1416 19.8181C47.2507 19.3363 47.378 18.8636 47.5052 18.3727C47.6871 17.6454 47.8871 17.0454 48.1234 16.5727C48.4598 15.8727 48.7325 15.3636 48.9416 15.0272C49.0598 14.7727 49.3052 14.5181 49.6416 14.2363ZM48.5871 19.6181C48.8143 17.9818 49.1871 16.4 49.8507 14.9091C49.8507 14.9 49.8507 14.8909 49.8416 14.8909L49.8234 14.8818C49.8052 14.8727 49.7871 14.8727 49.778 14.8909C49.5143 15.3091 49.3052 15.7636 49.1507 16.2636C48.8871 17.1 48.6962 17.9091 48.5871 18.6909C48.5507 18.9636 48.5325 19.2636 48.5507 19.5909C48.5507 19.6 48.5598 19.6091 48.5598 19.6181C48.5598 19.6181 48.5598 19.6272 48.5689 19.6272C48.578 19.6454 48.578 19.6454 48.5871 19.6181ZM48.3234 19.3181C48.3871 19.0727 48.3598 18.8 48.4053 18.5363C48.4689 18.1545 48.5325 17.7545 48.5961 17.3545C48.6052 17.3181 48.5871 17.3091 48.5598 17.3272C48.5416 17.3363 48.5416 17.3454 48.5325 17.3636C48.5234 17.5091 48.5053 17.6636 48.478 17.8181C48.4325 18.0545 48.3962 18.2 48.3962 18.2636C48.3689 18.5272 48.3416 18.7909 48.3325 19.0636C48.3234 19.2272 48.2507 19.3454 48.2871 19.5091C48.2871 19.5181 48.2871 19.5181 48.2962 19.5181C48.2962 19.5181 48.3052 19.5181 48.3052 19.5091C48.2962 19.4363 48.3052 19.3727 48.3234 19.3181Z" fill="#302E31"/>
<path d="M44.2778 14.9909C44.5232 15.6091 44.7141 16.2182 44.8596 16.8091C44.8869 16.9273 44.905 17.0454 44.8959 17.1727C44.8959 17.2909 44.8959 17.4182 44.8959 17.5363C44.705 17.0182 44.5141 16.5 44.3141 15.9909C44.2505 15.8363 44.1869 15.6909 44.1232 15.5545C44.0414 15.4 44.0414 15.4091 44.0959 15.5636C44.4869 16.6545 44.8051 17.9182 45.1141 19.1091C45.196 19.4273 45.2778 19.7909 45.3505 20.2C45.4141 20.5545 45.4778 20.9272 45.5414 21.3C45.3778 21.2727 45.2687 21.3182 45.2232 21.4272C44.905 20.3363 44.4414 19.3091 43.8323 18.3545C43.405 17.6818 42.9232 17.1363 42.3959 16.7273C41.9505 16.3818 41.4232 16.1363 40.796 15.9727C40.1687 15.8091 39.6232 15.7727 39.1596 15.8545C38.6414 15.9454 38.1141 16.1545 37.5869 16.4727C35.6323 17.6454 34.5141 19.3818 34.2232 21.6727C34.1505 22.2363 34.1778 22.8273 34.2051 23.4C34.2051 23.4 34.205 23.4091 34.2141 23.4091C34.2232 23.4091 34.2232 23.4091 34.2232 23.4091C34.2687 23.1273 34.2869 22.8363 34.296 22.5454C34.3051 22.2454 34.3687 21.9454 34.4141 21.6545C34.5687 20.7909 34.9596 19.9091 35.405 19.1727C36.105 18.0091 37.0596 17.1363 38.2778 16.5636C38.7778 16.3273 39.2687 16.2 39.7505 16.1818C39.8414 16.1818 40.0505 16.2091 40.3687 16.2727C39.5959 16.6182 39.2687 17.2636 39.0778 18.0454C38.9414 18.6 38.8232 19.1182 38.7323 19.5818C38.5596 20.4272 38.5778 21.2727 38.7778 22.1182C38.9414 22.8 39.3505 23.4273 40.0141 24C39.4778 24.0636 38.9869 24.1818 38.5232 24.3363C38.496 24.3454 38.4778 24.3545 38.4778 24.3545C38.4323 24.3909 38.4323 24.4 38.4869 24.3909C39.0687 24.3 39.605 24.2 40.105 24.1C40.2232 24.2273 40.4323 24.3273 40.7323 24.4091C40.4869 24.4545 40.2505 24.4818 40.0141 24.4909C39.2414 24.5273 38.4778 24.6363 37.7051 24.7091C37.696 24.7091 37.6869 24.7182 37.6869 24.7273C37.6869 24.7363 37.696 24.7454 37.7051 24.7454C38.8051 24.7363 39.905 24.7 41.005 24.6545C41.5141 24.6272 41.8505 24.6273 41.996 24.6363C41.9687 24.6454 41.9414 24.6545 41.905 24.6545C41.8687 24.6545 41.8414 24.6818 41.8323 24.7182C41.8232 24.7636 41.8414 24.8 41.8687 24.8454C41.8959 24.8818 41.9414 24.9 41.9778 24.8909C42.2596 24.8636 42.505 24.8727 42.7141 24.9182C42.9141 24.9545 42.9051 24.9818 42.7051 24.9909C42.5414 25 42.3687 25 42.2051 24.9909C42.1414 24.9909 42.0869 25 42.0323 25.0363C42.0232 25.0363 42.0232 25.0454 42.0141 25.0454L41.5869 25.1727C41.5414 25.1818 41.5414 25.2454 41.5778 25.2636C41.7141 25.3182 41.8596 25.3636 42.0141 25.4C42.2596 25.4545 42.4596 25.5727 42.605 25.7636C40.6778 25.5909 38.6778 25.5272 36.6232 25.5636C35.4778 25.5818 34.3778 25.7 33.3414 25.9C33.2778 25.7 33.2414 25.5454 33.2323 25.4272C33.0778 24.1091 33.105 22.7182 33.3141 21.2454C33.3414 21.0272 33.296 20.9091 33.1596 20.8727C33.2414 20.0545 33.3596 19.2182 33.605 18.4273C33.6778 18.1909 33.7505 17.9545 33.8232 17.7091C34.0414 17.1818 34.3414 16.7 34.7051 16.2545C35.0505 15.8363 35.2414 15.6 35.305 15.5363C35.5232 15.3 35.7687 15.1091 36.0414 14.9545C36.0323 15.0454 36.005 15.1363 35.9414 15.2182C35.8687 15.3273 35.8505 15.4363 35.8687 15.5454C35.8778 15.5818 35.9232 15.6 35.9596 15.5818C36.1596 15.4454 36.3959 15.3273 36.6687 15.2273C37.1959 15.0273 37.7323 14.8636 38.2869 14.7273C38.805 14.6 39.3596 14.5182 39.9596 14.4909C41.0323 14.4363 41.8869 14.4545 42.5323 14.5454C43.0141 14.5818 43.5869 14.7454 44.2778 14.9909ZM33.7141 19.7818C33.9505 18.8273 34.2687 17.9 34.6414 17C34.7505 16.7454 34.905 16.4636 35.0959 16.1545C35.1414 16.0818 35.1596 16 35.1505 15.9182C35.1414 15.8454 35.1232 15.8454 35.0959 15.9091C35.0232 16.0727 34.9778 16.2182 34.8596 16.3636C34.7778 16.4636 34.6959 16.5909 34.6232 16.7363C34.2141 17.5454 33.9141 18.3727 33.7323 19.2C33.6323 19.6636 33.5414 20.1182 33.4505 20.5909C33.4505 20.6091 33.4505 20.6182 33.4687 20.6182L33.4869 20.6273H33.496C33.5687 20.3545 33.6323 20.0727 33.7141 19.7818Z" fill="#302E31"/>
<path d="M49.8501 14.9091C49.1865 16.4 48.8228 17.9818 48.5865 19.6182C48.5774 19.6455 48.5774 19.6546 48.5592 19.6273C48.5592 19.6273 48.5592 19.6182 48.5501 19.6182C48.541 19.6091 48.541 19.6 48.541 19.5909C48.5228 19.2636 48.5319 18.9636 48.5774 18.6909C48.6955 17.9091 48.8774 17.1 49.141 16.2636C49.2955 15.7727 49.5046 15.3182 49.7683 14.8909C49.7774 14.8727 49.7956 14.8727 49.8137 14.8818L49.8319 14.8909C49.8501 14.8909 49.8501 14.9 49.8501 14.9091Z" fill="black"/>
<path d="M44.9044 17.5454C45.0499 17.9909 45.2135 18.6545 45.4044 19.5181C45.5499 20.1636 45.5953 20.7636 45.5498 21.2999C45.4862 20.9272 45.4226 20.5636 45.3589 20.1999C45.2862 19.7999 45.2135 19.4363 45.1226 19.109C44.8044 17.9181 44.4953 16.6636 44.1044 15.5636C44.0499 15.3999 44.0589 15.3999 44.1317 15.5545C44.2044 15.6909 44.268 15.8363 44.3226 15.9909C44.5226 16.509 44.7135 17.0181 44.9044 17.5454Z" fill="black"/>
<path d="M45.2318 21.4272C45.4409 22.4726 45.4773 23.5272 45.3318 24.5817C45.3228 24.6272 45.3591 24.6726 45.4046 24.6726C46.0046 24.7362 45.9682 25.1272 45.95 25.5908C45.9318 25.9635 45.7409 26.3726 45.2955 26.2817C45.25 26.2726 45.2137 26.2908 45.1955 26.3362C44.9864 26.8817 44.7409 27.3272 44.4682 27.6635C43.6682 28.6544 42.5955 29.2635 41.2591 29.4999C39.1137 29.8726 37.2227 29.3726 35.7318 27.8272C35.2409 27.3181 34.8773 26.7362 34.6318 26.0726C34.6228 26.0362 34.5864 26.009 34.55 26.009C34.0864 26.009 33.6318 25.9999 33.1773 25.9817C33.0591 25.9817 33.05 25.9544 33.1682 25.9181C33.1955 25.909 33.2591 25.8999 33.3773 25.8817C34.4137 25.6817 35.5046 25.5726 36.6591 25.5453C38.7137 25.509 40.7046 25.5726 42.6409 25.7453L45.4591 25.9544C45.4864 25.9544 45.5227 25.9362 45.5318 25.909C45.6227 25.6726 45.65 25.4272 45.6137 25.1544C45.6046 25.1181 45.5864 25.0908 45.5591 25.0726L45.2864 24.8999C45.2228 24.8635 45.1864 24.7908 45.1864 24.7181C45.1955 23.9999 45.1864 23.3272 45.15 22.709C45.05 20.8817 44.1409 19.0999 42.95 17.709C42.2409 16.8817 41.3773 16.3999 40.3682 16.2635C40.05 16.1999 39.85 16.1726 39.75 16.1726C39.2682 16.1908 38.7773 16.3181 38.2773 16.5544C37.0591 17.1362 36.1046 18.009 35.4046 19.1635C34.9591 19.8999 34.5682 20.7817 34.4137 21.6453C34.3591 21.9362 34.2955 22.2362 34.2955 22.5362C34.2864 22.8272 34.2682 23.1181 34.2228 23.3999C34.2228 23.3999 34.2227 23.3999 34.2137 23.3999C34.2046 23.3999 34.2046 23.3999 34.2046 23.3908C34.1773 22.8181 34.15 22.2272 34.2228 21.6635C34.5137 19.3726 35.6318 17.6362 37.5864 16.4635C38.1137 16.1453 38.6409 15.9362 39.1591 15.8453C39.6228 15.7635 40.1682 15.7999 40.7955 15.9635C41.4137 16.1272 41.95 16.3817 42.3955 16.7181C42.9318 17.1272 43.4046 17.6726 43.8318 18.3453C44.45 19.309 44.9137 20.3362 45.2318 21.4272ZM35.8773 27.4362C36.6864 28.6544 38.2046 29.3181 39.6318 29.3726C40.6318 29.409 41.5318 29.2817 42.3318 28.9817C43.0137 28.7272 43.5955 28.3453 44.0955 27.8362C44.55 27.4181 44.8773 26.9181 45.0773 26.3362C45.0864 26.3181 45.0682 26.2999 45.05 26.2999C44.5864 26.2999 44.1137 26.1726 43.65 26.1272C43.3046 26.0908 42.9409 26.0635 42.5773 26.0544C42.5591 26.0544 42.55 26.0635 42.55 26.0817C42.4591 26.5362 42.25 26.9908 41.9409 27.4272C41.3591 28.1272 40.6228 28.5181 39.7409 28.5999C38.7682 28.6908 37.9046 28.3817 37.1682 27.6726C37.0227 27.5362 36.8955 27.3999 36.7864 27.2726C36.5228 26.8817 36.3409 26.4635 36.25 26.0272C36.2409 25.9817 36.2137 25.9635 36.1773 25.9726L35.1318 26.009C35.0864 26.009 35.0773 26.0272 35.0864 26.0726C35.2773 26.5544 35.55 27.0181 35.8773 27.4362ZM40.5228 27.2181C40.7773 27.3908 41.1318 27.309 41.3137 27.0453C41.4955 26.7817 41.4318 26.4181 41.1773 26.2453C40.9228 26.0726 40.5682 26.1544 40.3864 26.4181C40.2046 26.6817 40.2682 27.0453 40.5228 27.2181ZM40.0046 26.6817C40.0046 26.5544 39.9046 26.4453 39.7682 26.4453C39.6409 26.4453 39.5318 26.5453 39.5318 26.6817C39.5318 26.8181 39.6318 26.9181 39.7682 26.9181C39.8955 26.9181 40.0046 26.8181 40.0046 26.6817Z" fill="black"/>
<path d="M33.7138 19.7818C33.6411 20.0727 33.5684 20.3545 33.4956 20.6273C33.4956 20.6273 33.4956 20.6363 33.4866 20.6273L33.4684 20.6182C33.4502 20.6182 33.4502 20.6091 33.4502 20.5909C33.5411 20.1182 33.632 19.6545 33.732 19.2C33.9138 18.3727 34.2138 17.5454 34.6229 16.7363C34.6956 16.5909 34.7775 16.4727 34.8593 16.3636C34.9684 16.2273 35.0229 16.0727 35.0956 15.9091C35.1229 15.8454 35.1411 15.8454 35.1502 15.9182C35.1593 16 35.1411 16.0818 35.0956 16.1545C34.9047 16.4636 34.7502 16.7454 34.6411 17C34.2593 17.9 33.9502 18.8273 33.7138 19.7818Z" fill="black"/>
<path d="M56.9221 19.1546C56.804 19.0819 56.7221 19.0182 56.6767 18.9546C56.3221 18.5 55.8858 17.9091 55.213 18.0273C54.8949 18.0819 54.813 18.4728 54.7767 18.7455C54.7585 18.8546 54.7403 18.8546 54.713 18.7546C54.6676 18.6 54.6221 18.4455 54.5767 18.2819C54.5403 18.1637 54.4858 18.0728 54.404 18C54.3221 17.9273 54.2949 17.9455 54.3039 18.0546L54.4767 19.5C54.4767 19.5182 54.4676 19.5364 54.4403 19.5364C54.413 19.5364 54.3949 19.5273 54.3858 19.5C54.304 19.2728 54.2403 19.0455 54.204 18.8273C54.1585 18.5637 54.0767 18.3 54.0039 18.0364C53.9312 17.7819 53.7312 17.4546 53.4585 17.3819C53.4221 17.3728 53.3949 17.3819 53.3676 17.4C53.2767 17.4728 53.2221 17.5637 53.1949 17.6728C52.913 18.6182 52.8494 19.5909 52.7858 20.6364C52.7403 21.4819 52.7403 22.3546 52.7312 23.2091C52.7312 23.4091 52.7403 23.6273 52.7494 23.8637C52.7494 23.9 52.7676 23.9182 52.8039 23.9182L52.9312 23.9455L52.2676 23.9546C52.2494 23.9546 52.2312 23.9728 52.2312 23.9909V24.0182C52.2403 24.0637 52.2585 24.0819 52.3039 24.0819L52.8494 24.1C52.8312 24.3455 52.9312 24.4546 53.1676 24.4364C52.9858 24.4546 52.8039 24.4637 52.6221 24.4546C51.8312 24.4091 51.0312 24.4273 50.213 24.4364C50.0312 24.4364 49.8676 24.4546 49.7312 24.4909C49.6312 24.5182 49.6312 24.5364 49.7403 24.5364L53.0767 24.5546C53.213 24.6909 53.313 24.7819 53.3676 24.8091C53.513 24.8909 53.6858 24.9728 53.8949 25.0364C54.0494 25.0909 54.2312 25.1273 54.4585 25.1546C54.8312 25.2091 55.1949 25.2546 55.5585 25.3091C55.6403 25.3182 55.6403 25.3455 55.5676 25.3819C55.5221 25.4091 55.4585 25.4273 55.404 25.4273C54.9767 25.4728 54.5858 25.5364 54.2221 25.6091C54.1858 25.6182 54.1585 25.6364 54.1403 25.6728C54.1039 25.7546 54.0312 25.8 53.9312 25.7909C53.8131 25.7819 53.7312 25.8182 53.6767 25.9C53.6494 25.9455 53.6585 25.9637 53.713 25.9637C53.7676 25.9637 53.7949 25.9819 53.813 26.0091C53.1676 26.0091 52.5221 25.9819 51.8858 25.9182C51.5949 25.8909 51.1312 25.8819 50.4949 25.8909C50.204 25.8909 49.9221 25.8819 49.6585 25.8546C49.2221 25.8091 48.7403 25.8 48.3312 25.6091C48.304 25.6 48.2858 25.5728 48.2767 25.5455C48.1767 25.1819 48.4949 24.8455 48.7494 24.6273C48.804 24.5819 48.8403 24.5273 48.8403 24.4546C48.8767 23.9909 48.9403 23.5455 48.9676 23.0546C49.004 22.3728 49.0494 21.6 49.1131 20.7364C49.1494 20.2455 49.2039 19.8728 49.2767 19.6182C49.3585 19.3182 49.4949 18.9637 49.6585 18.5546C49.9858 17.7546 50.3585 17.1364 51.0403 16.6546C51.7403 16.1546 52.7676 16.0091 53.6221 16.0182C54.2494 16.0273 54.8494 16.1819 55.4221 16.4819C55.6585 16.6091 55.8494 16.7 55.9858 16.9455C56.3949 17.6637 56.7676 18.3909 56.9221 19.1546Z" fill="#302E31"/>
<path d="M40.359 16.2637C41.3681 16.4 42.2317 16.8819 42.9408 17.7091C44.1317 19.1 45.0408 20.8909 45.1408 22.7091C45.1772 23.3273 45.1863 24 45.1772 24.7182C45.1772 24.7909 45.2135 24.8637 45.2772 24.9L45.5499 25.0728C45.5772 25.0909 45.5953 25.1182 45.6044 25.1546C45.6408 25.4182 45.6135 25.6728 45.5226 25.9091C45.5135 25.9364 45.4772 25.9546 45.4499 25.9546L42.6317 25.7455C42.4772 25.5546 42.2772 25.4364 42.0317 25.3819C41.8772 25.3455 41.7317 25.3 41.5953 25.2455C41.559 25.2273 41.559 25.1728 41.6044 25.1546L42.0317 25.0273C42.0408 25.0273 42.0408 25.0273 42.0499 25.0182C42.0953 24.9819 42.159 24.9637 42.2226 24.9728C42.3863 24.9819 42.559 24.9819 42.7226 24.9728C42.9226 24.9637 42.9226 24.9364 42.7317 24.9C42.5226 24.8546 42.2772 24.8455 41.9953 24.8728C41.9499 24.8728 41.9135 24.8546 41.8863 24.8273C41.8499 24.7909 41.8408 24.7455 41.8499 24.7C41.859 24.6637 41.8863 24.6364 41.9226 24.6364C41.959 24.6364 41.9863 24.6273 42.0135 24.6182L43.4135 24.5091C43.5044 24.5 43.5044 24.4909 43.4135 24.4728C43.1953 24.4273 42.9681 24.4 42.7135 24.3909C42.0317 24.3728 41.3772 24.3728 40.7499 24.3909C40.4499 24.3091 40.2408 24.2091 40.1226 24.0819C40.3044 24.0728 40.4499 24.0455 40.559 23.9909C40.5863 23.9819 40.5863 23.9728 40.559 23.9637C40.3681 23.9273 40.1953 23.9364 40.0317 23.9819C39.3772 23.4 38.959 22.7819 38.7954 22.1C38.5954 21.2546 38.5772 20.4091 38.7499 19.5637C38.8499 19.1 38.959 18.5819 39.0953 18.0273C39.259 17.2455 39.5863 16.6091 40.359 16.2637Z" fill="#464B51"/>
<path d="M48.3225 19.3181C48.3043 19.3818 48.2952 19.4454 48.2861 19.509C48.2861 19.509 48.2861 19.5181 48.277 19.5181C48.277 19.5181 48.2679 19.5181 48.2679 19.509C48.2316 19.3454 48.3043 19.2272 48.3134 19.0636C48.3225 18.7908 48.3406 18.5272 48.377 18.2636C48.3861 18.209 48.4134 18.0545 48.4588 17.8181C48.4952 17.6636 48.5134 17.509 48.5134 17.3636C48.5134 17.3454 48.5225 17.3272 48.5407 17.3272C48.577 17.309 48.5861 17.3181 48.577 17.3545C48.5134 17.7545 48.4588 18.1454 48.3861 18.5363C48.3588 18.7999 48.377 19.0636 48.3225 19.3181Z" fill="black"/>
<path d="M56.9233 19.1546C57.0687 19.5091 57.1597 19.8364 57.2233 20.1546C57.3778 21 57.4869 21.9091 57.5415 22.8727C57.5869 23.6273 57.5233 24.3455 57.5142 25.1C57.5142 25.2091 57.5506 25.3727 57.6233 25.4455C57.8142 25.6273 57.9324 25.8546 57.9687 26.1273C57.9778 26.1727 57.9324 26.2091 57.8869 26.2C57.5142 26.1091 57.1233 26.1 56.7415 26.0818C56.4778 26.0727 56.2233 26.0637 55.9687 26.0546C55.2506 26.0455 54.5233 26.0364 53.8051 26.0182C53.7869 25.9818 53.7506 25.9727 53.7051 25.9727C53.6597 25.9727 53.6415 25.9546 53.6687 25.9091C53.7233 25.8273 53.8142 25.7909 53.9233 25.8C54.0233 25.8091 54.0869 25.7727 54.1324 25.6818C54.1506 25.6455 54.1778 25.6273 54.2142 25.6182C54.5778 25.5364 54.9687 25.4727 55.396 25.4364C55.4596 25.4273 55.5142 25.4182 55.5597 25.3909C55.6324 25.3546 55.6324 25.3273 55.5506 25.3182C55.196 25.2637 54.8233 25.2182 54.4506 25.1637C54.2324 25.1364 54.0415 25.0909 53.8869 25.0455C53.6778 24.9727 53.496 24.9 53.3597 24.8182C53.3051 24.7909 53.2142 24.7 53.0688 24.5637C53.6869 24.5637 54.2597 24.5727 54.796 24.5727C54.8233 24.5727 54.8506 24.5637 54.8597 24.5455C54.8778 24.5091 54.8687 24.5 54.8324 24.5L53.1597 24.4455C52.9233 24.4727 52.8142 24.3546 52.8415 24.1091L55.3506 24.1818C55.3506 24.1818 55.3597 24.1818 55.3597 24.1727V24.1546C55.3597 24.1273 55.3506 24.1182 55.3233 24.1091L52.9233 23.9364L52.796 23.9091C52.7688 23.9 52.7506 23.8818 52.7415 23.8546C52.7233 23.6182 52.7142 23.4 52.7233 23.2C52.7324 22.3455 52.7324 21.4727 52.7778 20.6273C52.8324 19.5818 52.9051 18.6182 53.1869 17.6637C53.2142 17.5637 53.2778 17.4727 53.3597 17.3909C53.3869 17.3637 53.4142 17.3637 53.4506 17.3727C53.7324 17.4546 53.9324 17.7727 54.0051 18.0273C54.0778 18.2909 54.1506 18.5546 54.2051 18.8182C54.2415 19.0364 54.3051 19.2637 54.396 19.4909C54.4051 19.5182 54.4233 19.5273 54.4506 19.5273C54.4687 19.5273 54.4869 19.5091 54.4869 19.4909L54.3142 18.0455C54.3051 17.9455 54.3324 17.9273 54.4142 17.9909C54.496 18.0637 54.5506 18.1546 54.5869 18.2727C54.6324 18.4273 54.6778 18.5818 54.7233 18.7455C54.7506 18.8546 54.7778 18.8546 54.7869 18.7364C54.8233 18.4546 54.896 18.0727 55.2233 18.0182C55.896 17.9 56.3324 18.4909 56.6869 18.9455C56.7233 19.0182 56.8051 19.0818 56.9233 19.1546Z" fill="#464B51"/>
<path d="M33.8592 17.6818C33.7865 17.9272 33.7137 18.1727 33.641 18.3999C33.3955 19.1909 33.2774 20.0272 33.1956 20.8454C33.1501 21.1727 33.0501 21.5363 32.8683 21.9545C32.841 22.0272 32.8137 22.0272 32.7956 21.9454C32.7865 21.8999 32.7956 21.809 32.8137 21.7636C32.9046 21.5454 32.9592 21.3363 32.9683 21.1181C32.9774 20.9272 32.9865 20.7272 33.0228 20.5272C33.1047 19.9545 33.1865 19.4454 33.2683 18.9818C33.3501 18.5181 33.5501 18.0818 33.8592 17.6818Z" fill="black"/>
<path d="M52.9315 23.9364L55.3315 24.1091C55.3587 24.1091 55.3678 24.1273 55.3678 24.1546V24.1728C55.3678 24.1728 55.3678 24.1819 55.3587 24.1819L52.8496 24.1091L52.3042 24.0909C52.2587 24.0909 52.2405 24.0637 52.2314 24.0273V24C52.2314 23.9819 52.2405 23.9637 52.2678 23.9637L52.9315 23.9364Z" fill="black"/>
<path d="M40.1053 24.0908C39.6053 24.1908 39.0599 24.2908 38.4871 24.3817C38.4326 24.3908 38.4235 24.3817 38.4781 24.3454C38.4871 24.3454 38.4962 24.3363 38.5235 24.3272C38.9871 24.1635 39.478 24.0545 40.0144 23.9908C40.178 23.9454 40.3599 23.9363 40.5417 23.9726C40.5781 23.9817 40.5781 23.9908 40.5417 23.9999C40.4326 24.0545 40.2871 24.0817 40.1053 24.0908Z" fill="black"/>
<path d="M41.9956 24.6181C41.8502 24.609 41.5138 24.6181 41.0047 24.6363C39.9047 24.6908 38.8047 24.7181 37.7047 24.7272C37.6956 24.7272 37.6865 24.7181 37.6865 24.709C37.6865 24.6999 37.6956 24.6908 37.7047 24.6908C38.4775 24.6272 39.2411 24.5181 40.0138 24.4727C40.2411 24.4636 40.4865 24.4363 40.732 24.3908C41.3593 24.3727 42.0138 24.3727 42.6956 24.3908C42.9502 24.3999 43.1774 24.4272 43.3956 24.4727C43.4774 24.4908 43.4774 24.509 43.3956 24.509L41.9956 24.6181Z" fill="black"/>
<path d="M53.1773 24.4364L54.85 24.491C54.8863 24.491 54.8954 24.5091 54.8773 24.5364C54.8682 24.5546 54.85 24.5637 54.8136 24.5637C54.2773 24.5637 53.6954 24.5546 53.0863 24.5546L49.75 24.5364C49.6409 24.5364 49.6409 24.5182 49.7409 24.491C49.8773 24.4546 50.0409 24.4364 50.2227 24.4364C51.0409 24.4273 51.8318 24.4091 52.6318 24.4546C52.8136 24.4637 52.9954 24.4546 53.1773 24.4364Z" fill="black"/>
<path d="M36.7687 27.2545C36.4868 27.4 36.1868 27.4545 35.8777 27.4273C35.5414 27.0091 35.2777 26.5454 35.0687 26.0454C35.0505 26 35.0686 25.9818 35.105 25.9818L36.1505 25.9454C36.1868 25.9454 36.2141 25.9636 36.2232 26C36.3232 26.4545 36.505 26.8636 36.7687 27.2545Z" fill="#BEBEB6"/>
<path d="M44.0956 27.8364L43.9865 27.5C43.9683 27.4364 43.9047 27.4 43.8319 27.4C43.2047 27.4636 42.5683 27.4637 41.9229 27.4091C42.241 26.9727 42.441 26.5273 42.5319 26.0636C42.5319 26.0455 42.5501 26.0364 42.5592 26.0364C42.9229 26.0455 43.2865 26.0727 43.6319 26.1091C44.1047 26.1636 44.5683 26.2909 45.041 26.2818C45.0592 26.2818 45.0774 26.3 45.0683 26.3182C44.8774 26.9091 44.5501 27.4091 44.0956 27.8364Z" fill="#BEBEB6"/>
<path d="M40.5235 27.2182C40.2689 27.0455 40.2144 26.6909 40.3871 26.4182C40.5689 26.1455 40.9235 26.0727 41.178 26.2455C41.4326 26.4182 41.4871 26.7727 41.3053 27.0455C41.1326 27.3091 40.778 27.3909 40.5235 27.2182Z" fill="white"/>
<path d="M50.8131 27.0637C50.6404 27.1455 50.4495 27.2001 50.2404 27.2274C50.1858 27.2364 50.0677 27.2819 49.8858 27.3819C49.6222 27.0546 49.4404 26.6728 49.3495 26.2637C49.3404 26.2455 49.3677 26.2183 49.3858 26.2183L50.4858 26.3001C50.5131 26.3001 50.5404 26.3183 50.5495 26.3455L50.8131 27.0637Z" fill="#BEBEB6"/>
<path d="M56.8867 27.7818C56.8049 27.6818 56.7776 27.5364 56.8048 27.3545C56.8139 27.3091 56.7958 27.2818 56.7594 27.2636C56.4139 27.1273 56.1048 27.1727 55.7412 27.1182L56.0139 26.4C56.023 26.3636 56.0503 26.3545 56.0867 26.3545L57.4958 26.3091C57.5594 26.3091 57.5776 26.3364 57.5594 26.4C57.3776 26.8545 57.2049 27.4 56.8867 27.7818Z" fill="#BEBEB6"/>
<path d="M40.0049 26.6818C40.0049 26.8091 39.8959 26.9182 39.7686 26.9182C39.6413 26.9182 39.5322 26.8182 39.5322 26.6818C39.5322 26.5454 39.6322 26.4454 39.7686 26.4454C39.8959 26.4545 40.0049 26.5545 40.0049 26.6818Z" fill="white"/>
<path d="M52.7959 27.1273C52.7323 27.4273 52.4232 27.6091 52.105 27.5364C51.7868 27.4636 51.5868 27.1727 51.6505 26.8727C51.7141 26.5727 52.0232 26.3909 52.3414 26.4636C52.6596 26.5273 52.8596 26.8273 52.7959 27.1273Z" fill="white"/>
<path d="M53.2775 27.3818C53.1502 27.3091 53.1048 27.1273 53.1866 26.9909C53.2684 26.8454 53.4412 26.7909 53.5684 26.8636C53.6957 26.9363 53.7412 27.1182 53.6594 27.2545C53.5775 27.4 53.4048 27.4545 53.2775 27.3818Z" fill="white"/>
<path d="M50.8143 27.0636C51.6325 28.4363 53.2597 28.9363 54.6688 28.2C55.1052 27.9727 55.4688 27.6181 55.7416 27.1272C56.1052 27.1818 56.4143 27.1454 56.7597 27.2727C56.7961 27.2909 56.8143 27.3181 56.8052 27.3636C56.7688 27.5454 56.7961 27.6818 56.8779 27.7909C56.4143 28.5272 55.5234 29.0272 54.7052 29.2727C54.2234 29.4181 53.7416 29.3909 53.2597 29.3818C53.1234 29.3818 53.0052 29.3545 52.887 29.2818C52.2052 28.8545 51.487 28.4727 50.7416 28.1454C50.3597 27.9818 50.1143 27.7091 49.8779 27.3727C50.0597 27.2818 50.1779 27.2272 50.2325 27.2181C50.4506 27.2 50.6416 27.1454 50.8143 27.0636Z" fill="white"/>
<path d="M39.2314 31.1455C39.2132 31.1455 39.2132 31.1364 39.2314 31.1273C39.295 31.1 39.3587 31.0818 39.4223 31.0818C39.8041 31.0546 40.1769 31 40.5405 30.9364C42.4496 30.6 43.9405 29.4727 45.0496 27.9182C45.2041 27.7 45.3314 27.4637 45.4405 27.2182C45.4405 27.2091 45.4496 27.2091 45.4587 27.2091C45.4678 27.2091 45.4678 27.2182 45.4678 27.2273C45.4132 27.3818 45.3587 27.5455 45.2769 27.6909C44.8769 28.4 44.3678 29.0546 43.7587 29.6818C42.5405 30.9091 40.9132 31.3637 39.2314 31.1455Z" fill="black"/>
<path d="M36.7688 27.2546C36.8779 27.3819 37.0052 27.5092 37.1507 27.6546C37.887 28.3637 38.7507 28.6637 39.7234 28.5819C40.6052 28.5001 41.3416 28.1092 41.9234 27.4092C42.5688 27.4637 43.2052 27.4637 43.8325 27.4001C43.8961 27.391 43.9597 27.4365 43.987 27.5001L44.0961 27.8365C43.5961 28.3455 43.0143 28.7274 42.3325 28.9819C41.5325 29.2819 40.6325 29.4092 39.6325 29.3728C38.2052 29.3183 36.687 28.6546 35.8779 27.4365C36.187 27.4637 36.4779 27.4001 36.7688 27.2546Z" fill="white"/>
<path d="M38.5504 34.2727C38.8868 34.2182 39.1868 34.2727 39.4505 34.4364C39.6414 34.5546 39.6868 34.7636 39.8686 34.8818C40.2868 35.1727 40.7686 35.3909 41.2595 35.5273C41.5868 35.6182 41.905 35.7182 42.205 35.8182C42.5777 35.9364 42.9777 36.0182 43.3596 36.0909C44.2686 36.2546 45.2141 36.4182 46.1232 36.5182C46.6595 36.5727 47.1232 36.6 47.505 36.5909C48.2686 36.5818 49.1323 36.5364 50.0959 36.4727C50.4414 36.4455 50.805 36.4091 51.1777 36.3546C51.5141 36.3091 51.8686 36.2636 52.2232 36.2364C53.0323 36.1727 53.9686 36 55.0323 35.7182C55.4686 35.6 55.8595 35.3909 56.2868 35.2455C56.3414 35.2273 56.3959 35.1909 56.4323 35.1455C56.505 35.0636 56.4868 35 56.3959 34.9455C55.9414 34.6818 55.5232 34.3909 55.1232 34.0546C54.6232 33.6364 54.1232 33.2091 53.6323 32.7636C52.7868 32 51.8686 31.3182 50.905 30.7182C50.8232 30.6636 50.7596 30.5909 50.705 30.4818C50.6414 30.3455 50.5323 30.2364 50.405 30.1455C50.0868 29.9091 49.7686 29.6818 49.4505 29.4636C49.105 29.2273 48.6504 29.0364 48.0959 28.9C47.9141 28.8546 47.7323 28.8636 47.5323 28.9182C47.1232 29.0364 46.7595 29.2273 46.4414 29.4727C46.3414 29.5546 46.2141 29.7 46.0777 29.9273C45.9595 30.1636 45.7868 30.3455 45.5595 30.4909C45.3141 30.6546 45.1595 30.7546 45.105 30.7909C44.205 31.5091 43.1868 32.0364 42.0504 32.3727C41.9868 32.3727 41.9323 32.4 41.8868 32.4636C41.8686 32.4909 41.8505 32.5091 41.8141 32.5182C41.605 32.6 41.3959 32.6546 41.1959 32.6909C40.5414 32.7909 39.905 32.7818 39.2595 32.6727C38.9686 32.6182 38.6868 32.5636 38.4232 32.5C38.0141 32.4 37.5868 32.4 37.1686 32.3091C36.8232 32.2273 35.5686 32.1273 35.5323 32.7182C35.4959 33.2818 35.5141 33.7 35.5777 33.9727C35.7141 34.5636 36.105 35.1364 36.605 35.5091C36.8232 35.6727 37.0504 35.8273 37.2777 35.9727C37.7414 36.2636 38.1777 36.5273 38.5868 36.7727C38.9777 37 39.4232 37.2273 39.9232 37.4364C40.7141 37.7727 41.5232 38.1364 42.3141 38.4909C42.9414 38.7727 43.605 38.9273 44.2686 39.1546C45.0323 39.4091 45.9414 39.6182 46.9959 39.8C47.9232 39.9546 48.8686 39.8818 49.7959 39.8727C50.0414 39.8727 50.305 39.8273 50.5959 39.7364C50.8868 39.6455 51.1777 39.6636 51.4595 39.5364C51.6232 39.4636 51.7868 39.4 51.9505 39.3364C52.1232 39.2727 52.2686 39.2 52.3959 39.1273C52.5505 39.0364 52.6868 38.9546 52.8232 38.8818C53.1868 38.6818 53.5141 38.4636 53.8596 38.2546C54.0505 38.1364 54.2232 38.0182 54.3777 37.9C54.6323 37.7091 54.905 37.5818 55.1323 37.3727C55.2686 37.2455 55.2505 37.2091 55.0686 37.2636C54.9414 37.3091 54.805 37.3636 54.6777 37.4455C54.6686 37.4546 54.6505 37.4546 54.6505 37.4364L54.6323 37.4091C54.6232 37.4 54.6232 37.3818 54.6414 37.3727C54.8323 37.2364 55.0505 37.1273 55.2959 37.0546C55.4596 37.0091 55.5414 36.9 55.5414 36.7364C56.0868 36.6182 56.6323 36.4727 57.1596 36.2909C57.1868 36.2818 57.2232 36.2727 57.2505 36.2727C57.2959 36.2727 57.305 36.2818 57.2686 36.3182C56.0505 37.3818 54.8323 38.3273 53.405 39.0091C52.5686 39.4182 51.805 39.7182 51.1323 39.9273C50.5686 40.1 49.9323 40.2636 49.2141 40.4182C48.1959 40.6455 47.3232 40.7091 46.6141 40.6364C46.1777 40.5909 45.6504 40.4364 45.0504 40.1909C44.5686 39.9909 44.0777 39.7818 43.5777 39.5546C42.4232 39.0273 41.305 38.3273 40.1686 37.7364C38.9141 37.0818 37.7777 36.4636 36.7686 35.8727C36.2414 35.5636 35.7505 35.1636 35.2868 34.6909C34.9868 34.3727 34.9141 33.9364 34.8232 33.5182C34.7777 33.3 34.7959 33.0818 34.8777 32.8636C35.0141 32.5182 35.2868 32.0273 35.6777 31.9636C35.8959 31.9273 36.1505 31.9364 36.4323 32C37.5868 32.2546 38.6868 32.3909 39.7232 32.4091C41.6414 32.4455 43.6414 31.8636 44.8777 30.3636C45.2505 29.9091 45.6141 29.4636 45.9595 29.0182C46.2504 28.6546 46.6141 28.3364 47.0504 28.0727C47.4686 27.8182 48.1414 27.9091 48.605 28C50.6414 28.4182 52.5232 29.6091 54.1959 30.8C55.4323 31.6727 56.5868 32.6364 57.6777 33.7C58.1232 34.1273 58.5686 34.5727 59.0232 35.0364C59.0686 35.0818 59.0595 35.1727 59.005 35.2C58.8595 35.2909 58.705 35.3636 58.5414 35.4273C57.5777 35.8364 56.505 36.1636 55.3232 36.4182C54.5595 36.5818 53.7959 36.7364 53.0141 36.8818C51.905 37.1 50.8232 37.2182 49.7414 37.2455C49.0959 37.2636 48.2323 37.2636 47.1505 37.2455C45.7777 37.2182 44.4232 37.0546 43.0777 36.7546C42.0232 36.5182 40.9868 36.1091 39.9959 35.5455C39.4323 35.2182 38.9414 34.7909 38.5504 34.2727Z" fill="#FAC96C"/>
<path d="M56.1958 29.5545C56.8049 29.2454 57.3685 28.8091 57.8867 28.2363H57.8958L57.914 28.2545C57.9231 28.2636 57.9231 28.2727 57.914 28.2818C57.0958 29.4091 56.0594 30.1909 54.614 30.1727C54.5867 30.1727 54.5594 30.1636 54.5412 30.1363C54.514 30.1 54.5231 30.0818 54.5594 30.0818C55.214 29.9545 55.7594 29.7818 56.1958 29.5545Z" fill="black"/>
<path d="M35.0322 30.2363C34.3413 29.8363 33.8322 29.2636 33.5049 28.5272C33.5049 28.5181 33.5049 28.5181 33.5049 28.509C33.514 28.4999 33.5231 28.509 33.5322 28.5181C34.0503 29.2636 34.6958 29.809 35.5685 30.1908C36.0958 30.4181 36.614 30.609 37.1503 30.7636C37.3867 30.8272 37.6322 30.8636 37.8867 30.8545C37.8958 30.8545 37.8958 30.8545 37.8958 30.8636V30.8908C37.8958 30.909 37.8867 30.909 37.8776 30.9181C36.8867 31.0181 35.8685 30.7181 35.0322 30.2363Z" fill="black"/>
<path d="M38.5494 34.2727C38.3494 34.0182 38.1949 33.7182 38.1131 33.3727C38.104 33.3273 38.1222 33.3182 38.1585 33.3273L39.9858 33.9727C40.0858 34.0091 40.0949 33.9909 40.0131 33.9273C39.4131 33.4182 38.3949 32.8091 37.6221 32.9364C36.9585 33.0455 36.804 33.6818 36.9858 34.2455C37.013 34.3364 37.0312 34.3364 37.0403 34.2364C37.0858 33.7 37.3221 33.3909 37.7585 33.3091C37.813 33.3 37.8403 33.3182 37.8312 33.3727C37.7585 34.2273 38.6403 35.1273 39.2858 35.5818C40.0403 36.1091 40.8403 36.5182 41.6949 36.8C42.8949 37.2 44.1767 37.4637 45.5403 37.5727C47.5494 37.7455 49.4858 37.7364 51.3403 37.5455C52.6676 37.4091 54.1494 37.0727 55.5403 36.7637C55.5312 36.9273 55.4494 37.0364 55.2949 37.0818C55.0494 37.1546 54.8312 37.2546 54.6403 37.4C54.6312 37.4091 54.6221 37.4182 54.6312 37.4364L54.6494 37.4637C54.6585 37.4727 54.6676 37.4818 54.6767 37.4727C54.804 37.3909 54.9403 37.3364 55.0676 37.2909C55.2494 37.2364 55.2676 37.2727 55.1312 37.4C54.904 37.6182 54.6221 37.7364 54.3767 37.9273C54.2221 38.0455 54.0494 38.1637 53.8585 38.2818C53.5131 38.4909 53.1858 38.7091 52.8221 38.9091C52.6858 38.9818 52.5403 39.0637 52.3949 39.1546C52.2767 39.2273 52.1221 39.3 51.9494 39.3637C51.7858 39.4273 51.613 39.4909 51.4585 39.5637C51.1767 39.6909 50.8858 39.6727 50.5949 39.7637C50.304 39.8546 50.0403 39.9 49.7949 39.9C48.8676 39.9091 47.9221 39.9818 46.9949 39.8273C45.9403 39.6546 45.0312 39.4364 44.2676 39.1818C43.604 38.9637 42.9403 38.8 42.3131 38.5182C41.5131 38.1637 40.704 37.8 39.9221 37.4637C39.4221 37.2455 38.9767 37.0273 38.5858 36.8C38.1676 36.5546 37.7312 36.2909 37.2767 36C37.0494 35.8546 36.8221 35.7 36.604 35.5364C36.104 35.1637 35.713 34.5818 35.5767 34C35.513 33.7273 35.4949 33.3091 35.5312 32.7455C35.5676 32.1546 36.8221 32.2637 37.1676 32.3364C37.5858 32.4273 38.0131 32.4273 38.4221 32.5273C38.6858 32.5909 38.9676 32.6455 39.2585 32.7C39.8949 32.8182 40.5403 32.8182 41.1949 32.7182C41.3949 32.6818 41.604 32.6273 41.8131 32.5455C41.8403 32.5364 41.8676 32.5182 41.8858 32.4909C41.9312 32.4273 41.9858 32.4 42.0494 32.4C42.5221 32.3546 42.9403 32.2546 43.3131 32.1C44.1221 31.7727 44.9858 31.2546 45.6312 30.6091C45.804 30.4455 45.9767 30.2727 46.1494 30.1091C46.3494 29.9273 46.504 29.7273 46.5949 29.5C46.604 29.4909 46.5949 29.4818 46.5858 29.4727L46.5585 29.4637C46.5403 29.4546 46.513 29.4637 46.504 29.4818C46.413 29.6727 46.2676 29.8273 46.0767 29.9364C46.2221 29.7091 46.3403 29.5637 46.4403 29.4818C46.7585 29.2364 47.1221 29.0455 47.5312 28.9273C47.7312 28.8727 47.913 28.8637 48.0949 28.9091C48.6494 29.0455 49.104 29.2364 49.4494 29.4727C49.7676 29.6909 50.0949 29.9182 50.404 30.1546C50.5312 30.2455 50.6403 30.3546 50.704 30.4909C50.7585 30.5909 50.8221 30.6727 50.904 30.7273C51.8767 31.3273 52.7858 32.0091 53.6312 32.7727C54.1312 33.2182 54.6312 33.6546 55.1221 34.0637C55.5221 34.4 55.9403 34.6909 56.3949 34.9546C56.4858 35.0091 56.504 35.0727 56.4312 35.1546C56.3949 35.2 56.3403 35.2364 56.2858 35.2546C55.8585 35.4 55.4676 35.6182 55.0312 35.7273C53.9767 36.0091 53.0403 36.1818 52.2221 36.2455C51.8676 36.2727 51.5131 36.3091 51.1767 36.3637C50.804 36.4182 50.4403 36.4546 50.0949 36.4818C49.1312 36.5455 48.2676 36.5909 47.504 36.6C47.1221 36.6091 46.6676 36.5818 46.1221 36.5273C45.213 36.4364 44.2676 36.2637 43.3585 36.1C42.9767 36.0273 42.5767 35.9455 42.204 35.8273C41.8949 35.7273 41.5858 35.6364 41.2585 35.5364C40.7676 35.4 40.2858 35.1727 39.8676 34.8909C39.6858 34.7727 39.6403 34.5637 39.4494 34.4455C39.1858 34.2727 38.8858 34.2182 38.5494 34.2727ZM49.4767 31.4C49.4858 31.6727 48.7403 31.8182 48.504 31.8455C48.4858 31.8455 48.4676 31.8637 48.4676 31.8818V31.9091C48.4676 31.9182 48.4676 31.9273 48.4858 31.9273C48.8221 31.9727 49.1585 31.9 49.504 31.7C49.7676 31.5546 49.7403 31.2364 49.4858 31.0909C48.904 30.7637 48.1494 30.5455 47.5222 30.7818C47.3767 30.8364 47.2312 30.9455 47.2312 31.1182C47.2403 31.2909 47.3312 31.4091 47.504 31.4637C47.6221 31.5 47.6494 31.4637 47.5767 31.3637C47.5312 31.2909 47.504 31.2182 47.504 31.1364C47.504 31.0727 47.5312 31.0364 47.5949 31.0182C47.6221 31.0091 47.6494 31.0182 47.6676 31.0455C47.9221 31.5273 48.7403 31.5546 49.2221 31.5C49.2494 31.5 49.2767 31.4818 49.2949 31.4546C49.3222 31.4182 49.3585 31.3909 49.404 31.3727C49.4585 31.3455 49.4767 31.3546 49.4767 31.4ZM43.8494 31.9546C43.4858 32.1182 43.1312 32.2637 42.7585 32.4182C42.7494 32.4182 42.7494 32.4273 42.7494 32.4273L42.7585 32.4546C42.7676 32.4637 42.7676 32.4727 42.7858 32.4637C43.4585 32.3182 44.1949 32.1 44.704 31.6182C44.7585 31.5727 44.7494 31.5546 44.6767 31.5727C44.404 31.6637 44.1312 31.8364 43.8494 31.9546ZM51.8131 38.3637C52.3767 38.2637 52.9858 38.0818 53.4676 37.7818L53.4767 37.7727C53.4767 37.7637 53.4676 37.7546 53.4585 37.7546C53.4494 37.7546 53.4494 37.7546 53.4403 37.7546C52.7949 37.9727 52.1221 38.1273 51.4221 38.2091C50.2949 38.3455 49.213 38.4273 48.1676 38.4546C48.1494 38.4546 48.1494 38.4637 48.1403 38.4727C48.1403 38.4818 48.1494 38.4909 48.1585 38.4909C49.3767 38.6182 50.5858 38.5727 51.8131 38.3637Z" fill="#DDA96F"/>
<path d="M42.0322 32.3999C43.1777 32.0544 44.1959 31.5272 45.0868 30.8181C45.1413 30.7726 45.2959 30.6726 45.5413 30.5181C45.7686 30.3726 45.9413 30.1908 46.0595 29.9544C46.2504 29.8454 46.3868 29.6908 46.4868 29.4999C46.4959 29.4817 46.5231 29.4726 46.5413 29.4817L46.5686 29.4908C46.5777 29.4999 46.5868 29.4999 46.5777 29.5181C46.4777 29.7363 46.3322 29.9363 46.1322 30.1272C45.9504 30.2908 45.7777 30.4544 45.6141 30.6272C44.9686 31.2635 44.105 31.7908 43.2959 32.1181C42.9231 32.2544 42.505 32.3544 42.0322 32.3999Z" fill="#302E31"/>
<path d="M56.9141 29.7909C56.505 30.209 55.8868 30.3818 55.3232 30.4727C55.3141 30.4727 55.305 30.4727 55.305 30.4636L55.2959 30.4363V30.4272C55.8595 30.2454 56.3777 30.0181 56.8504 29.7272C56.8595 29.7181 56.8777 29.7181 56.8959 29.7181C56.905 29.7181 56.9141 29.7272 56.9141 29.7363C56.9322 29.7636 56.9322 29.7818 56.9141 29.7909Z" fill="black"/>
<path d="M49.4134 31.3636C49.377 31.3818 49.3406 31.4091 49.3043 31.4455C49.2861 31.4727 49.2588 31.4818 49.2315 31.4909C48.7406 31.5455 47.9316 31.5182 47.677 31.0364C47.6588 31.0091 47.6406 31 47.6043 31.0091C47.5497 31.0273 47.5134 31.0636 47.5134 31.1273C47.5134 31.2091 47.5406 31.2818 47.5861 31.3545C47.6588 31.4545 47.6315 31.4909 47.5134 31.4545C47.3406 31.4 47.2497 31.2909 47.2406 31.1091C47.2315 30.9273 47.377 30.8273 47.5315 30.7727C48.1679 30.5364 48.9134 30.7545 49.4952 31.0818C49.7497 31.2273 49.777 31.5455 49.5134 31.6909C49.1679 31.8818 48.8225 31.9636 48.4952 31.9182C48.4861 31.9182 48.477 31.9091 48.477 31.9V31.8727C48.477 31.8545 48.4952 31.8364 48.5134 31.8364C48.7497 31.8182 49.4952 31.6636 49.4861 31.3909C49.477 31.3545 49.4588 31.3455 49.4134 31.3636Z" fill="black"/>
<path d="M43.8497 31.9545C44.1224 31.8363 44.4042 31.6636 44.6861 31.5818C44.7588 31.5636 44.7588 31.5727 44.7133 31.6272C44.2042 32.0999 43.4679 32.3272 42.7952 32.4727C42.7861 32.4727 42.777 32.4727 42.7679 32.4636L42.7588 32.4363C42.7588 32.4363 42.7588 32.4272 42.7679 32.4272C43.1315 32.2636 43.4952 32.1181 43.8497 31.9545Z" fill="#302E31"/>
<path d="M66.378 75.5637C66.3417 75.5546 66.3053 75.5091 66.269 75.4364C66.269 75.4091 66.2599 75.3818 66.2417 75.3818C66.0962 75.3273 65.8144 75.2364 65.4053 75.1182L65.1235 75C65.1417 74.7182 65.2599 74.4546 65.3417 74.1818C65.4781 73.7 65.4962 73.2364 65.3689 72.7546C65.0235 71.4728 64.569 70.2818 63.4417 69.4818C63.3962 69.4546 63.378 69.4 63.378 69.3546C63.5144 67.7546 63.3053 66.2091 63.0417 64.6C62.9326 63.9637 62.8326 63.3637 62.7235 62.8C62.5417 61.8546 62.2144 60.8182 61.7508 59.7C60.8326 57.4909 59.5962 55.2455 58.0417 52.9637C56.6962 51 55.6962 48.9273 55.0326 46.7637C54.2689 44.2637 53.9326 41.7091 54.1962 39.1546C54.2053 39.1 54.2326 39.0546 54.278 39.0182C55.3599 38.3 56.3689 37.4728 57.278 36.5364C57.4235 36.3818 57.5417 36.1909 57.7326 36.1091C58.1326 35.9364 58.5235 35.7546 58.8871 35.5637C58.9508 35.5364 59.0144 35.5818 58.9962 35.6546C58.7962 36.4455 58.6235 37.2182 58.4781 37.9637C58.4235 38.2728 58.3781 38.6 58.3417 38.9364C58.2962 39.3728 58.2417 39.7909 58.2144 40.2455C58.1417 41.5455 58.078 42.7455 58.1508 44.1C58.2235 45.3909 58.4599 46.5818 58.8689 47.6728C59.3053 48.8364 59.8599 49.9182 60.5235 50.9091C60.9781 51.5909 61.5326 52.3273 62.1781 53.1364C64.069 55.4728 66.1326 57.6546 68.2235 59.8182C69.4871 61.1182 70.6417 62.6091 71.3689 64.3C71.778 65.2637 72.069 66.0273 72.2144 66.5728C72.4508 67.4 72.5235 68.3 72.7417 69.1637C72.778 69.3 72.7417 69.4273 72.6508 69.5364C70.7326 71.8182 68.6326 73.9 66.378 75.5637Z" fill="#464B51"/>
<path d="M53.7858 42.5454C53.5858 42.9999 53.4131 43.2726 53.2676 43.3726C52.6858 43.7726 52.0949 44.1545 51.4949 44.509C51.2767 44.6454 51.2495 44.609 51.4131 44.4181C51.604 44.1999 51.7949 43.9272 51.9858 43.5999C52.0949 43.4181 52.0676 43.3999 51.9131 43.5454C51.7404 43.709 51.5676 43.8726 51.3676 44.009C50.404 44.6454 49.404 45.0635 48.3404 45.2726C47.4131 45.4545 46.604 45.5635 45.904 45.5908C45.4676 45.609 45.0313 45.6272 44.5858 45.6454C44.504 45.6454 44.4131 45.6454 44.3313 45.6272C44.2404 45.609 44.2404 45.5908 44.3313 45.5635C44.9313 45.3999 45.4858 45.2181 45.9858 44.9999C46.2404 44.8908 46.5313 44.7363 46.8676 44.5272C46.8676 44.5272 46.8676 44.5272 46.8676 44.5181L46.8586 44.4999C46.8495 44.4908 46.8495 44.4908 46.8404 44.4908C45.9767 44.8726 45.1222 45.1454 44.2676 45.309C43.304 45.4999 42.2949 45.5272 41.2313 45.3999C40.2404 45.2817 39.2949 44.9272 38.4676 44.3545C38.1767 44.1545 37.9131 43.9545 37.6586 43.7545C37.2222 43.3999 36.8131 42.8817 36.4404 42.1817C36.1585 41.6636 36.6131 40.9726 36.7222 40.4999C36.7313 40.4636 36.7767 40.3272 36.8586 40.109C36.9131 39.9545 36.9222 39.8181 36.8767 39.6817C36.9858 39.1363 37.0858 38.5817 37.1586 37.9999C37.2222 37.5545 37.1949 37.1181 37.0949 36.6908C37.0858 36.6726 37.1131 36.6545 37.1313 36.6636C38.6676 37.5454 40.304 38.3545 41.8404 39.2272C42.8586 39.809 43.8949 40.2817 45.004 40.7181C45.6404 40.9726 46.3313 41.1636 47.0222 41.1726C48.2131 41.1817 49.3313 40.9363 50.4676 40.6454C51.7586 40.309 52.9404 39.8181 54.0131 39.1545C54.0313 39.1454 54.0495 39.1545 54.0495 39.1817C53.804 40.3181 53.7131 41.4363 53.7858 42.5454Z" fill="#BEBEB6"/>
<path d="M53.4686 37.7818C52.9777 38.0818 52.3777 38.2545 51.814 38.3636C50.5868 38.5818 49.3777 38.6272 48.1686 38.5C48.1595 38.5 48.1504 38.4909 48.1504 38.4818C48.1504 38.4636 48.1595 38.4636 48.1777 38.4545C49.214 38.4272 50.3049 38.3454 51.4322 38.2091C52.1322 38.1272 52.8049 37.9727 53.4504 37.7545C53.4595 37.7545 53.4595 37.7545 53.4686 37.7545C53.4777 37.7545 53.4777 37.7636 53.4867 37.7727C53.4777 37.7818 53.4777 37.7818 53.4686 37.7818Z" fill="black"/>
<path d="M36.8771 39.7C36.9226 39.8272 36.9135 39.9727 36.859 40.1272C36.7771 40.3454 36.7408 40.4818 36.7226 40.5181C36.6044 40.9909 36.159 41.6818 36.4408 42.2C36.8135 42.9 37.2226 43.4272 37.659 43.7727C37.9044 43.9727 38.1771 44.1727 38.4681 44.3727C39.2953 44.9454 40.2499 45.3 41.2317 45.4181C42.2953 45.5545 43.3044 45.5181 44.2681 45.3272C45.1226 45.1636 45.9771 44.8818 46.8408 44.509C46.8499 44.509 46.859 44.509 46.859 44.5181L46.868 44.5363C46.868 44.5363 46.868 44.5363 46.868 44.5454C46.5317 44.7545 46.2408 44.909 45.9862 45.0181C45.4862 45.2272 44.9317 45.4181 44.3317 45.5818C44.2408 45.609 44.2408 45.6272 44.3317 45.6454C44.4135 45.6636 44.4953 45.6636 44.5862 45.6636C45.0317 45.6454 45.4771 45.6272 45.9044 45.609C46.5953 45.5818 47.4135 45.4727 48.3408 45.2909C49.4044 45.0818 50.4135 44.6636 51.368 44.0272C51.568 43.8909 51.7408 43.7272 51.9135 43.5636C52.068 43.4181 52.0862 43.4363 51.9862 43.6181C51.7953 43.9363 51.6044 44.209 51.4135 44.4363C51.2408 44.6363 51.2681 44.6636 51.4953 44.5272C52.1044 44.1636 52.6953 43.7909 53.2681 43.3909C53.4135 43.2909 53.5771 43.0181 53.7862 42.5636C53.8317 43.1909 53.868 43.6363 53.9135 43.8909C54.3408 46.7272 55.2771 49.3727 56.7135 51.809C57.0226 52.3363 57.6044 53.2363 58.4408 54.5181C59.359 55.909 60.2226 57.5 61.0317 59.3C61.4499 60.2272 61.7771 61.109 62.0135 61.9363C62.1408 62.4 62.268 62.9909 62.3953 63.6999C62.6408 65.0818 62.8044 66.2181 62.8953 67.1272C62.959 67.7454 62.968 68.409 62.9408 69.0999C62.9408 69.1272 62.9135 69.1454 62.8953 69.1272C62.4499 68.9272 61.9771 68.7818 61.4862 68.6909C59.9226 68.4 58.3408 68.2272 56.7408 68.1727C56.7226 68.1727 56.7044 68.1545 56.7135 68.1272C57.4044 65.6818 57.4771 63.2818 56.9226 60.9272C56.5226 59.2363 55.8317 57.6818 54.8499 56.2818C52.8408 53.409 49.668 51.3818 46.168 51.0272C45.7408 50.9818 45.3044 50.9272 44.8771 50.9272C42.5317 50.9545 40.3862 51.5727 38.4499 52.7909C36.3135 54.1363 34.5862 56.1454 33.5499 58.4999C32.3499 61.2272 32.059 64.1 32.6862 67.1181C32.6953 67.1636 32.6771 67.1909 32.6226 67.1909C31.5135 67.2272 30.3408 67.3545 29.1135 67.5727C28.5226 67.6818 27.9317 67.8181 27.3226 67.9999C27.2862 68.009 27.2499 67.9818 27.2499 67.9454C27.2135 67.2636 27.0953 66.6454 27.0862 65.9454C27.0681 64.7272 27.0772 63.7636 27.1135 63.0454C27.1499 62.3272 27.259 61.3454 27.4317 60.0909C27.7135 58.1363 28.3499 56.1363 29.1771 54.4272C29.6317 53.4818 30.1771 52.4727 30.8044 51.3909C32.4499 48.5818 34.1499 45.709 35.6135 42.9363C36.1226 41.9363 36.5499 40.8636 36.8771 39.7ZM60.2681 58.5181C60.0499 58.0363 59.7771 57.5909 59.4499 57.1999C59.4408 57.1909 59.4408 57.1909 59.4317 57.1999C59.4226 57.209 59.4226 57.209 59.4317 57.2181C59.7135 57.6909 59.9499 58.1727 60.1408 58.6727C60.568 59.7545 60.9317 60.9545 61.2408 62.2636C61.2408 62.2818 61.2499 62.2818 61.2681 62.2818C61.2771 62.2818 61.2862 62.2727 61.2862 62.2545C61.1499 60.9727 60.8135 59.7272 60.2681 58.5181ZM59.4317 58.5272C59.5135 58.5636 59.568 58.6181 59.6044 58.6999C59.8226 59.1454 59.9953 59.5909 60.1226 60.0454C60.3135 60.7272 60.4589 61.3636 60.5499 61.9727C60.5499 61.9818 60.559 61.9818 60.5681 61.9818C60.5771 61.9818 60.5862 61.9727 60.5862 61.9636C60.5226 61.0363 60.359 60.1909 60.0681 59.409C59.959 59.0999 59.7135 58.5727 59.4317 58.4999C59.4226 58.4999 59.4226 58.4999 59.4226 58.4999C59.4135 58.5181 59.4226 58.5181 59.4317 58.5272Z" fill="white"/>
<path d="M43.2142 66.8L49.496 67.2182C49.5324 67.2182 49.5415 67.2363 49.5415 67.2727L49.5051 68.3909C49.5051 68.4363 49.4778 68.4545 49.4415 68.4636C47.8778 68.7091 46.2778 69.0636 44.6324 69.5363C44.6051 69.5454 44.5778 69.5363 44.5505 69.5182C44.0778 69.1636 43.596 68.9091 43.1142 68.7454C42.296 68.4818 41.4687 68.2273 40.6414 68C40.6051 67.9909 40.5869 67.9636 40.5869 67.9273L41.1142 56.4909C41.1142 56.4636 41.1324 56.4454 41.1596 56.4454L43.4324 56.4818C43.496 56.4818 43.5324 56.5182 43.5233 56.5818C43.4506 58.1182 43.396 59.6909 43.3415 61.3C43.2869 63.1182 43.1869 64.9091 43.1596 66.7545C43.1687 66.7818 43.1869 66.8 43.2142 66.8Z" fill="white"/>
<path d="M15.7235 57.0546C15.7144 57.6364 15.678 58.0455 15.6144 58.2909C15.378 59.1909 15.2325 60.2182 15.4416 61.1546C15.6053 61.8637 15.778 62.4637 15.978 62.9273C16.2962 63.7 16.7871 64.4273 17.4598 65.1273C17.6053 65.2818 17.778 65.4091 17.978 65.5091C18.4416 65.7455 18.9416 65.9546 19.4689 66.1546C20.2325 66.4364 21.0416 66.5091 21.878 66.3727C21.9053 66.3727 21.9235 66.3818 21.9325 66.4091C21.9325 66.4182 21.9325 66.4273 21.9234 66.4364C21.8962 66.4818 21.5507 66.5818 21.4689 66.6364C21.1598 66.8364 20.8144 66.9637 20.4234 67.0182C20.4234 67.0273 20.4234 67.0364 20.4234 67.0455C20.4234 67.0546 20.4235 67.0546 20.4325 67.0546C21.1598 67.0727 21.7962 67.0273 22.3325 66.9273C22.6598 66.8637 23.0962 66.7 23.6416 66.4273C23.6598 66.4182 23.6689 66.4273 23.6871 66.4364L23.7053 66.4546C23.7144 66.4727 23.7144 66.4909 23.6962 66.5091C23.4325 66.7091 23.1598 66.8909 22.8871 67.0546C22.7144 67.1546 22.5325 67.2364 22.3507 67.3C22.2871 67.3182 22.2871 67.3273 22.3598 67.3273C22.4689 67.3273 22.5598 67.3091 22.6598 67.2727C22.9325 67.1637 23.2144 67.0546 23.4962 66.9455C24.5235 66.5364 25.3871 65.8273 26.0962 64.8182C26.3416 64.4727 26.4689 64.1273 26.4962 63.7727C26.4871 64.5091 26.4962 65.2455 26.5144 65.9818C26.5325 66.6637 26.6143 67.3364 26.6871 68.0182C26.6962 68.1364 26.6507 68.2091 26.5507 68.2455C25.6507 68.5455 24.8325 68.9 24.0962 69.3C22.8598 69.9727 21.6871 70.7455 20.7507 71.7818C20.1325 72.4727 19.5598 73.4727 19.1507 74.3727C18.1422 73.6898 12.569 68.5589 11.9507 67.1455C11.8871 67.0637 11.8598 66.9727 11.8689 66.8727C11.8871 66.4 11.978 65.9455 12.1325 65.5091C12.478 64.5364 12.6962 63.5364 13.0598 62.5818C13.6598 60.9818 14.3689 59.4455 15.1871 57.9455C15.3234 57.6637 15.5325 57.3637 15.7235 57.0546Z" fill="#302E31"/>
<path d="M60.2679 58.5182C60.8042 59.7273 61.1406 60.9728 61.2769 62.2546C61.2769 62.2728 61.2679 62.2728 61.2588 62.2818C61.2497 62.2818 61.2406 62.2818 61.2315 62.2637C60.9315 60.9546 60.5678 59.7637 60.1406 58.6728C59.9406 58.1728 59.7042 57.6909 59.4315 57.2182C59.4224 57.2091 59.4315 57.2 59.4406 57.2C59.4497 57.1909 59.4497 57.2 59.4588 57.2C59.786 57.6 60.0588 58.0364 60.2679 58.5182Z" fill="black"/>
<path d="M51.7953 59.9909C51.7953 61.1272 50.868 62.0545 49.7316 62.0545C48.5952 62.0545 47.668 61.1272 47.668 59.9909C47.668 58.8545 48.5952 57.9272 49.7316 57.9272C50.868 57.9363 51.7953 58.8545 51.7953 59.9909Z" fill="white"/>
<path d="M59.432 58.5272C59.4229 58.5272 59.4229 58.5181 59.4229 58.509C59.4229 58.4999 59.432 58.4999 59.432 58.4999C59.7138 58.5727 59.9501 59.109 60.0683 59.409C60.3501 60.1818 60.5229 61.0363 60.5865 61.9636C60.5865 61.9727 60.5865 61.9818 60.5774 61.9818C60.5683 61.9818 60.5592 61.9818 60.5592 61.9727C60.4592 61.3727 60.3138 60.7272 60.1319 60.0454C60.0047 59.5908 59.832 59.1363 59.6138 58.6999C59.5683 58.6181 59.5138 58.5636 59.432 58.5272Z" fill="black"/>
<path d="M37.132 72.1C36.6411 72.0091 36.1411 71.9818 35.6411 72.0363C35.3956 72.0636 35.1774 72.1182 34.9774 72.2091C34.7593 72.3 34.5592 72.4182 34.3683 72.5545C33.8229 72.9454 33.2593 73.3727 32.6956 73.8363C32.1684 74.2636 31.6047 74.6 31.032 74.9545C30.8411 75.0727 30.6593 75.1636 30.4775 75.2272C29.5047 75.5818 28.7865 75.7909 28.332 75.8818C27.9593 75.9454 27.5683 76.0182 27.1683 76.0909C26.8229 76.1545 26.5411 76.1818 26.2956 76.1818C25.9138 76.1727 25.6229 76.1363 25.4229 76.0727C25.0411 75.9545 24.6774 75.8272 24.3047 75.7091C24.1411 75.6545 24.1411 75.6272 24.3138 75.6182C24.5138 75.6091 24.7229 75.6091 24.9411 75.6091C25.232 75.6091 25.532 75.5545 25.7956 75.4636C25.9865 75.3909 25.9865 75.3454 25.7865 75.3091C25.332 75.2272 24.8956 75.0818 24.4775 74.8545C24.2865 74.7545 24.1229 74.6182 23.9684 74.4545C23.6593 74.1182 23.3683 73.7636 23.0774 73.4C22.7774 73.0182 22.4684 72.4454 22.5229 71.9727C22.5411 71.7818 22.6411 71.4 22.8047 70.8091C23.7138 70.1454 24.7047 69.5909 25.7956 69.1545C27.1047 68.6272 28.4502 68.2636 29.8411 68.0454C31.1593 67.8363 32.4411 67.7272 33.7865 67.7454C34.6865 67.7636 35.4593 67.7909 36.1229 67.8363C36.7593 67.8818 37.4774 67.9818 38.2865 68.1545C38.9774 68.3 39.7956 68.3818 40.4774 68.5454C41.3684 68.7636 42.2411 69 43.0865 69.2454C43.4229 69.3454 43.7229 69.4818 43.9774 69.6636C43.9956 69.6727 43.9865 69.7091 43.9683 69.7091C41.932 70.2727 39.8774 71 37.8138 71.8727C37.6956 71.9182 37.5774 71.9636 37.4592 72C37.3502 72.0363 37.2411 72.0727 37.132 72.1ZM30.1411 69.9L30.1502 69.8363C30.1502 69.8272 30.1411 69.8182 30.132 69.8182H30.1138C29.2775 69.6909 28.5956 69.6091 28.5865 69.6272V69.6454C28.5865 69.6636 29.2593 69.7818 30.0956 69.9091H30.1138C30.1229 69.9182 30.132 69.9091 30.1411 69.9ZM27.6229 69.9545V69.9909C27.6229 69.9909 27.6229 70 27.632 70C28.732 70.2 29.8047 70.4545 30.8593 70.7545C30.8865 70.7636 30.9047 70.7454 30.9138 70.7272L30.9229 70.7C30.932 70.6545 30.9138 70.6182 30.8683 70.6C29.8411 70.2 28.7593 69.9818 27.632 69.9454L27.6229 69.9545ZM28.7047 70.4545C28.1775 70.3636 27.6774 70.2909 27.1956 70.2454C27.032 70.2272 26.8774 70.2363 26.7229 70.2454H26.7138C26.7138 70.2454 26.7138 70.2363 26.7229 70.2363H26.732C27.9593 70.4454 29.1229 70.7 30.3138 71.1454C30.8502 71.3454 31.3593 71.5272 31.8411 71.6818C32.0593 71.7545 32.2411 71.8545 32.432 71.9818C32.6956 72.1545 32.7229 72.1272 32.5047 71.8909C32.3229 71.6909 32.1047 71.5454 31.8411 71.4454C30.7411 71.0363 29.7775 70.6545 28.7047 70.4545Z" fill="#464B51"/>
<path d="M64.987 74.7454C64.8233 74.5545 64.6506 74.4182 64.4779 74.3545C63.8415 74.1 63.1688 73.9818 62.4779 74.0091C61.6506 74.0454 60.7597 74.1727 59.7961 74.4091C59.287 74.5363 58.6779 74.7182 57.9688 74.9636C57.3506 75.1727 56.7051 75.3909 56.0324 75.6182C55.1506 75.9091 54.0051 76.3818 52.587 77.0272C52.2233 77.1909 51.9233 77.3545 51.6779 77.5091H51.6688L51.6506 77.4909C51.6324 77.4636 51.6415 77.4454 51.6597 77.4272C51.8506 77.3 52.0506 77.1818 52.2506 77.0727C52.987 76.6909 53.7051 76.2818 54.4142 75.8454C54.4324 75.8272 54.4506 75.8182 54.4506 75.8C54.4506 75.7727 54.4415 75.7636 54.4142 75.7727C53.9415 75.9909 53.4597 76.1545 52.9779 76.2727C52.6961 76.3454 52.4324 76.4363 52.1506 76.5272C51.6324 76.7 51.0597 76.7909 50.5597 76.9363C49.5415 77.2363 48.8415 77.4272 48.4688 77.5C47.287 77.7545 46.0597 78 44.7961 78.2545C44.1779 78.3727 43.6142 78.4545 43.096 78.5C42.5506 78.5454 41.9779 78.5818 41.387 78.6182C40.7779 78.6545 40.0233 78.6545 39.1233 78.6C39.1142 78.6 39.1051 78.5909 39.1142 78.5818L39.1233 78.5545C39.1233 78.5545 39.1233 78.5545 39.1324 78.5545C39.2233 78.5454 39.3051 78.5363 39.387 78.5182C39.4415 78.5091 39.4415 78.4909 39.387 78.4727C39.0051 78.3545 38.6415 78.2636 38.2688 78.1272C37.2233 77.7363 36.1233 77.2818 35.3142 76.4636C34.7051 75.8454 34.5142 75.0818 34.7506 74.1727C35.2779 73.7636 35.8415 73.4363 36.4233 73.1727C37.7779 72.5636 39.2597 71.9636 40.8688 71.3636C41.4233 71.1545 41.9779 70.9727 42.5142 70.8091C44.0051 70.3545 45.4415 69.9545 46.8051 69.6182C48.9142 69.0909 51.1961 68.7909 53.6324 68.7091C54.6415 68.6727 55.7051 68.7454 56.7597 68.7818C57.6688 68.8091 58.6051 68.8909 59.5051 69C60.2142 69.0818 60.9324 69.2 61.6688 69.3545C62.9597 69.6182 63.8688 70.3545 64.4233 71.5363C64.7233 72.1909 64.9233 72.7 65.0233 73.0727C65.1415 73.5545 65.1324 74.1091 64.987 74.7454ZM45.3051 70.8454C44.0597 71.2363 42.8415 71.8272 41.696 72.4091C41.687 72.4091 41.6869 72.4182 41.6869 72.4272C41.6869 72.4363 41.6961 72.4363 41.7051 72.4363C44.1779 71.4182 46.7233 70.6 49.3324 69.9909C49.587 69.9272 49.8506 69.9182 50.096 69.8818C50.1597 69.8727 50.1597 69.8545 50.096 69.8363C49.9506 69.7909 49.7506 69.7909 49.4961 69.8363C47.987 70.1091 46.587 70.4454 45.3051 70.8454ZM45.5597 71.5363C45.6415 71.5 45.6415 71.4909 45.5506 71.4909C45.3688 71.5091 45.187 71.5545 44.9961 71.6182C43.7415 72.0727 42.5051 72.6818 41.287 73.4545C41.2779 73.4545 41.2779 73.4636 41.287 73.4727C41.296 73.4818 41.296 73.4818 41.3051 73.4818C42.6597 72.8273 44.0779 72.1727 45.5597 71.5363ZM41.487 74.0272C41.4779 74.0272 41.4779 74.0363 41.487 74.0454C41.487 74.0454 41.487 74.0454 41.4961 74.0454C42.3506 73.6363 43.187 73.2 44.0142 72.7545C44.1779 72.6636 44.1688 72.6545 43.9961 72.7C43.1142 72.9636 42.2506 73.5272 41.487 74.0272Z" fill="#464B51"/>
<path d="M30.1412 69.8999C30.1412 69.909 30.1322 69.9181 30.1231 69.9181H30.1049C29.2685 69.7909 28.5867 69.6727 28.5958 69.6545V69.6363C28.5958 69.6181 29.2776 69.7 30.1231 69.8272H30.1412C30.1503 69.8272 30.1594 69.8363 30.1594 69.8454L30.1412 69.8999Z" fill="black"/>
<path d="M45.3044 70.8455C46.5862 70.4455 47.9862 70.1091 49.5044 69.8273C49.768 69.7818 49.968 69.7818 50.1044 69.8273C50.168 69.8455 50.168 69.8637 50.1044 69.8728C49.8499 69.9182 49.5953 69.9273 49.3408 69.9819C46.7317 70.5909 44.1862 71.4 41.7135 72.4273C41.7044 72.4273 41.7044 72.4273 41.6953 72.4182C41.6953 72.4091 41.6953 72.4 41.7044 72.4C42.8408 71.8273 44.0589 71.2364 45.3044 70.8455Z" fill="black"/>
<path d="M27.6408 69.9454C28.768 69.9818 29.8499 70.2 30.8771 70.6C30.9226 70.6182 30.9408 70.6454 30.9317 70.7L30.9226 70.7273C30.9135 70.7545 30.8953 70.7636 30.868 70.7545C29.8135 70.4545 28.7408 70.2 27.6408 70C27.6317 70 27.6317 70 27.6317 69.9909V69.9545C27.6226 69.9545 27.6317 69.9454 27.6408 69.9454Z" fill="black"/>
<path d="M28.7049 70.4545C29.7777 70.6454 30.7413 71.0273 31.8322 71.4545C32.0867 71.5545 32.3049 71.7 32.4958 71.9C32.714 72.1273 32.6867 72.1636 32.4231 71.9909C32.2322 71.8636 32.0413 71.7636 31.8322 71.6909C31.3504 71.5364 30.8413 71.3545 30.3049 71.1545C29.114 70.7091 27.9595 70.4454 26.7231 70.2454H26.714C26.714 70.2454 26.7049 70.2455 26.714 70.2545C26.714 70.2545 26.714 70.2636 26.7231 70.2545C26.8776 70.2364 27.0413 70.2364 27.1958 70.2545C27.6776 70.2909 28.1777 70.3636 28.7049 70.4545Z" fill="black"/>
<path d="M22.823 70.8091C22.6594 71.3909 22.5685 71.7818 22.5412 71.9727C22.4866 72.4454 22.7957 73.0182 23.0957 73.4C23.3866 73.7636 23.6775 74.1182 23.9866 74.4545C24.1412 74.6182 24.3048 74.7545 24.4957 74.8545C24.9139 75.0818 25.3503 75.2364 25.8048 75.3091C26.0048 75.3454 26.0139 75.4 25.8139 75.4636C25.5503 75.5545 25.2503 75.6091 24.9594 75.6091C24.7412 75.6091 24.5321 75.6091 24.3321 75.6182C24.1594 75.6273 24.1594 75.6545 24.323 75.7091C24.6957 75.8273 25.0594 75.9454 25.4412 76.0727C25.6412 76.1364 25.9321 76.1727 26.3139 76.1818C26.5503 76.1909 26.8412 76.1545 27.1866 76.0909C27.5866 76.0182 27.9684 75.9454 28.3503 75.8818C28.8048 75.8 29.523 75.5818 30.4957 75.2273C30.6775 75.1636 30.8594 75.0727 31.0503 74.9545C31.623 74.6 32.1866 74.2636 32.7139 73.8364C33.2775 73.3818 33.8412 72.9545 34.3866 72.5545C34.5776 72.4182 34.7775 72.3091 34.9957 72.2091C35.1957 72.1182 35.4139 72.0636 35.6594 72.0364C36.1594 71.9818 36.6503 72 37.1503 72.1L35.2685 73.0545C35.2321 73.0727 35.1957 73.0454 35.1957 73C35.2321 72.7818 35.3321 72.5818 35.5048 72.4091C35.5139 72.4091 35.5139 72.4 35.5048 72.3909L35.4866 72.3727C35.4684 72.3545 35.4594 72.3545 35.4412 72.3727C35.2866 72.4909 35.1594 72.6182 35.0503 72.7545C34.3412 73.6727 33.8685 74.6182 33.523 75.7818C33.3503 76.3636 33.1685 76.9727 32.9685 77.6091C32.7048 78.4364 32.3775 79.2364 31.8594 79.9454C31.7139 80.1454 31.4503 80.4454 31.1957 80.2091C31.0866 80.1091 30.9957 79.9727 30.9048 79.8091C30.7321 79.4636 30.5594 79.1273 30.3866 78.7818C30.3321 78.6727 30.3048 78.6818 30.3048 78.8C30.3048 78.8909 30.3139 78.9818 30.3412 79.0727C30.3594 79.1454 30.3321 79.2273 30.2685 79.2636C29.8775 79.5545 29.4866 79.8727 29.1048 80.2091C29.0139 80.2909 28.9048 80.3091 28.7866 80.2545C26.8594 79.4182 25.2321 78.6091 23.9139 77.8364C22.9866 77.2909 22.0957 76.7091 21.2412 76.0909C20.7503 75.7454 20.2594 75.3818 19.7503 75.0182C19.7048 74.9909 19.6685 74.9545 19.6321 74.9091C19.6139 74.8909 19.6048 74.8636 19.6139 74.8273C19.6594 74.6364 19.7139 74.4636 19.7866 74.3C20.2957 73.1909 21.0412 72.2091 22.0321 71.3636C22.2957 71.1545 22.5684 70.9545 22.823 70.8091Z" fill="#302E31"/>
<path d="M45.5598 71.5363C44.078 72.1818 42.6598 72.8272 41.3053 73.4818C41.2962 73.4818 41.2962 73.4818 41.2871 73.4727C41.2871 73.4636 41.2871 73.4636 41.2871 73.4545C42.5053 72.6818 43.7417 72.0636 44.9962 71.6181C45.1871 71.5545 45.3689 71.509 45.5507 71.4908C45.6326 71.4908 45.6417 71.4999 45.5598 71.5363Z" fill="black"/>
<path d="M41.4778 74.0273C42.2506 73.5273 43.1142 72.9545 43.9778 72.7C44.1506 72.6454 44.1597 72.6636 43.996 72.7545C43.1688 73.2 42.3324 73.6364 41.4778 74.0454H41.4688C41.4778 74.0364 41.4778 74.0364 41.4778 74.0273Z" fill="black"/>
<path d="M70.568 72.9363C70.5771 72.9454 70.5225 73.0181 70.4407 73.0908C70.368 73.1636 70.2952 73.2272 70.2861 73.209C70.2771 73.1999 70.3316 73.1272 70.4134 73.0545C70.4861 72.9817 70.5498 72.9272 70.568 72.9363Z" fill="#302E31"/>
<path d="M64.9867 74.7455L65.0049 75.0091C65.0049 75.1 65.0412 75.1182 65.1049 75.0455C65.114 75.0364 65.123 75.0182 65.1412 74.9909L65.423 75.1091C65.3321 75.1273 65.2503 75.1364 65.1594 75.1364C65.0685 75.1364 64.9776 75.1455 64.8776 75.1636C63.8958 75.3273 63.0776 75.5 62.3958 75.6909C62.0685 75.7818 61.7503 75.8545 61.4503 75.9091C60.5958 76.0636 59.7685 76.3 58.9412 76.5545C57.3049 77.0636 55.723 77.7545 54.1958 78.6182C53.4867 79.0273 52.7049 79.5273 51.8594 80.1273C50.9049 80.8091 50.114 81.3727 49.4776 81.8364C49.0321 82.1727 48.5776 82.5182 48.123 82.8818C48.0412 82.9455 47.9503 82.9818 47.8412 82.9909C46.114 83.1727 44.5503 83.2455 43.1412 83.2273C41.9776 83.2091 40.6321 83.1182 39.123 82.9727C38.7776 82.9364 37.9958 82.8182 36.7776 82.6C34.8776 82.2636 32.8321 81.7273 30.6412 80.9727C30.2685 80.8455 29.9049 80.7 29.5321 80.5455C29.4867 80.5273 29.4776 80.4636 29.5231 80.4364C29.8412 80.2182 30.1139 79.9455 30.3503 79.6182C30.3867 79.5636 30.4049 79.5727 30.4139 79.6364C30.5139 80.2455 31.0412 81.0182 31.7503 80.6727C31.9321 80.5818 32.1049 80.4273 32.2776 80.1909C32.7503 79.5636 33.1412 78.7364 33.4594 77.7273C33.7412 76.8182 33.9321 76.1818 34.0231 75.8182C34.1867 75.1364 34.4321 74.5909 34.7503 74.1727C34.514 75.0727 34.7049 75.8364 35.314 76.4636C36.114 77.2818 37.223 77.7364 38.2685 78.1273C38.6412 78.2636 39.014 78.3545 39.3867 78.4727C39.4412 78.4909 39.4412 78.5 39.3867 78.5182C39.3049 78.5364 39.2231 78.5455 39.1321 78.5545H39.123L39.114 78.5818C39.114 78.5909 39.114 78.6 39.1321 78.6C40.0321 78.6455 40.7867 78.6545 41.3958 78.6182C41.9867 78.5818 42.5594 78.5364 43.1049 78.5C43.614 78.4545 44.1867 78.3818 44.8049 78.2545C46.0776 78.0091 47.2958 77.7545 48.4776 77.5C48.8503 77.4182 49.5503 77.2273 50.5685 76.9364C51.0685 76.7909 51.6412 76.7 52.1594 76.5273C52.4321 76.4364 52.7049 76.3364 52.9867 76.2727C53.4685 76.1545 53.9503 75.9909 54.423 75.7727C54.4503 75.7636 54.4594 75.7727 54.4594 75.8C54.4594 75.8182 54.4412 75.8364 54.423 75.8455C53.723 76.2818 53.0049 76.6909 52.2594 77.0727C52.0503 77.1818 51.8594 77.3 51.6685 77.4273C51.6503 77.4455 51.6412 77.4636 51.6594 77.4909L51.6776 77.5091H51.6867C51.9321 77.3545 52.2321 77.1909 52.5958 77.0273C54.0139 76.3818 55.1594 75.9091 56.0412 75.6182C56.714 75.3909 57.3594 75.1818 57.9776 74.9636C58.6867 74.7182 59.2958 74.5364 59.8049 74.4091C60.7685 74.1727 61.6685 74.0364 62.4958 74.0091C63.1867 73.9818 63.8503 74.1 64.4867 74.3545C64.6503 74.4273 64.8139 74.5545 64.9867 74.7455Z" fill="#302E31"/>
<path d="M66.277 75.4454C66.3134 75.5182 66.3498 75.5636 66.3861 75.5727C64.6498 76.9182 62.7316 78.1273 60.6316 79.1909C58.7952 80.1182 56.9861 80.8727 55.2134 81.4363C53.277 82.0545 51.2952 82.5273 49.2679 82.8454C49.2225 82.8545 49.2043 82.8363 49.2316 82.7909C49.2407 82.7818 49.2407 82.7727 49.2498 82.7636C50.3043 81.9909 51.3861 81.2091 52.5043 80.4182C54.4225 79.0636 56.5225 77.9454 58.6043 77.2454C59.4588 76.9545 60.3134 76.6727 61.1497 76.4C61.6497 76.2363 62.1588 76.1091 62.677 76.0273C63.1952 75.9545 63.6952 75.8636 64.1952 75.7727C64.6952 75.6727 65.3225 75.5909 66.077 75.5091C66.1134 75.5091 66.1861 75.4909 66.277 75.4454Z" fill="#302E31"/>
</g>
<defs>
<clipPath id="clip0_2209_1241">
<rect width="86" height="86" fill="white"/>
</clipPath>
</defs>
</svg>
