<svg width="32" height="32" viewBox="0 0 32 32" fill="none" xmlns="http://www.w3.org/2000/svg">
<path d="M4 7.5C4 7.10218 4.15804 6.72064 4.43934 6.43934C4.72064 6.15804 5.10218 6 5.5 6H26.5C26.8978 6 27.2794 6.15804 27.5607 6.43934C27.842 6.72064 28 7.10218 28 7.5C28 7.89782 27.842 8.27936 27.5607 8.56066C27.2794 8.84196 26.8978 9 26.5 9H5.5C5.10218 9 4.72064 8.84196 4.43934 8.56066C4.15804 8.27936 4 7.89782 4 7.5ZM4 15.5C4 15.1022 4.15804 14.7206 4.43934 14.4393C4.72064 14.158 5.10218 14 5.5 14H26.5C26.8978 14 27.2794 14.158 27.5607 14.4393C27.842 14.7206 28 15.1022 28 15.5C28 15.8978 27.842 16.2794 27.5607 16.5607C27.2794 16.842 26.8978 17 26.5 17H5.5C5.10218 17 4.72064 16.842 4.43934 16.5607C4.15804 16.2794 4 15.8978 4 15.5ZM4 23.5C4 23.1022 4.15804 22.7206 4.43934 22.4393C4.72064 22.158 5.10218 22 5.5 22H26.5C26.8978 22 27.2794 22.158 27.5607 22.4393C27.842 22.7206 28 23.1022 28 23.5C28 23.8978 27.842 24.2794 27.5607 24.5607C27.2794 24.842 26.8978 25 26.5 25H5.5C5.10218 25 4.72064 24.842 4.43934 24.5607C4.15804 24.2794 4 23.8978 4 23.5Z" fill="#42A4EB"/>
</svg>
