<svg width="24" height="24" viewBox="0 0 24 24" fill="none" xmlns="http://www.w3.org/2000/svg">
<path d="M19.2807 5.7807C19.3504 5.71101 19.4056 5.62829 19.4433 5.53724C19.4811 5.4462 19.5005 5.34862 19.5005 5.25007C19.5005 5.15152 19.4811 5.05394 19.4433 4.9629C19.4056 4.87185 19.3504 4.78913 19.2807 4.71945C19.211 4.64976 19.1283 4.59449 19.0372 4.55678C18.9462 4.51906 18.8486 4.49965 18.7501 4.49965C18.6515 4.49965 18.5539 4.51906 18.4629 4.55678C18.3718 4.59449 18.2891 4.64976 18.2194 4.71945L12.0001 10.9398L5.78068 4.71945C5.63995 4.57871 5.44907 4.49965 5.25005 4.49965C5.05103 4.49965 4.86016 4.57871 4.71943 4.71945C4.5787 4.86018 4.49963 5.05105 4.49963 5.25007C4.49963 5.44909 4.5787 5.63997 4.71943 5.7807L10.9397 12.0001L4.71943 18.2194C4.5787 18.3602 4.49963 18.551 4.49963 18.7501C4.49963 18.9491 4.5787 19.14 4.71943 19.2807C4.86016 19.4214 5.05103 19.5005 5.25005 19.5005C5.44907 19.5005 5.63995 19.4214 5.78068 19.2807L12.0001 13.0604L18.2194 19.2807C18.3602 19.4214 18.551 19.5005 18.7501 19.5005C18.9491 19.5005 19.1399 19.4214 19.2807 19.2807C19.4214 19.14 19.5005 18.9491 19.5005 18.7501C19.5005 18.551 19.4214 18.3602 19.2807 18.2194L13.0604 12.0001L19.2807 5.7807Z" fill="white"/>
</svg>
