<svg width="32" height="32" viewBox="0 0 32 32" fill="none" xmlns="http://www.w3.org/2000/svg">
<g id="Linus icons">
<path id="Vector" d="M15.9998 28C13.3998 28 11.1945 27.0947 9.38384 25.284C7.57317 23.4733 6.66739 21.2676 6.6665 18.6667C6.6665 16.9556 6.95006 15.2333 7.51717 13.5C8.08428 11.7667 8.81762 10.1947 9.71717 8.784C10.6167 7.37333 11.6221 6.22311 12.7332 5.33333C13.8443 4.44356 14.9332 3.99911 15.9998 4C17.0887 4 18.1834 4.44445 19.2838 5.33333C20.3843 6.22222 21.3843 7.37245 22.2838 8.784C23.1834 10.1956 23.9167 11.7676 24.4838 13.5C25.0509 15.2324 25.3341 16.9547 25.3332 18.6667C25.3332 21.2667 24.4278 23.4724 22.6172 25.284C20.8065 27.0956 18.6007 28.0009 15.9998 28ZM15.9998 25.3333C17.8443 25.3333 19.4167 24.6831 20.7172 23.3827C22.0176 22.0822 22.6674 20.5102 22.6665 18.6667C22.6665 17.4 22.4496 16.0667 22.0158 14.6667C21.5821 13.2667 21.0376 11.9724 20.3825 10.784C19.7274 9.59556 19.0109 8.612 18.2332 7.83333C17.4554 7.05467 16.7109 6.66578 15.9998 6.66667C15.3109 6.66667 14.5723 7.05556 13.7838 7.83333C12.9954 8.61111 12.2732 9.59467 11.6172 10.784C10.9612 11.9733 10.4167 13.2676 9.98384 14.6667C9.55095 16.0658 9.33406 17.3991 9.33317 18.6667C9.33317 20.5111 9.98339 22.0836 11.2838 23.384C12.5843 24.6844 14.1563 25.3342 15.9998 25.3333ZM17.3332 24C17.7109 24 18.0278 23.872 18.2838 23.616C18.5398 23.36 18.6674 23.0436 18.6665 22.6667C18.6656 22.2898 18.5376 21.9733 18.2825 21.7173C18.0274 21.4613 17.7109 21.3333 17.3332 21.3333C16.2221 21.3333 15.2776 20.9444 14.4998 20.1667C13.7221 19.3889 13.3332 18.4444 13.3332 17.3333C13.3332 16.9556 13.2052 16.6391 12.9492 16.384C12.6932 16.1289 12.3767 16.0009 11.9998 16C11.6229 15.9991 11.3065 16.1271 11.0505 16.384C10.7945 16.6409 10.6665 16.9573 10.6665 17.3333C10.6665 19.1778 11.3167 20.7502 12.6172 22.0507C13.9176 23.3511 15.4896 24.0009 17.3332 24Z" fill="white"/>
</g>
</svg>
