<svg width="92" height="92" viewBox="0 0 92 92" fill="none" xmlns="http://www.w3.org/2000/svg">
<g id="carbon:play-outline">
<path id="Vector" d="M31.625 66.1249C30.8625 66.1249 30.1312 65.822 29.5921 65.2829C29.0529 64.7437 28.75 64.0124 28.75 63.2499V28.7499C28.7503 28.2601 28.8757 27.7784 29.1144 27.3506C29.3531 26.9228 29.6971 26.5631 30.1139 26.3056C30.5306 26.0481 31.0063 25.9014 31.4956 25.8794C31.985 25.8573 32.4719 25.9607 32.9101 26.1797L67.4101 43.4297C67.887 43.6687 68.288 44.0357 68.5683 44.4896C68.8485 44.9435 68.9969 45.4665 68.9969 45.9999C68.9969 46.5334 68.8485 47.0563 68.5683 47.5102C68.288 47.9642 67.887 48.3312 67.4101 48.5702L32.9101 65.8202C32.5112 66.02 32.0712 66.1244 31.625 66.1249ZM34.5 33.4017V58.5982L59.6965 45.9999L34.5 33.4017Z" fill="white"/>
<path id="Vector_2" d="M46 11.5C52.8235 11.5 59.4937 13.5234 65.1672 17.3143C70.8407 21.1052 75.2626 26.4934 77.8738 32.7974C80.4851 39.1015 81.1683 46.0383 79.8371 52.7306C78.5059 59.423 75.2201 65.5703 70.3952 70.3952C65.5703 75.2201 59.423 78.5059 52.7306 79.8371C46.0383 81.1683 39.1015 80.4851 32.7974 77.8738C26.4934 75.2626 21.1052 70.8407 17.3143 65.1672C13.5234 59.4937 11.5 52.8235 11.5 46C11.5 36.85 15.1348 28.0748 21.6048 21.6048C28.0748 15.1348 36.85 11.5 46 11.5ZM46 5.75C38.0393 5.75 30.2574 8.11062 23.6383 12.5333C17.0192 16.9561 11.8603 23.2423 8.81385 30.597C5.76742 37.9517 4.97034 46.0446 6.52339 53.8524C8.07645 61.6601 11.9099 68.832 17.5389 74.461C23.168 80.0901 30.3399 83.9236 38.1476 85.4766C45.9554 87.0297 54.0483 86.2326 61.403 83.1861C68.7577 80.1397 75.0439 74.9808 79.4666 68.3617C83.8894 61.7426 86.25 53.9607 86.25 46C86.25 35.325 82.0094 25.0873 74.461 17.539C66.9127 9.99061 56.675 5.75 46 5.75Z" fill="white"/>
</g>
</svg>
