<svg width="30" height="31" viewBox="0 0 30 31" fill="none" xmlns="http://www.w3.org/2000/svg">
<path d="M15 26.75C12.5625 26.75 10.495 25.9013 8.7975 24.2038C7.1 22.5063 6.25083 20.4383 6.25 18C6.25 16.3958 6.51583 14.7813 7.0475 13.1563C7.57917 11.5313 8.26667 10.0575 9.11 8.735C9.95333 7.4125 10.8958 6.33417 11.9375 5.5C12.9792 4.66583 14 4.24917 15 4.25C16.0208 4.25 17.0471 4.66667 18.0788 5.5C19.1104 6.33333 20.0479 7.41167 20.8912 8.735C21.7346 10.0583 22.4221 11.5321 22.9538 13.1563C23.4854 14.7804 23.7508 16.395 23.75 18C23.75 20.4375 22.9012 22.5054 21.2037 24.2038C19.5062 25.9021 17.4383 26.7508 15 26.75ZM15 24.25C16.7292 24.25 18.2033 23.6404 19.4225 22.4213C20.6417 21.2021 21.2508 19.7283 21.25 18C21.25 16.8125 21.0467 15.5625 20.64 14.25C20.2333 12.9375 19.7229 11.7242 19.1087 10.61C18.4946 9.49584 17.8229 8.57375 17.0938 7.84375C16.3646 7.11375 15.6667 6.74917 15 6.75C14.3542 6.75 13.6617 7.11458 12.9225 7.84375C12.1833 8.57292 11.5063 9.495 10.8913 10.61C10.2763 11.725 9.76583 12.9383 9.36 14.25C8.95417 15.5617 8.75083 16.8117 8.75 18C8.75 19.7292 9.35958 21.2033 10.5788 22.4225C11.7979 23.6417 13.2717 24.2508 15 24.25ZM16.25 23C16.6042 23 16.9013 22.88 17.1413 22.64C17.3813 22.4 17.5008 22.1033 17.5 21.75C17.4992 21.3967 17.3792 21.1 17.14 20.86C16.9008 20.62 16.6042 20.5 16.25 20.5C15.2083 20.5 14.3229 20.1354 13.5938 19.4063C12.8646 18.6771 12.5 17.7917 12.5 16.75C12.5 16.3958 12.38 16.0992 12.14 15.86C11.9 15.6208 11.6033 15.5008 11.25 15.5C10.8967 15.4992 10.6 15.6192 10.36 15.86C10.12 16.1008 10 16.3975 10 16.75C10 18.4792 10.6096 19.9533 11.8288 21.1725C13.0479 22.3917 14.5217 23.0008 16.25 23Z" fill="black"/>
</svg>
