<svg width="233" height="57" viewBox="0 0 233 57" fill="none" xmlns="http://www.w3.org/2000/svg">
<path d="M113.179 25.0637V18.3815H119.095C119.659 18.3815 120.195 18.4349 120.705 18.5416C121.242 18.6216 121.711 18.7817 122.114 19.0218C122.516 19.2618 122.838 19.5953 123.08 20.0221C123.321 20.4489 123.442 20.9957 123.442 21.6626C123.442 22.863 123.08 23.7299 122.355 24.2634C121.631 24.7969 120.705 25.0637 119.578 25.0637H113.179ZM106.859 13.5V42.0691H120.786C122.074 42.0691 123.321 41.909 124.529 41.5889C125.763 41.2688 126.85 40.7753 127.789 40.1084C128.755 39.4416 129.52 38.588 130.083 37.5476C130.647 36.4806 130.929 35.2269 130.929 33.7864C130.929 31.9992 130.486 30.4787 129.6 29.225C128.742 27.9446 127.427 27.051 125.656 26.5441C126.944 25.9306 127.91 25.1437 128.554 24.1834C129.225 23.2231 129.56 22.0227 129.56 20.5822C129.56 19.2485 129.332 18.1281 128.876 17.2212C128.447 16.3142 127.829 15.594 127.024 15.0605C126.219 14.5003 125.253 14.1002 124.126 13.8601C122.999 13.62 121.752 13.5 120.383 13.5H106.859ZM113.179 37.1875V29.345H120.061C121.43 29.345 122.53 29.6651 123.362 30.3053C124.193 30.9189 124.609 31.9592 124.609 33.4263C124.609 34.1732 124.475 34.7868 124.207 35.2669C123.965 35.7471 123.63 36.1338 123.201 36.4273C122.771 36.694 122.275 36.8941 121.711 37.0275C121.148 37.1342 120.558 37.1875 119.94 37.1875H113.179Z" fill="black"/>
<path d="M134.193 21.3825V42.0691H139.908V32.7461C139.908 31.8125 140.002 30.9455 140.19 30.1453C140.378 29.345 140.686 28.6515 141.116 28.0646C141.572 27.4511 142.162 26.9709 142.887 26.6242C143.611 26.2774 144.497 26.104 145.543 26.104C145.892 26.104 146.254 26.1307 146.63 26.184C147.006 26.2107 147.328 26.2507 147.596 26.3041V21.0224C147.14 20.889 146.724 20.8223 146.348 20.8223C145.624 20.8223 144.926 20.929 144.255 21.1424C143.584 21.3558 142.954 21.6626 142.364 22.0627C141.773 22.4362 141.25 22.903 140.794 23.4632C140.338 23.9967 139.975 24.5835 139.707 25.2237H139.627V21.3825H134.193Z" fill="black"/>
<path d="M155.312 18.1815V13.5H149.596V18.1815H155.312ZM149.596 21.3825V42.0691H155.312V21.3825H149.596Z" fill="black"/>
<path d="M174.18 31.6658C174.18 32.5194 174.1 33.3463 173.939 34.1465C173.778 34.9468 173.509 35.667 173.134 36.3072C172.758 36.9208 172.248 37.4143 171.604 37.7877C170.987 38.1612 170.209 38.3479 169.27 38.3479C168.384 38.3479 167.619 38.1612 166.975 37.7877C166.358 37.3876 165.835 36.8808 165.406 36.2672C165.003 35.627 164.708 34.9068 164.52 34.1065C164.332 33.3063 164.239 32.506 164.239 31.7058C164.239 30.8522 164.319 30.0386 164.48 29.265C164.668 28.4647 164.95 27.7579 165.325 27.1443C165.728 26.5308 166.251 26.0373 166.895 25.6639C167.539 25.2904 168.331 25.1037 169.27 25.1037C170.209 25.1037 170.987 25.2904 171.604 25.6639C172.221 26.0373 172.718 26.5308 173.093 27.1443C173.496 27.7312 173.778 28.4247 173.939 29.225C174.1 29.9986 174.18 30.8122 174.18 31.6658ZM174.261 39.4282V42.0691H179.694V13.5H173.979V23.9033H173.898C173.254 22.8896 172.369 22.1294 171.242 21.6226C170.142 21.0891 168.975 20.8223 167.74 20.8223C166.211 20.8223 164.869 21.1291 163.715 21.7426C162.561 22.3295 161.595 23.1164 160.817 24.1034C160.066 25.0903 159.489 26.2374 159.087 27.5445C158.711 28.8249 158.523 30.1586 158.523 31.5457C158.523 32.9862 158.711 34.3733 159.087 35.707C159.489 37.0408 160.066 38.2278 160.817 39.2682C161.595 40.2818 162.575 41.0954 163.756 41.7089C164.936 42.2958 166.305 42.5892 167.861 42.5892C169.229 42.5892 170.45 42.3491 171.524 41.869C172.624 41.3622 173.509 40.5486 174.18 39.4282H174.261Z" fill="black"/>
<path d="M193.313 37.1875C192.427 37.1875 191.689 37.0008 191.099 36.6273C190.509 36.2539 190.026 35.7737 189.65 35.1869C189.301 34.6 189.046 33.9465 188.885 33.2263C188.751 32.4794 188.684 31.7324 188.684 30.9855C188.684 30.212 188.765 29.4784 188.926 28.7848C189.114 28.0646 189.395 27.4378 189.771 26.9043C190.173 26.3441 190.656 25.9039 191.22 25.5838C191.81 25.2637 192.508 25.1037 193.313 25.1037C194.252 25.1037 195.03 25.2771 195.647 25.6238C196.265 25.9706 196.761 26.4374 197.137 27.0243C197.512 27.6111 197.781 28.2914 197.942 29.0649C198.103 29.8118 198.183 30.6121 198.183 31.4657C198.183 32.2126 198.076 32.9328 197.861 33.6264C197.673 34.2933 197.378 34.8935 196.976 35.427C196.573 35.9605 196.063 36.3873 195.446 36.7074C194.829 37.0275 194.118 37.1875 193.313 37.1875ZM203.617 40.7486V21.3825H198.183V24.1434H198.103C197.405 22.943 196.533 22.0894 195.486 21.5826C194.467 21.0757 193.273 20.8223 191.904 20.8223C190.455 20.8223 189.167 21.1024 188.04 21.6626C186.94 22.2228 186.014 22.983 185.263 23.9433C184.512 24.8769 183.935 25.9706 183.532 27.2244C183.157 28.4514 182.969 29.7318 182.969 31.0656C182.969 32.4794 183.13 33.8264 183.452 35.1069C183.801 36.3606 184.337 37.4676 185.062 38.4279C185.786 39.3615 186.712 40.1084 187.839 40.6686C188.966 41.2021 190.308 41.4689 191.864 41.4689C193.125 41.4689 194.319 41.2155 195.446 40.7086C196.6 40.1751 197.485 39.3615 198.103 38.2679H198.183V40.9887C198.21 42.4558 197.848 43.6696 197.096 44.6299C196.372 45.5902 195.205 46.0703 193.595 46.0703C192.575 46.0703 191.676 45.8569 190.898 45.4301C190.12 45.03 189.596 44.2964 189.328 43.2294H183.653C183.733 44.4031 184.055 45.4035 184.619 46.2304C185.209 47.084 185.934 47.7775 186.792 48.311C187.678 48.8445 188.644 49.2313 189.69 49.4714C190.764 49.7382 191.81 49.8715 192.83 49.8715C195.218 49.8715 197.123 49.5514 198.545 48.9112C199.967 48.271 201.054 47.4841 201.806 46.5505C202.557 45.6435 203.04 44.6565 203.255 43.5895C203.496 42.5225 203.617 41.5756 203.617 40.7486Z" fill="black"/>
<path d="M221.824 29.5051H212.526C212.553 29.105 212.633 28.6515 212.768 28.1446C212.929 27.6378 213.184 27.1577 213.532 26.7042C213.908 26.2507 214.391 25.8773 214.981 25.5838C215.598 25.2637 216.363 25.1037 217.276 25.1037C218.671 25.1037 219.704 25.4771 220.375 26.224C221.072 26.9709 221.555 28.0646 221.824 29.5051ZM212.526 33.1062H227.539C227.647 31.5057 227.512 29.9719 227.137 28.5048C226.761 27.0376 226.144 25.7305 225.285 24.5835C224.453 23.4365 223.38 22.5295 222.065 21.8627C220.75 21.1691 219.208 20.8223 217.437 20.8223C215.853 20.8223 214.404 21.1024 213.09 21.6626C211.802 22.2228 210.688 22.9963 209.749 23.9833C208.81 24.9436 208.085 26.0907 207.575 27.4244C207.066 28.7582 206.811 30.1986 206.811 31.7458C206.811 33.3463 207.052 34.8134 207.535 36.1472C208.045 37.4809 208.756 38.628 209.668 39.5883C210.581 40.5486 211.694 41.2955 213.009 41.829C214.324 42.3358 215.8 42.5892 217.437 42.5892C219.798 42.5892 221.81 42.0557 223.474 40.9887C225.138 39.9217 226.372 38.1478 227.177 35.667H222.146C221.958 36.3072 221.448 36.9208 220.616 37.5076C219.784 38.0678 218.792 38.3479 217.638 38.3479C216.028 38.3479 214.794 37.9344 213.935 37.1075C213.076 36.2806 212.607 34.9468 212.526 33.1062Z" fill="black"/>
<path d="M74.2879 31.6658C74.2879 32.5194 74.2074 33.3463 74.0464 34.1465C73.8855 34.9468 73.6171 35.667 73.2415 36.3072C72.8658 36.9208 72.356 37.4142 71.712 37.7877C71.0948 38.1612 70.3167 38.3479 69.3775 38.3479C68.492 38.3479 67.7273 38.1612 67.0833 37.7877C66.4661 37.3876 65.9429 36.8807 65.5135 36.2672C65.1111 35.627 64.8159 34.9068 64.6281 34.1065C64.4402 33.3063 64.3463 32.506 64.3463 31.7058C64.3463 30.8522 64.4268 30.0386 64.5878 29.265C64.7756 28.4647 65.0574 27.7579 65.4331 27.1443C65.8355 26.5308 66.3588 26.0373 67.0028 25.6639C67.6468 25.2904 68.4383 25.1037 69.3775 25.1037C70.3167 25.1037 71.0948 25.2904 71.712 25.6639C72.3291 26.0373 72.8255 26.5308 73.2012 27.1443C73.6037 27.7312 73.8855 28.4247 74.0464 29.225C74.2074 29.9986 74.2879 30.8122 74.2879 31.6658ZM74.3684 39.4282V42.0691H79.8021V13.5H74.0867V23.9033H74.0062C73.3622 22.8896 72.4767 22.1294 71.3497 21.6226C70.2496 21.0891 69.0823 20.8223 67.848 20.8223C66.3185 20.8223 64.9769 21.1291 63.8231 21.7426C62.6693 22.3295 61.7033 23.1164 60.9251 24.1034C60.1738 25.0903 59.5969 26.2374 59.1944 27.5445C58.8187 28.8249 58.6309 30.1586 58.6309 31.5457C58.6309 32.9862 58.8187 34.3733 59.1944 35.707C59.5969 37.0408 60.1738 38.2278 60.9251 39.2682C61.7033 40.2818 62.6827 41.0954 63.8633 41.7089C65.044 42.2958 66.4125 42.5892 67.9688 42.5892C69.3373 42.5892 70.5582 42.3491 71.6315 41.869C72.7316 41.3622 73.6171 40.5486 74.2879 39.4282H74.3684Z" fill="black"/>
<path d="M97.726 29.5051H88.4283C88.4552 29.1049 88.5357 28.6515 88.6698 28.1446C88.8308 27.6378 89.0857 27.1577 89.4346 26.7042C89.8102 26.2507 90.2932 25.8773 90.8836 25.5838C91.5007 25.2637 92.2655 25.1037 93.1778 25.1037C94.5731 25.1037 95.6062 25.4771 96.277 26.224C96.9746 26.9709 97.4576 28.0646 97.726 29.5051ZM88.4283 33.1062H103.442C103.549 31.5057 103.415 29.9719 103.039 28.5048C102.664 27.0376 102.046 25.7305 101.188 24.5835C100.356 23.4365 99.2823 22.5295 97.9675 21.8627C96.6526 21.1691 95.1098 20.8223 93.3388 20.8223C91.7556 20.8223 90.3066 21.1024 88.9918 21.6626C87.7038 22.2228 86.5903 22.9963 85.6511 23.9833C84.712 24.9436 83.9875 26.0907 83.4776 27.4244C82.9678 28.7582 82.7129 30.1986 82.7129 31.7458C82.7129 33.3463 82.9544 34.8134 83.4374 36.1472C83.9472 37.4809 84.6583 38.628 85.5706 39.5883C86.4829 40.5486 87.5965 41.2955 88.9113 41.829C90.2261 42.3358 91.702 42.5892 93.3388 42.5892C95.7001 42.5892 97.7126 42.0557 99.3762 40.9887C101.04 39.9217 102.275 38.1478 103.08 35.667H98.048C97.8601 36.3072 97.3503 36.9208 96.5185 37.5076C95.6867 38.0678 94.6938 38.3479 93.54 38.3479C91.93 38.3479 90.6957 37.9344 89.8371 37.1075C88.9784 36.2806 88.5088 34.9468 88.4283 33.1062Z" fill="black"/>
<path d="M44.5599 42.4998H38.9528H35.9077C34.0471 42.4998 33.2684 40.9683 33.1116 40.2025C32.9754 39.5457 32.7819 38.9109 32.5364 38.3034C32.1219 36.9923 32.827 36.2765 33.2313 36.0825L36.6964 34.0791C37.174 34.8762 37.559 35.7428 37.8782 36.6385C38.0615 37.134 38.7452 38.0518 40.0132 37.759L43.8077 36.7491C44.2864 38.5975 44.5599 40.5144 44.5599 42.4998Z" fill="black"/>
<path fill-rule="evenodd" clip-rule="evenodd" d="M37.9955 26.6853C35.2603 23.9469 31.8414 21.8931 27.9438 20.8662L26.5078 26.2745C29.3797 27.0276 31.9781 28.6022 34.0295 30.656L37.9955 26.6853Z" fill="black"/>
<path d="M7.63484 34.011C6.19889 36.544 5.37833 39.4194 5.37833 42.5001H2.82928C2.28361 42.5001 1.45212 42.3101 0.646604 41.4516C0.00219601 40.7648 -0.039981 39.6739 0.0194816 39.2143C0.34852 37.04 0.991392 34.9658 1.86786 33.0263C2.11038 32.4601 2.9592 31.4918 4.41432 32.1491L7.63484 34.011Z" fill="black"/>
<path d="M44.5608 42.5002C44.5608 40.5148 44.2873 38.5979 43.8086 36.7495L47.3416 35.8093C47.9715 35.6435 49.3177 35.7023 49.6636 37.2632C49.794 37.9378 49.9005 38.6245 49.9815 39.3184C50.0456 39.7173 49.9868 40.7284 49.2384 41.5817C48.4901 42.435 47.4195 42.5002 47.1337 42.5002H44.5608Z" fill="black"/>
<path d="M34.0293 30.6562L40.6304 24.0471C41.0914 23.6135 42.2757 23.0325 43.3256 24.1771C44.0858 25.0513 44.795 25.9767 45.4455 26.9608C45.7189 27.5121 45.9714 28.785 44.7939 29.4658L36.696 34.1476C35.9439 32.8469 35.0549 31.6831 34.0293 30.6562Z" fill="black"/>
<path d="M33.4142 23.126C30.1321 21.2091 26.3028 20.1138 22.2001 20.1138C20.7932 20.1138 19.4207 20.2516 18.0826 20.5028C16.8977 20.7265 16.225 19.7853 16.0368 19.2868L15.498 17.2576C15.3721 16.6405 15.4634 15.3313 16.8353 15.0312C18.5687 14.6862 20.3844 14.5 22.2001 14.5C26.5704 14.5 30.7367 15.5214 34.4786 17.3436C35.0156 17.5964 35.9337 18.4494 35.3101 19.839L33.4142 23.126Z" fill="black"/>
<path d="M22.1317 25.7275C23.6361 25.7275 25.1404 25.9329 26.508 26.2752L25.5108 30.031C25.3819 30.5216 24.8021 31.4725 23.5132 31.3522C23.0887 31.2992 22.651 31.2728 22.2001 31.2728C16.7625 31.2728 12.2648 35.1414 11.2167 40.229C11.1321 40.5845 10.8174 41.4049 10.2353 41.8419C9.50776 42.3883 8.91012 42.5003 8.4424 42.5003H5.37891C5.37891 33.1897 12.9006 25.7275 22.1317 25.7275Z" fill="black"/>
</svg>
