<svg width="201" height="59" viewBox="0 0 201 59" fill="none" xmlns="http://www.w3.org/2000/svg">
<path d="M171.764 33.155H179.073V22.1849H200.999V18.5283C200.999 16.6999 199.172 14.8716 197.345 14.8716H175.418C173.591 14.8716 171.764 16.6999 171.764 18.5283V33.155Z" fill="black"/>
<path d="M179.073 44.1254H175.418C173.591 44.1254 171.764 42.297 171.764 40.4687V36.812H179.073V44.1254Z" fill="black"/>
<path d="M144.356 36.8117V31.9362H162.629V27.0606H144.356V22.1849H166.283V18.5283C166.283 16.6999 164.456 14.8716 162.629 14.8716H140.701C138.874 14.8716 137.047 16.6999 137.047 18.5283V40.4684C137.047 42.2967 138.874 44.1251 140.701 44.1251H162.629C164.456 44.1251 166.283 42.2967 166.283 40.4684V36.8117H144.356Z" fill="black"/>
<path d="M104.156 36.812H111.465V44.1254H107.811C105.984 44.1254 104.156 42.297 104.156 40.4687V36.812Z" fill="black"/>
<path fill-rule="evenodd" clip-rule="evenodd" d="M107.811 14.8716C105.984 14.8716 104.156 16.6999 104.156 18.5283V36.8117H122.429C129.738 36.8117 133.393 31.3266 133.393 25.8416C133.393 20.3566 129.738 14.8716 122.429 14.8716H107.811ZM122.429 22.1849H111.465V29.4983H122.429C125.17 29.4983 126.084 27.188 126.084 25.8416C126.084 24.4952 125.17 22.1849 122.429 22.1849Z" fill="black"/>
<path d="M98.6739 18.5283C98.6739 16.6999 96.8466 14.8716 95.0193 14.8716H73.092C71.2648 14.8716 69.4375 16.6999 69.4375 18.5283V40.4684C69.4375 42.2967 71.2648 44.1251 73.092 44.1251H76.7466V22.1849H81.3148V44.1251H86.7966V22.1849H91.3648V44.1251H95.0193C96.8466 44.1251 98.6739 42.2967 98.6739 40.4684C98.6739 38.64 98.6739 18.5283 98.6739 18.5283Z" fill="black"/>
<path d="M34.7188 18.5281C34.7188 16.6998 36.5455 14.8714 38.3727 14.8726H42.0278V36.8126H56.646V14.8726H60.3C62.1273 14.8726 63.9551 16.6998 63.9551 18.5281V40.4682C63.9551 42.2966 62.1273 44.126 60.3 44.126H38.3727C36.5455 44.126 34.7188 42.2966 34.7188 40.4682V18.5281Z" fill="black"/>
<path d="M21.9355 14.8726H25.5828C27.4101 14.8726 29.2373 16.6998 29.2373 18.5281L29.2446 22.1859H21.9355V14.8726Z" fill="black"/>
<path d="M29.2437 25.8423H21.9346V36.8135H0.00736084L0 40.469C0 42.2974 1.82728 44.1268 3.65455 44.1268H25.5818C27.4091 44.1268 29.2437 42.2974 29.2364 40.469L29.2437 25.8423Z" fill="black"/>
</svg>
