<svg width="215" height="45" viewBox="0 0 215 45" fill="none" xmlns="http://www.w3.org/2000/svg">
<path d="M30.2517 35.211H25.6934V13.0293H30.2517V35.211Z" fill="black"/>
<path d="M46.7222 12.5938C49.2385 12.5938 51.2942 13.4761 52.887 15.2407C54.4774 17.0053 55.275 19.2489 55.275 21.9692V35.2086H50.7167V22.6636C50.7167 20.9563 50.1667 19.5446 49.0666 18.4308C47.9666 17.317 46.6076 16.7601 44.9873 16.7601C43.1631 16.7601 41.6735 17.317 40.5161 18.4308C39.3588 19.5446 38.779 20.9563 38.779 22.6636V35.2086H34.2207V13.0292H38.779V18.7585C39.3863 16.8495 40.3924 15.3438 41.7972 14.2438C43.1998 13.1438 44.843 12.5938 46.7245 12.5938H46.7222Z" fill="black"/>
<path d="M69.486 12.5938C73.045 12.5938 75.9394 13.8679 78.167 16.4141C80.3946 18.9625 81.3067 22.0426 80.9011 25.6612H62.5396C62.8582 27.4557 63.6832 28.9109 65.0147 30.0247C66.3462 31.1385 67.9505 31.6954 69.832 31.6954C71.2781 31.6954 72.5728 31.3402 73.7164 30.632C74.8601 29.9239 75.7492 28.9613 76.3863 27.7444L80.2066 29.438C79.2235 31.3195 77.8186 32.8229 75.9967 33.9527C74.1748 35.0826 72.0756 35.6463 69.7014 35.6463C66.3738 35.6463 63.58 34.5463 61.3228 32.3485C59.0654 30.1507 57.9355 27.4144 57.9355 24.1441C57.9355 20.8738 59.0424 18.1329 61.2562 15.9168C63.47 13.7029 66.211 12.596 69.4836 12.596L69.486 12.5938ZM69.486 16.5447C67.8061 16.5447 66.353 17.058 65.1224 18.087C63.8917 19.1137 63.0736 20.4521 62.6702 22.1022H76.3015C75.9256 20.4521 75.1212 19.1137 73.8929 18.087C72.6622 17.0603 71.1933 16.5447 69.486 16.5447Z" fill="black"/>
<path d="M93.5042 12.5938C96.1672 12.5938 98.3375 13.2881 100.015 14.6769C101.693 16.0657 102.534 18.0641 102.534 20.6675V35.2109H97.9754V29.3074C96.6141 33.5334 93.88 35.6463 89.7709 35.6463C87.8596 35.6463 86.2692 35.0757 84.995 33.9321C83.7207 32.7885 83.0859 31.292 83.0859 29.4403C83.0859 27.27 83.8514 25.6406 85.3868 24.5566C86.92 23.4726 88.8749 22.7988 91.2468 22.5376L95.5438 22.1022C97.1641 21.9578 97.9754 21.2336 97.9754 19.9319C97.9754 18.8616 97.5629 18.0068 96.7378 17.372C95.9128 16.7349 94.8357 16.4164 93.5042 16.4164C92.1727 16.4164 90.9924 16.7647 90.0528 17.4591C89.1132 18.1535 88.5128 19.1664 88.2515 20.4979L83.7368 19.4117C84.1424 17.3285 85.2264 15.6715 86.9934 14.4409C88.758 13.2125 90.9283 12.596 93.5042 12.596V12.5938ZM91.2468 31.9544C93.1283 31.9544 94.7188 31.3241 96.0205 30.066C97.3222 28.8078 97.9731 27.3388 97.9731 25.6589V24.4443C97.627 25.0241 96.786 25.3839 95.4545 25.5283L91.2445 26.0485C90.1445 26.1952 89.2691 26.5183 88.6182 27.0248C87.9673 27.5313 87.6419 28.2188 87.6419 29.0874C87.6419 29.956 87.9673 30.6503 88.6182 31.1706C89.2691 31.6908 90.1445 31.9521 91.2445 31.9521L91.2468 31.9544Z" fill="black"/>
<path d="M22.5542 35.211H1.5V13.0293H6.31724V30.914H22.5542V35.211Z" fill="black"/>
<path d="M106.83 12.594C109.203 12.594 111.127 10.6702 111.127 8.29702C111.127 5.92384 109.203 4 106.83 4C104.457 4 102.533 5.92384 102.533 8.29702C102.533 10.6702 104.457 12.594 106.83 12.594Z" fill="black"/>
<path d="M133.919 23.6845C135.608 23.8322 136.958 24.3915 137.971 25.3623C139.006 26.3119 139.523 27.536 139.523 29.0344C139.523 30.6805 138.921 32.0628 137.718 33.1813C136.536 34.2998 135.017 34.8591 133.16 34.8591H123.346V12.6998H132.21C134.067 12.6998 135.587 13.2591 136.769 14.3776C137.971 15.4961 138.573 16.8784 138.573 18.5245C138.573 19.8752 138.151 21.0043 137.307 21.9117C136.484 22.8192 135.355 23.4101 133.919 23.6845ZM132.052 14.8841H125.784V22.7031H132.052C133.276 22.7031 134.278 22.3338 135.059 21.5952C135.84 20.8354 136.23 19.8963 136.23 18.7778C136.23 17.6804 135.84 16.7623 135.059 16.0237C134.278 15.2639 133.276 14.8841 132.052 14.8841ZM125.784 32.6748H132.875C134.078 32.6748 135.07 32.295 135.851 31.5352C136.631 30.7755 137.022 29.8469 137.022 28.7495C137.022 27.6309 136.631 26.7024 135.851 25.9637C135.07 25.2251 134.078 24.8558 132.875 24.8558H125.784V32.6748ZM144.78 18.8411V23.1463C145.328 21.3103 146.173 20.0335 147.312 19.3159C148.473 18.5984 149.803 18.3768 151.301 18.6512V20.9621C149.507 20.5611 147.966 20.8354 146.679 21.7851C145.413 22.7137 144.78 24.0221 144.78 25.7105V34.8591H142.406V18.8411H144.78ZM152.986 14.0927C152.986 13.6495 153.134 13.2802 153.429 12.9847C153.725 12.6893 154.094 12.5416 154.537 12.5416C154.959 12.5416 155.318 12.6893 155.614 12.9847C155.93 13.2802 156.088 13.6495 156.088 14.0927C156.088 14.5147 155.93 14.8735 155.614 15.169C155.318 15.4644 154.959 15.6122 154.537 15.6122C154.094 15.6122 153.725 15.4644 153.429 15.169C153.134 14.8735 152.986 14.5147 152.986 14.0927ZM155.709 34.8591H153.334V18.8411H155.709V34.8591ZM172.902 23.4945V11.4336H175.276V34.8591H172.902V30.2056C172.353 31.7251 171.477 32.9386 170.274 33.8461C169.071 34.7325 167.679 35.1757 166.096 35.1757C163.922 35.1757 162.107 34.3843 160.651 32.8015C159.216 31.2186 158.498 29.2349 158.498 26.8501C158.498 24.4864 159.216 22.5132 160.651 20.9304C162.107 19.3265 163.922 18.5245 166.096 18.5245C167.679 18.5245 169.071 18.9783 170.274 19.8857C171.477 20.7721 172.353 21.975 172.902 23.4945ZM166.761 32.9597C168.533 32.9597 170 32.3794 171.161 31.2186C172.321 30.0579 172.902 28.6017 172.902 26.8501C172.902 25.0985 172.321 23.6423 171.161 22.4815C170 21.3208 168.533 20.7405 166.761 20.7405C165.135 20.7405 163.753 21.3314 162.614 22.5132C161.495 23.6739 160.936 25.1196 160.936 26.8501C160.936 28.5806 161.495 30.0368 162.614 31.2186C163.753 32.3794 165.135 32.9597 166.761 32.9597ZM192.456 23.4312V18.8411H194.83V33.1813C194.83 35.545 194.017 37.5182 192.392 39.101C190.788 40.7049 188.794 41.5069 186.409 41.5069C184.7 41.5069 183.18 41.0743 181.851 40.209C180.521 39.3648 179.519 38.2358 178.844 36.8218L180.996 35.8088C181.503 36.8851 182.231 37.7398 183.18 38.3729C184.13 39.0061 185.206 39.3226 186.409 39.3226C188.119 39.3226 189.554 38.7317 190.715 37.5499C191.875 36.3891 192.456 34.933 192.456 33.1813V30.079C191.907 31.5774 191.031 32.7698 189.828 33.6562C188.625 34.5425 187.232 34.9857 185.65 34.9857C183.476 34.9857 181.661 34.2049 180.205 32.6432C178.77 31.0604 178.052 29.0977 178.052 26.7551C178.052 24.4126 178.77 22.4604 180.205 20.8987C181.661 19.3159 183.476 18.5245 185.65 18.5245C187.232 18.5245 188.625 18.9677 189.828 19.8541C191.031 20.7405 191.907 21.9328 192.456 23.4312ZM186.346 32.8015C188.119 32.8015 189.575 32.2316 190.715 31.092C191.875 29.9313 192.456 28.4857 192.456 26.7551C192.456 25.0457 191.875 23.6212 190.715 22.4815C189.575 21.3208 188.119 20.7405 186.346 20.7405C184.7 20.7405 183.307 21.3208 182.167 22.4815C181.049 23.6212 180.49 25.0457 180.49 26.7551C180.49 28.4646 181.049 29.8996 182.167 31.0604C183.307 32.2211 184.7 32.8015 186.346 32.8015ZM205.868 18.5245C208.337 18.5245 210.363 19.4003 211.946 21.152C213.55 22.8825 214.257 25.0246 214.067 27.5782H199.98C200.149 29.1821 200.793 30.5011 201.911 31.5352C203.051 32.5482 204.433 33.0547 206.058 33.0547C207.303 33.0547 208.411 32.7487 209.382 32.1367C210.353 31.5247 211.091 30.691 211.598 29.6358L213.624 30.4906C212.949 31.9045 211.946 33.0441 210.617 33.9094C209.287 34.7536 207.757 35.1757 206.027 35.1757C203.642 35.1757 201.637 34.3843 200.012 32.8015C198.408 31.1975 197.606 29.2138 197.606 26.8501C197.606 24.4864 198.397 22.5132 199.98 20.9304C201.563 19.3265 203.526 18.5245 205.868 18.5245ZM205.868 20.6455C204.412 20.6455 203.146 21.1098 202.069 22.0384C200.993 22.9669 200.318 24.1593 200.043 25.6155H211.661C211.429 24.1804 210.775 22.9986 209.699 22.07C208.643 21.1203 207.367 20.6455 205.868 20.6455Z" fill="black"/>
</svg>
