<svg width="242" height="45" viewBox="0 0 242 45" fill="none" xmlns="http://www.w3.org/2000/svg">
<mask id="path-1-outside-1_4524_670" maskUnits="userSpaceOnUse" x="0.5" y="-0.296387" width="47" height="46" fill="black">
<rect fill="white" x="0.5" y="-0.296387" width="47" height="46"/>
<path d="M17.3343 2.88232H16.2647L15.5135 3.67524V4.7436L15.5245 4.7552L15.3465 4.9777L14.2448 5.10292L11.5823 8.48319L11.7075 9.58492L11.3987 9.96052L11.4399 10.3355L10.6559 11.0947L10.5891 17.3962L11.3653 18.1891L11.3403 18.6816L11.6269 18.9731L11.5073 20.0177L14.1447 23.3897L15.2381 23.5149L15.4802 23.7903L15.502 23.7929L15.4885 23.8071V24.8671L16.2397 25.66H16.2718L16.2563 25.676V26.0516L15.622 26.6943L15.4884 26.8362V32.3531L15.1462 32.6786H9.62927L9.29542 32.3531V31.2514L8.51921 30.4669H8.51483L8.53589 30.1579L9.32881 29.39L9.37053 24.4657L8.60268 23.6812L8.62888 23.3469L9.33725 22.6386V21.5786L8.54436 20.7856H7.46987L7.31742 20.6601L7.18388 19.5584L3.27778 16.562L2.19274 16.7039L1.5 17.5469L1.63355 18.6403L5.53964 21.67L6.64137 21.5281L6.69223 21.569L6.68311 21.5786V22.6386L7.44263 23.4314H7.51392L7.50931 23.6394L6.71639 24.4073L6.65796 29.3483L7.42584 30.1412L7.41479 30.4669H7.40913L6.65796 31.2514V32.3531L7.40913 33.1043H8.51921L8.86974 33.4632V34.5649L9.62927 35.3244H15.1462L15.9224 34.5649V33.4632L16.2813 33.1043H17.3914L18.1342 32.3531V26.8362L17.3914 26.0516L17.3664 25.6426L17.3625 25.6389L18.1343 24.8671V23.8071L17.3414 23.0142H16.2613L16.1061 22.8305L16.2397 21.7287L13.5688 18.3568L12.4755 18.2316L12.4661 18.2196L12.467 18.2059L13.26 17.438L13.3017 11.1532L12.5422 10.3686L12.545 10.2968L12.5755 10.261L13.6773 10.1358L16.3147 6.76384L16.1812 5.67882L16.3053 5.53646H17.3748L18.1677 4.7436V3.67524L18.1604 3.66798L18.51 3.36611H29.5854L29.935 3.66799L29.9277 3.67524V4.7436L30.7206 5.53646H31.7902L31.9143 5.67882L31.7891 6.76384L34.4182 10.1358L35.5199 10.261L35.5503 10.2966L35.5531 10.3686L34.7936 11.1532L34.8353 17.438L35.6282 18.2059L35.6292 18.2198L35.62 18.2316L34.5266 18.3568L31.8641 21.7287L31.9893 22.8305L31.8135 23.0387L31.789 23.0142H30.6789L29.9277 23.8071V24.8671L30.6789 25.66H30.7029L30.6789 26.0516L29.9277 26.8362V32.3531L30.6789 33.1043H31.789L32.1395 33.4632V34.5649L32.9241 35.3244H38.441L39.1922 34.5649V33.4632L39.5511 33.1043H40.6528L41.4123 32.3531V31.2514L40.6528 30.4669H40.6472L40.6362 30.1412L41.4124 29.3483L41.3456 24.4073L40.5527 23.6394V23.4314H40.6278L41.379 22.6386V21.5786L41.3735 21.5728L41.4291 21.5281L42.5224 21.67L46.4285 18.6403L46.5704 17.5469L45.8777 16.7039L44.7926 16.562L40.8865 19.5584L40.7446 20.6601L40.5967 20.7856H39.5177L38.7249 21.5786V22.6386L39.4401 23.3538L39.4594 23.6812L38.6998 24.4657L38.7416 29.39L39.5345 30.1579L39.5555 30.4669H39.5511L38.7665 31.2514V32.3531L38.441 32.6786H32.9241L32.5819 32.3531V26.8362L32.44 26.6943L31.8057 26.0516L31.814 25.676L31.7937 25.6553L32.5819 24.8671V23.8071L32.5704 23.7956L32.6153 23.7903L32.8573 23.5149L33.9507 23.3897L36.5881 20.0177L36.4685 18.973L36.755 18.6816L36.7299 18.1891L37.5061 17.3962L37.4394 11.0947L36.6556 10.3357L36.6967 9.96052L36.3879 9.58492L36.5131 8.48319L33.8506 5.10292L32.7489 4.9777L32.5709 4.7552L32.5819 4.7436V3.67524L31.8307 2.88232H30.7527L30.4117 2.60661V1.49653L29.5771 0.703613H18.51L17.6753 1.49653V2.60661L17.3343 2.88232Z"/>
<path d="M21.0389 18.5903H19.9288L19.1776 19.3832V22.1626L19.9288 22.9555H21.0389L21.8318 22.1626V19.3832L21.0389 18.5903Z"/>
<path d="M27.0566 18.6069H28.1667L28.9178 19.4082V22.1625L28.1667 22.9554H27.0566L26.2637 22.1625V19.4082L27.0566 18.6069Z"/>
<path d="M22.5161 34.7745L22.5078 34.7661L22.5161 33.6895L21.7483 32.8965L20.6382 32.8882L19.8453 33.656L19.837 34.7327L19.5114 35.0916L18.4181 35.0749L13.1599 40.2163L13.1432 41.3253L12.8011 41.6507H7.27582L6.95032 41.3252V40.2235L6.16576 39.439H5.06403L4.31287 40.2235V41.3252L5.06403 42.0764H6.16576L6.52465 42.4353V43.537L7.27582 44.2965H12.8011L13.5773 43.537V42.4353L13.919 42.0855L15.0295 42.0943L20.2877 36.9529L20.296 35.8762L20.6132 35.5257L21.6648 35.534L22.5161 34.7745Z"/>
<path d="M25.6377 34.7745L25.646 34.7661L25.6377 33.6895L26.4139 32.8965L27.5156 32.8882L28.3002 33.656L28.3169 34.7327L28.6424 35.0916L29.7358 35.0749L34.994 40.2163L35.0107 41.3253L35.3528 41.6507H40.8781L41.2036 41.3252V40.2235L41.9798 39.439H43.0899L43.8411 40.2235V41.3252L43.0899 42.0764H41.9798L41.6293 42.4353V43.537L40.8781 44.2965H35.3528L34.5766 43.537V42.4353L34.2273 42.086L33.1327 42.0943L27.8662 36.9529L27.8578 35.8762L27.5407 35.5257L26.489 35.534L25.6377 34.7745Z"/>
</mask>
<path d="M17.3343 2.88232H16.2647L15.5135 3.67524V4.7436L15.5245 4.7552L15.3465 4.9777L14.2448 5.10292L11.5823 8.48319L11.7075 9.58492L11.3987 9.96052L11.4399 10.3355L10.6559 11.0947L10.5891 17.3962L11.3653 18.1891L11.3403 18.6816L11.6269 18.9731L11.5073 20.0177L14.1447 23.3897L15.2381 23.5149L15.4802 23.7903L15.502 23.7929L15.4885 23.8071V24.8671L16.2397 25.66H16.2718L16.2563 25.676V26.0516L15.622 26.6943L15.4884 26.8362V32.3531L15.1462 32.6786H9.62927L9.29542 32.3531V31.2514L8.51921 30.4669H8.51483L8.53589 30.1579L9.32881 29.39L9.37053 24.4657L8.60268 23.6812L8.62888 23.3469L9.33725 22.6386V21.5786L8.54436 20.7856H7.46987L7.31742 20.6601L7.18388 19.5584L3.27778 16.562L2.19274 16.7039L1.5 17.5469L1.63355 18.6403L5.53964 21.67L6.64137 21.5281L6.69223 21.569L6.68311 21.5786V22.6386L7.44263 23.4314H7.51392L7.50931 23.6394L6.71639 24.4073L6.65796 29.3483L7.42584 30.1412L7.41479 30.4669H7.40913L6.65796 31.2514V32.3531L7.40913 33.1043H8.51921L8.86974 33.4632V34.5649L9.62927 35.3244H15.1462L15.9224 34.5649V33.4632L16.2813 33.1043H17.3914L18.1342 32.3531V26.8362L17.3914 26.0516L17.3664 25.6426L17.3625 25.6389L18.1343 24.8671V23.8071L17.3414 23.0142H16.2613L16.1061 22.8305L16.2397 21.7287L13.5688 18.3568L12.4755 18.2316L12.4661 18.2196L12.467 18.2059L13.26 17.438L13.3017 11.1532L12.5422 10.3686L12.545 10.2968L12.5755 10.261L13.6773 10.1358L16.3147 6.76384L16.1812 5.67882L16.3053 5.53646H17.3748L18.1677 4.7436V3.67524L18.1604 3.66798L18.51 3.36611H29.5854L29.935 3.66799L29.9277 3.67524V4.7436L30.7206 5.53646H31.7902L31.9143 5.67882L31.7891 6.76384L34.4182 10.1358L35.5199 10.261L35.5503 10.2966L35.5531 10.3686L34.7936 11.1532L34.8353 17.438L35.6282 18.2059L35.6292 18.2198L35.62 18.2316L34.5266 18.3568L31.8641 21.7287L31.9893 22.8305L31.8135 23.0387L31.789 23.0142H30.6789L29.9277 23.8071V24.8671L30.6789 25.66H30.7029L30.6789 26.0516L29.9277 26.8362V32.3531L30.6789 33.1043H31.789L32.1395 33.4632V34.5649L32.9241 35.3244H38.441L39.1922 34.5649V33.4632L39.5511 33.1043H40.6528L41.4123 32.3531V31.2514L40.6528 30.4669H40.6472L40.6362 30.1412L41.4124 29.3483L41.3456 24.4073L40.5527 23.6394V23.4314H40.6278L41.379 22.6386V21.5786L41.3735 21.5728L41.4291 21.5281L42.5224 21.67L46.4285 18.6403L46.5704 17.5469L45.8777 16.7039L44.7926 16.562L40.8865 19.5584L40.7446 20.6601L40.5967 20.7856H39.5177L38.7249 21.5786V22.6386L39.4401 23.3538L39.4594 23.6812L38.6998 24.4657L38.7416 29.39L39.5345 30.1579L39.5555 30.4669H39.5511L38.7665 31.2514V32.3531L38.441 32.6786H32.9241L32.5819 32.3531V26.8362L32.44 26.6943L31.8057 26.0516L31.814 25.676L31.7937 25.6553L32.5819 24.8671V23.8071L32.5704 23.7956L32.6153 23.7903L32.8573 23.5149L33.9507 23.3897L36.5881 20.0177L36.4685 18.973L36.755 18.6816L36.7299 18.1891L37.5061 17.3962L37.4394 11.0947L36.6556 10.3357L36.6967 9.96052L36.3879 9.58492L36.5131 8.48319L33.8506 5.10292L32.7489 4.9777L32.5709 4.7552L32.5819 4.7436V3.67524L31.8307 2.88232H30.7527L30.4117 2.60661V1.49653L29.5771 0.703613H18.51L17.6753 1.49653V2.60661L17.3343 2.88232Z" fill="black"/>
<path d="M21.0389 18.5903H19.9288L19.1776 19.3832V22.1626L19.9288 22.9555H21.0389L21.8318 22.1626V19.3832L21.0389 18.5903Z" fill="black"/>
<path d="M27.0566 18.6069H28.1667L28.9178 19.4082V22.1625L28.1667 22.9554H27.0566L26.2637 22.1625V19.4082L27.0566 18.6069Z" fill="black"/>
<path d="M22.5161 34.7745L22.5078 34.7661L22.5161 33.6895L21.7483 32.8965L20.6382 32.8882L19.8453 33.656L19.837 34.7327L19.5114 35.0916L18.4181 35.0749L13.1599 40.2163L13.1432 41.3253L12.8011 41.6507H7.27582L6.95032 41.3252V40.2235L6.16576 39.439H5.06403L4.31287 40.2235V41.3252L5.06403 42.0764H6.16576L6.52465 42.4353V43.537L7.27582 44.2965H12.8011L13.5773 43.537V42.4353L13.919 42.0855L15.0295 42.0943L20.2877 36.9529L20.296 35.8762L20.6132 35.5257L21.6648 35.534L22.5161 34.7745Z" fill="black"/>
<path d="M25.6377 34.7745L25.646 34.7661L25.6377 33.6895L26.4139 32.8965L27.5156 32.8882L28.3002 33.656L28.3169 34.7327L28.6424 35.0916L29.7358 35.0749L34.994 40.2163L35.0107 41.3253L35.3528 41.6507H40.8781L41.2036 41.3252V40.2235L41.9798 39.439H43.0899L43.8411 40.2235V41.3252L43.0899 42.0764H41.9798L41.6293 42.4353V43.537L40.8781 44.2965H35.3528L34.5766 43.537V42.4353L34.2273 42.086L33.1327 42.0943L27.8662 36.9529L27.8578 35.8762L27.5407 35.5257L26.489 35.534L25.6377 34.7745Z" fill="black"/>
<path d="M17.3343 2.88232H16.2647L15.5135 3.67524V4.7436L15.5245 4.7552L15.3465 4.9777L14.2448 5.10292L11.5823 8.48319L11.7075 9.58492L11.3987 9.96052L11.4399 10.3355L10.6559 11.0947L10.5891 17.3962L11.3653 18.1891L11.3403 18.6816L11.6269 18.9731L11.5073 20.0177L14.1447 23.3897L15.2381 23.5149L15.4802 23.7903L15.502 23.7929L15.4885 23.8071V24.8671L16.2397 25.66H16.2718L16.2563 25.676V26.0516L15.622 26.6943L15.4884 26.8362V32.3531L15.1462 32.6786H9.62927L9.29542 32.3531V31.2514L8.51921 30.4669H8.51483L8.53589 30.1579L9.32881 29.39L9.37053 24.4657L8.60268 23.6812L8.62888 23.3469L9.33725 22.6386V21.5786L8.54436 20.7856H7.46987L7.31742 20.6601L7.18388 19.5584L3.27778 16.562L2.19274 16.7039L1.5 17.5469L1.63355 18.6403L5.53964 21.67L6.64137 21.5281L6.69223 21.569L6.68311 21.5786V22.6386L7.44263 23.4314H7.51392L7.50931 23.6394L6.71639 24.4073L6.65796 29.3483L7.42584 30.1412L7.41479 30.4669H7.40913L6.65796 31.2514V32.3531L7.40913 33.1043H8.51921L8.86974 33.4632V34.5649L9.62927 35.3244H15.1462L15.9224 34.5649V33.4632L16.2813 33.1043H17.3914L18.1342 32.3531V26.8362L17.3914 26.0516L17.3664 25.6426L17.3625 25.6389L18.1343 24.8671V23.8071L17.3414 23.0142H16.2613L16.1061 22.8305L16.2397 21.7287L13.5688 18.3568L12.4755 18.2316L12.4661 18.2196L12.467 18.2059L13.26 17.438L13.3017 11.1532L12.5422 10.3686L12.545 10.2968L12.5755 10.261L13.6773 10.1358L16.3147 6.76384L16.1812 5.67882L16.3053 5.53646H17.3748L18.1677 4.7436V3.67524L18.1604 3.66798L18.51 3.36611H29.5854L29.935 3.66799L29.9277 3.67524V4.7436L30.7206 5.53646H31.7902L31.9143 5.67882L31.7891 6.76384L34.4182 10.1358L35.5199 10.261L35.5503 10.2966L35.5531 10.3686L34.7936 11.1532L34.8353 17.438L35.6282 18.2059L35.6292 18.2198L35.62 18.2316L34.5266 18.3568L31.8641 21.7287L31.9893 22.8305L31.8135 23.0387L31.789 23.0142H30.6789L29.9277 23.8071V24.8671L30.6789 25.66H30.7029L30.6789 26.0516L29.9277 26.8362V32.3531L30.6789 33.1043H31.789L32.1395 33.4632V34.5649L32.9241 35.3244H38.441L39.1922 34.5649V33.4632L39.5511 33.1043H40.6528L41.4123 32.3531V31.2514L40.6528 30.4669H40.6472L40.6362 30.1412L41.4124 29.3483L41.3456 24.4073L40.5527 23.6394V23.4314H40.6278L41.379 22.6386V21.5786L41.3735 21.5728L41.4291 21.5281L42.5224 21.67L46.4285 18.6403L46.5704 17.5469L45.8777 16.7039L44.7926 16.562L40.8865 19.5584L40.7446 20.6601L40.5967 20.7856H39.5177L38.7249 21.5786V22.6386L39.4401 23.3538L39.4594 23.6812L38.6998 24.4657L38.7416 29.39L39.5345 30.1579L39.5555 30.4669H39.5511L38.7665 31.2514V32.3531L38.441 32.6786H32.9241L32.5819 32.3531V26.8362L32.44 26.6943L31.8057 26.0516L31.814 25.676L31.7937 25.6553L32.5819 24.8671V23.8071L32.5704 23.7956L32.6153 23.7903L32.8573 23.5149L33.9507 23.3897L36.5881 20.0177L36.4685 18.973L36.755 18.6816L36.7299 18.1891L37.5061 17.3962L37.4394 11.0947L36.6556 10.3357L36.6967 9.96052L36.3879 9.58492L36.5131 8.48319L33.8506 5.10292L32.7489 4.9777L32.5709 4.7552L32.5819 4.7436V3.67524L31.8307 2.88232H30.7527L30.4117 2.60661V1.49653L29.5771 0.703613H18.51L17.6753 1.49653V2.60661L17.3343 2.88232Z" stroke="black" mask="url(#path-1-outside-1_4524_670)"/>
<path d="M21.0389 18.5903H19.9288L19.1776 19.3832V22.1626L19.9288 22.9555H21.0389L21.8318 22.1626V19.3832L21.0389 18.5903Z" stroke="black" mask="url(#path-1-outside-1_4524_670)"/>
<path d="M27.0566 18.6069H28.1667L28.9178 19.4082V22.1625L28.1667 22.9554H27.0566L26.2637 22.1625V19.4082L27.0566 18.6069Z" stroke="black" mask="url(#path-1-outside-1_4524_670)"/>
<path d="M22.5161 34.7745L22.5078 34.7661L22.5161 33.6895L21.7483 32.8965L20.6382 32.8882L19.8453 33.656L19.837 34.7327L19.5114 35.0916L18.4181 35.0749L13.1599 40.2163L13.1432 41.3253L12.8011 41.6507H7.27582L6.95032 41.3252V40.2235L6.16576 39.439H5.06403L4.31287 40.2235V41.3252L5.06403 42.0764H6.16576L6.52465 42.4353V43.537L7.27582 44.2965H12.8011L13.5773 43.537V42.4353L13.919 42.0855L15.0295 42.0943L20.2877 36.9529L20.296 35.8762L20.6132 35.5257L21.6648 35.534L22.5161 34.7745Z" stroke="black" mask="url(#path-1-outside-1_4524_670)"/>
<path d="M25.6377 34.7745L25.646 34.7661L25.6377 33.6895L26.4139 32.8965L27.5156 32.8882L28.3002 33.656L28.3169 34.7327L28.6424 35.0916L29.7358 35.0749L34.994 40.2163L35.0107 41.3253L35.3528 41.6507H40.8781L41.2036 41.3252V40.2235L41.9798 39.439H43.0899L43.8411 40.2235V41.3252L43.0899 42.0764H41.9798L41.6293 42.4353V43.537L40.8781 44.2965H35.3528L34.5766 43.537V42.4353L34.2273 42.086L33.1327 42.0943L27.8662 36.9529L27.8578 35.8762L27.5407 35.5257L26.489 35.534L25.6377 34.7745Z" stroke="black" mask="url(#path-1-outside-1_4524_670)"/>
<path d="M238.186 22.2749V23.9275L238.712 24.4032H240.364L241.499 25.5801V30.5462L240.364 31.723H238.712L238.186 32.1987V33.8513L237.051 35.0282H228.73L227.594 33.8513V32.1987L227.069 31.723H225.416L224.281 30.5462V28.8936L225.416 27.7167H227.069L228.245 28.8936V30.5462L228.721 31.0219H237.043L237.518 30.5462V25.5801L237.043 25.1043H228.721L227.586 23.9275V22.2749L227.06 21.7991H225.408L224.273 20.6223V15.6562L225.408 14.4794H227.06L227.586 14.0037V12.351L228.721 11.1742H237.043L238.178 12.351V14.0037L238.703 14.4794H240.356L241.491 15.6562V17.3088L240.356 18.4857H238.703L237.527 17.3088V15.6562L237.051 15.1805H228.73L228.254 15.6562V20.6223L228.73 21.0981H237.051L238.186 22.2749ZM211.11 3.32031H213.155L214.332 4.49713V6.50028L213.155 7.67709H211.11L209.975 6.50028V4.49713L211.11 3.32031ZM213.297 14.8216L214.123 15.6479V30.5545L213.297 31.3808L213.823 31.8565L214.649 31.0302H216.302L217.437 32.2071V33.8597L216.302 35.0365H208.022L206.845 33.8597V32.2071L208.022 31.0302H209.633L210.501 31.8565L210.977 31.3808L210.151 30.5545V15.6479L210.977 14.8216L210.501 14.3458L209.633 15.1721H208.022L206.845 13.9953V12.3427L208.022 11.1659H216.302L217.437 12.3427V13.9953L216.302 15.1721H214.649L213.823 14.3458L213.297 14.8216ZM196.679 22.2749V23.9275L197.205 24.4032H198.858L199.993 25.5801V30.5462L198.858 31.723H197.205L196.679 32.1987V33.8513L195.544 35.0282H187.223L186.088 33.8513V32.1987L185.562 31.723H183.91L182.774 30.5462V28.8936L183.91 27.7167H185.562L186.739 28.8936V30.5462L187.215 31.0219H195.536L196.012 30.5462V25.5801L195.536 25.1043H187.215L186.08 23.9275V22.2749L185.554 21.7991H183.901L182.766 20.6223V15.6562L183.901 14.4794H185.554L186.08 14.0037V12.351L187.215 11.1742H195.536L196.671 12.351V14.0037L197.197 14.4794H198.85L199.985 15.6562V17.3088L198.85 18.4857H197.197L196.02 17.3088V15.6562L195.544 15.1805H187.223L186.747 15.6562V20.6223L187.223 21.0981H195.544L196.679 22.2749ZM174.754 31.0386L175.279 30.5628V15.6562L174.754 15.1805H166.474L165.998 15.6562V30.5628L166.474 31.0386H174.754ZM165.339 33.868V32.2155L164.813 31.7397H163.16L162.025 30.5628V15.6562L163.16 14.4794H164.813L165.339 14.0037V12.351L166.474 11.1742H174.754L175.93 12.351V14.0037L176.456 14.4794H178.109L179.244 15.6562V30.5628L178.109 31.7397H176.456L175.93 32.2155V33.868L174.754 35.0448H166.474L165.339 33.868ZM148.855 3.32031H150.9L152.076 4.49713V6.50028L150.9 7.67709H148.855L147.72 6.50028V4.49713L148.855 3.32031ZM151.042 14.8216L151.868 15.6479V30.5545L151.042 31.3808L151.567 31.8565L152.394 31.0302H154.046L155.181 32.2071V33.8597L154.046 35.0365H145.767L144.59 33.8597V32.2071L145.767 31.0302H147.377L148.245 31.8565L148.721 31.3808L147.895 30.5545V15.6479L148.721 14.8216L148.245 14.3458L147.377 15.1721H145.767L144.59 13.9953V12.3427L145.767 11.1659H154.046L155.181 12.3427V13.9953L154.046 15.1721H152.394L151.567 14.3458L151.042 14.8216ZM124.141 31.8649L124.967 31.0386H133.289L133.764 30.5628V15.6562L133.289 15.1304H124.967L124.141 14.3041L123.665 14.7799L124.492 15.6479V30.5545L123.665 31.3808L124.141 31.8565V31.8649ZM133.297 35.0448H121.662L120.527 33.868V5.66564L121.662 4.5305H123.315L124.492 5.66564V10.6317L123.665 11.458L124.141 11.9838L124.967 11.1575H133.289L134.424 12.2927V13.9452L134.95 14.4711H136.602L137.737 15.6479V30.5545L136.602 31.6896H134.95L134.424 32.2155V33.868L133.289 35.0448H133.297ZM113.717 12.3427V13.9953L114.192 14.4711H115.845L117.022 15.6479V33.868L115.845 35.0448H114.192L113.015 33.868V15.6479L112.54 15.1721H110.887L110.061 14.3458L109.585 14.8216L110.411 15.6479V23.9275L109.234 25.1043H107.582L106.405 23.9275V15.6479L107.231 14.8216L106.756 14.3458L105.929 15.1721H104.277L103.45 14.3458L102.975 14.8216L103.801 15.6479V33.868L102.624 35.0448H100.972L99.7948 33.868V12.3344L100.972 11.1575H112.565L113.742 12.3344L113.717 12.3427ZM93.101 34.7027L92.6252 34.2269L91.799 35.0532H83.5193L82.3425 33.8764V32.2238L81.8167 31.7481H80.1641L79.029 30.5712V12.351L80.1641 11.1742H81.8167L82.9935 12.351V30.5712L83.5193 31.0469H91.799L92.6252 31.8732L93.101 31.3975L92.2747 30.5712V12.351L93.4515 11.1742H95.1041L96.2392 12.351V37.1982L95.1041 38.3751H93.4515L92.9257 38.8508V40.5034L91.7906 41.6802H83.511L82.3342 40.5034V38.8508L83.511 37.674H91.7906L92.2664 37.1982V35.5456L93.0926 34.7194L93.101 34.7027ZM70.9915 8.5451H62.7118L62.2361 9.02085V17.3005L62.7118 17.8263H70.9915L72.1683 18.9614V20.614L72.6941 21.1398H74.3467L75.4818 22.3166V30.5963L74.3467 31.7313H72.6941L72.1683 32.2572V33.9097L70.9915 35.0448H62.7118L61.5767 33.9097V32.2572L61.0509 31.7313H59.3983L58.2632 30.5963V28.9436L59.3983 27.7668H61.0509L62.2278 28.9436V30.5963L62.7035 31.072H70.9831L71.5089 30.5963V22.3166L70.9831 21.7908H62.7035L61.5684 20.614V18.9614L61.0425 18.4857H59.39L58.2549 17.3088V9.0292L59.39 7.85239H61.0425L61.5684 7.37664V5.72402L62.7035 4.5472H70.9831L72.1599 5.72402V7.37664L72.6857 7.85239H74.3383L75.4735 9.0292V10.6818L74.3383 11.8586H72.6857L71.5089 10.6818V9.0292L70.9831 8.55345L70.9915 8.5451Z" fill="black"/>
</svg>
