<svg width="1367" height="811" viewBox="0 0 1367 811" fill="none" xmlns="http://www.w3.org/2000/svg">
<g filter="url(#filter0_d_2219_12780)">
<mask id="mask0_2219_12780" style="mask-type:luminance" maskUnits="userSpaceOnUse" x="536" y="511" width="1246" height="1206">
<path d="M592.214 1373.42C734.502 1673.55 1103.5 1800.59 1416.39 1657.19C1729.29 1513.78 1867.59 1154.23 1725.3 854.1C1583.01 553.974 1214.01 426.928 901.122 570.335C588.229 713.741 449.926 1073.3 592.214 1373.42Z" fill="white"/>
</mask>
<g mask="url(#mask0_2219_12780)">
<path d="M592.214 1373.42C734.502 1673.55 1103.5 1800.59 1416.39 1657.19C1729.29 1513.78 1867.59 1154.23 1725.3 854.1C1583.01 553.974 1214.01 426.928 901.122 570.335C588.229 713.741 449.926 1073.3 592.214 1373.42Z" fill="#316697"/>
<g style="mix-blend-mode:multiply" opacity="0.5">
<path fill-rule="evenodd" clip-rule="evenodd" d="M1570.31 547.265C1506.61 562.272 1445.57 581.287 1417.45 603.463C1345.65 660.049 1363.61 719.364 1313.87 754.293C1264.18 789.326 1197.32 815.015 1156.02 863.096C1114.71 911.177 1123.83 937.058 1065.73 949.715C1007.63 962.372 740.902 1041.01 644.649 1080.51C548.367 1120.09 510.988 1131.99 471.121 1168.53C467.306 1172.03 463.169 1175.68 458.903 1179.2C460.642 1197.14 462.939 1215 465.903 1232.75C475.934 1225.97 487.965 1218.13 502.192 1208.24C560.279 1167.7 656.128 1117.06 704.862 1095.59C753.596 1074.12 882.903 1084.35 870.718 1116.76C858.426 1149.22 813.469 1179.49 712.295 1229.41C632.066 1269.06 549.932 1293.8 483.36 1311.23C494.289 1350.41 508.465 1388.53 526.18 1424.8C545.094 1407.94 572.813 1383.77 613.23 1349.54C719.889 1259.33 834.232 1206.54 898.601 1205.49C962.939 1204.51 967.428 1253.66 1036.01 1199.73C1104.61 1145.72 1081.33 1143.38 1151.82 1126.17C1222.3 1108.96 1266.3 1110.55 1294.25 1089.54C1322.19 1068.53 1358.93 995.46 1397.33 975.915C1435.63 956.421 1519.75 977.136 1532.07 981.888C1544.4 986.639 1509.74 1066.68 1459.62 1072.1C1409.45 1077.42 1400.97 1091.61 1367.09 1166.29C1333.21 1240.98 1293.02 1303.7 1228.41 1340.11C1163.81 1376.53 1115.86 1401.79 1108.97 1405.19C1102.09 1408.59 950.614 1484.35 882.284 1484.37C813.954 1484.39 813.088 1462.28 729.19 1497.31C689.301 1513.96 647.647 1538.09 614.809 1558.88C631.198 1577.54 648.92 1595.26 668.143 1611.83C702.147 1586.09 754.822 1553.5 790.014 1534.24C846.307 1503.36 895.781 1513.02 936.6 1545.06C974.201 1574.57 861.22 1624.23 753.829 1673.2C819.262 1711.57 896.294 1739.48 985.573 1753.83C1008.77 1757.54 1031.46 1760.29 1053.73 1762.01C1070.94 1597.59 1085.78 1510.09 1214.95 1424.94C1344.13 1339.78 1501.53 1255.89 1530.98 1227.14C1560.51 1198.42 1626.83 1176.5 1626.83 1176.5C1626.83 1176.5 1600.36 1244.29 1548.64 1300.16C1496.92 1356.03 1464.36 1333.38 1460.75 1413.56C1457.05 1493.7 1412.97 1568.34 1398.8 1640.25C1391.56 1677.2 1371.72 1705.44 1354.14 1724.18C1398.4 1708.18 1439.67 1687.88 1477.71 1664.16C1477.95 1623.17 1479.71 1568.29 1486.27 1536.9C1497.77 1482.35 1530.09 1443 1569.27 1387.4C1608.37 1331.78 1589.52 1338.38 1651.91 1297.5C1691.59 1271.54 1729.13 1243.51 1798.03 1219.68C1805.36 1189.53 1810.23 1160.01 1812.64 1131.83C1781.45 1144.75 1753.05 1155.93 1738.13 1160.38C1693.4 1173.85 1637.36 1171.22 1673.72 1148.4C1702.86 1130.1 1746.74 1115.81 1814.27 1089.04C1814.07 1071.03 1812.62 1051.88 1810.01 1031.79C1767.57 1052.13 1732.51 1068.01 1719.69 1071.35C1678.24 1082.27 1643.08 1114.12 1635.37 1076.77C1627.65 1039.42 1672.61 1009.15 1739.47 983.46C1757.77 976.408 1777.2 968.516 1796.62 960.624C1787.19 921.707 1774.05 880.875 1757.47 839.721C1683.48 869.245 1538.95 913.759 1486.58 908.458C1434.21 903.156 1353.14 915.251 1314.04 955.397C1274.86 995.515 1172.21 1052.83 1128.45 1082.99C1084.66 1113.23 1071.99 1143.89 1021.15 1154.95C970.318 1166.02 925.594 1179.49 918.618 1154.97C911.642 1130.46 925.677 1079.08 996.503 1045.02C1067.33 1010.96 1171.88 956.59 1230.94 893.525C1290 830.461 1323.76 791.524 1366.9 761.587C1410.1 731.755 1461.49 659.147 1541.08 639.938C1564.27 634.327 1599.77 629.95 1638.45 626.592C1617.51 598.6 1594.87 572.037 1570.6 547.452L1570.31 547.265ZM1564.95 1095.67C1577.78 1130.06 1531.91 1121.93 1442.12 1193.15C1403.68 1223.59 1401.17 1157.46 1437.77 1123.47C1474.36 1089.49 1552.09 1061.36 1564.92 1095.75L1564.95 1095.67Z" fill="#0876A3"/>
</g>
<g style="mix-blend-mode:multiply" opacity="0.5">
<path fill-rule="evenodd" clip-rule="evenodd" d="M1287.99 396.229C1349.4 404.887 1406.52 427.684 1458.68 460.519C1399.62 478.246 1349.69 499.96 1319.19 528.734C1252.53 591.596 1303.18 643.668 1194.33 676.656C1085.47 709.645 1013.17 754.368 901.633 819.979C790.02 885.562 748.836 952.153 639.598 983.339C571.228 1002.91 497.164 1059.31 451.305 1098.88C451.303 1084.82 451.643 1070.8 452.356 1056.73C452.356 1056.73 536.942 953.31 595.235 874.343C623.773 866.23 652.88 857.085 681.496 846.891C847.516 787.604 961.788 753.435 1033.88 698.713C1105.98 643.99 1142.29 645.359 1177.03 593.206C1211.77 541.052 1121.83 537.436 1053.31 545.443C984.795 553.449 902.036 556.649 783.863 636.278C761.084 651.677 736.307 666.729 711.031 680.991C767.615 568.569 788.045 497.967 788.045 497.967C968.769 394.451 1160.52 378.518 1287.93 396.384L1287.99 396.229Z" fill="#0876A3"/>
</g>
<g style="mix-blend-mode:multiply" opacity="0.42">
<path d="M1499.29 602.477C1706.37 804.297 1688.66 1159.03 1456.85 1401.63C1248.26 1619.94 936.447 1674.07 717.056 1544.1C722.792 1549.8 728.635 1555.44 734.586 1561.04C980.427 1787.66 1370.43 1771.77 1605.65 1525.53C1840.87 1279.29 1832.27 895.942 1586.42 669.32C1559.03 644.014 1529.74 621.825 1499.18 602.528L1499.29 602.477Z" fill="#8A7499"/>
</g>
<path style="mix-blend-mode:overlay" d="M649.8 1036.01C708.359 1089.54 846.621 1038.72 958.616 922.5C1070.61 806.281 1113.93 668.674 1055.37 615.146C996.811 561.619 858.549 612.441 746.554 728.66C634.559 844.88 591.24 982.487 649.8 1036.01Z" fill="url(#paint0_linear_2219_12780)"/>
</g>
<path style="mix-blend-mode:overlay" opacity="0.68" d="M652.508 1340.78C908.551 1466.26 1222.73 1363.57 1354.25 1111.41C1485.77 859.252 1384.82 553.112 1128.78 427.629C872.736 302.146 558.555 404.839 427.037 656.999C295.519 909.159 396.466 1215.3 652.508 1340.78Z" fill="url(#paint1_radial_2219_12780)"/>
</g>
<defs>
<filter id="filter0_d_2219_12780" x="366.913" y="374.108" width="1416.8" height="1346.93" filterUnits="userSpaceOnUse" color-interpolation-filters="sRGB">
<feFlood flood-opacity="0" result="BackgroundImageFix"/>
<feColorMatrix in="SourceAlpha" type="matrix" values="0 0 0 0 0 0 0 0 0 0 0 0 0 0 0 0 0 0 127 0" result="hardAlpha"/>
<feOffset dy="2.42981"/>
<feGaussianBlur stdDeviation="1.2149"/>
<feComposite in2="hardAlpha" operator="out"/>
<feColorMatrix type="matrix" values="0 0 0 0 0 0 0 0 0 0 0 0 0 0 0 0 0 0 0.25 0"/>
<feBlend mode="normal" in2="BackgroundImageFix" result="effect1_dropShadow_2219_12780"/>
<feBlend mode="normal" in="SourceGraphic" in2="effect1_dropShadow_2219_12780" result="shape"/>
</filter>
<linearGradient id="paint0_linear_2219_12780" x1="739.537" y1="720.323" x2="947.528" y2="920.754" gradientUnits="userSpaceOnUse">
<stop offset="0.02" stop-color="white"/>
<stop offset="0.19" stop-color="white" stop-opacity="0.5329"/>
<stop offset="0.36" stop-color="white" stop-opacity="0.2209"/>
<stop offset="0.52" stop-color="white" stop-opacity="0.0729"/>
<stop offset="0.66" stop-color="white" stop-opacity="0.0144"/>
<stop offset="0.77" stop-color="white" stop-opacity="0.01"/>
<stop offset="0.84" stop-color="white" stop-opacity="0"/>
</linearGradient>
<radialGradient id="paint1_radial_2219_12780" cx="0" cy="0" r="1" gradientUnits="userSpaceOnUse" gradientTransform="translate(889.685 884.246) rotate(78.2827) scale(473.182 485.172)">
<stop stop-color="white"/>
<stop offset="0.49" stop-color="white" stop-opacity="0.2304"/>
<stop offset="0.84" stop-color="white" stop-opacity="0.0196"/>
<stop offset="1" stop-color="white" stop-opacity="0"/>
</radialGradient>
</defs>
</svg>
