<svg width="59" height="59" viewBox="0 0 59 59" fill="none" xmlns="http://www.w3.org/2000/svg">
<path fill-rule="evenodd" clip-rule="evenodd" d="M10.9519 20.1706C11.4704 19.6527 12.1733 19.3618 12.9062 19.3618C13.6391 19.3618 14.3421 19.6527 14.8606 20.1706L29.5 34.81L44.1394 20.1706C44.3925 19.8989 44.6979 19.681 45.0371 19.5298C45.3764 19.3786 45.7426 19.2974 46.1139 19.2908C46.4853 19.2843 46.8541 19.3526 47.1985 19.4917C47.5429 19.6308 47.8557 19.8378 48.1183 20.1004C48.3809 20.363 48.588 20.6759 48.7271 21.0202C48.8662 21.3646 48.9345 21.7335 48.9279 22.1048C48.9214 22.4761 48.8401 22.8424 48.6889 23.1816C48.5378 23.5209 48.3198 23.8262 48.0481 24.0794L31.4544 40.6731C30.9358 41.191 30.2329 41.4819 29.5 41.4819C28.7671 41.4819 28.0642 41.191 27.5456 40.6731L10.9519 24.0794C10.434 23.5608 10.143 22.8579 10.143 22.125C10.143 21.3921 10.434 20.6892 10.9519 20.1706Z" fill="#42A4EB"/>
</svg>
