<svg width="59" height="59" viewBox="0 0 59 59" fill="none" xmlns="http://www.w3.org/2000/svg">
<path fill-rule="evenodd" clip-rule="evenodd" d="M38.8294 10.952C39.3473 11.4705 39.6382 12.1735 39.6382 12.9064C39.6382 13.6393 39.3473 14.3422 38.8294 14.8607L24.19 29.5001L38.8294 44.1395C39.1011 44.3927 39.319 44.698 39.4702 45.0372C39.6214 45.3765 39.7026 45.7427 39.7092 46.1141C39.7157 46.4854 39.6474 46.8543 39.5083 47.1986C39.3692 47.543 39.1622 47.8558 38.8996 48.1184C38.637 48.3811 38.3241 48.5881 37.9798 48.7272C37.6354 48.8663 37.2665 48.9346 36.8952 48.928C36.5239 48.9215 36.1576 48.8402 35.8184 48.689C35.4791 48.5379 35.1738 48.3199 34.9206 48.0482L18.3269 31.4545C17.809 30.9359 17.5181 30.233 17.5181 29.5001C17.5181 28.7672 17.809 28.0643 18.3269 27.5457L34.9206 10.952C35.4392 10.4341 36.1421 10.1432 36.875 10.1432C37.6079 10.1432 38.3108 10.4341 38.8294 10.952Z" fill="#42A4EB"/>
</svg>
