<svg width="31" height="30" viewBox="0 0 31 30" fill="none" xmlns="http://www.w3.org/2000/svg">
<path fill-rule="evenodd" clip-rule="evenodd" d="M11.3398 8.4375C10.0131 8.4375 8.9375 9.51307 8.9375 10.8398V23.8477C8.9375 25.1744 10.0131 26.25 11.3398 26.25H24.3477C25.6744 26.25 26.75 25.1744 26.75 23.8477V10.8398C26.75 9.51307 25.6744 8.4375 24.3477 8.4375H11.3398ZM7.0625 10.8398C7.0625 8.47753 8.97753 6.5625 11.3398 6.5625H24.3477C26.71 6.5625 28.625 8.47753 28.625 10.8398V23.8477C28.625 26.21 26.71 28.125 24.3477 28.125H11.3398C8.97753 28.125 7.0625 26.21 7.0625 23.8477V10.8398Z" fill="black" stroke="black" stroke-width="0.7" stroke-linejoin="round"/>
<path fill-rule="evenodd" clip-rule="evenodd" d="M7.05973 1.87494L7.0625 1.87494H19.7188L19.7214 1.87494C20.8386 1.87812 21.9091 2.32333 22.6991 3.11331C23.4891 3.90329 23.9343 4.97383 23.9375 6.09102C23.9375 6.09842 23.9375 6.10582 23.9373 6.11322L23.908 7.51947C23.8972 8.03712 23.4688 8.44802 22.9512 8.43724C22.4335 8.42645 22.0226 7.99807 22.0334 7.48041L22.0625 6.08621C22.058 5.46811 21.8106 4.8764 21.3733 4.43914C20.9339 3.99977 20.3386 3.75203 19.7173 3.74994H7.06399C6.31847 3.75248 5.60419 4.04976 5.07701 4.57695C4.54982 5.10413 4.25254 5.81841 4.25 6.56393V19.2172C4.25209 19.8386 4.49983 20.4339 4.9392 20.8732C5.37858 21.3126 5.97391 21.5604 6.59526 21.5624H8C8.51777 21.5624 8.9375 21.9822 8.9375 22.4999C8.9375 23.0177 8.51777 23.4374 8 23.4374H6.59375L6.59108 23.4374C5.47389 23.4343 4.40336 22.989 3.61338 22.1991C2.8234 21.4091 2.37818 20.3386 2.375 19.2214L2.375 19.2187V6.56244L2.375 6.55967C2.37867 5.31833 2.87342 4.12888 3.75118 3.25112C4.62894 2.37336 5.81839 1.87861 7.05973 1.87494Z" fill="black" stroke="black" stroke-width="0.7" stroke-linecap="round" stroke-linejoin="round"/>
</svg>
