<svg width="1087" height="1109" viewBox="0 0 1087 1109" fill="none" xmlns="http://www.w3.org/2000/svg">
<path d="M711.593 397.407C793.81 479.623 845.076 577.192 861.518 668.459C877.96 759.727 859.572 844.642 802.561 901.653C745.55 958.665 660.635 977.052 569.366 960.61C478.1 944.168 380.531 892.902 298.314 810.685C216.098 728.469 164.831 630.9 148.39 539.633C131.947 448.365 150.335 363.45 207.346 306.439C264.358 249.428 349.272 231.04 440.541 247.482C531.807 263.924 629.377 315.19 711.593 397.407Z" stroke="white"/>
<path d="M760.895 348.105C843.112 430.321 894.378 527.89 910.82 619.157C927.262 710.425 908.875 795.34 851.863 852.351C794.852 909.362 709.937 927.75 618.669 911.308C527.402 894.866 429.833 843.6 347.617 761.383C265.4 679.167 214.134 581.598 197.692 490.331C181.25 399.063 199.637 314.148 256.649 257.137C313.66 200.125 398.575 181.738 489.843 198.18C581.11 214.622 678.679 265.888 760.895 348.105Z" stroke="white"/>
<path d="M810.198 298.802C892.414 381.019 943.681 478.588 960.122 569.854C976.565 661.123 958.177 746.038 901.166 803.049C844.154 860.06 759.24 878.448 667.971 862.006C576.705 845.564 479.135 794.298 396.919 712.081C314.702 629.865 263.436 532.295 246.994 441.029C230.552 349.76 248.94 264.846 305.951 207.834C362.962 150.823 447.877 132.435 539.146 148.878C630.412 165.319 727.981 216.586 810.198 298.802Z" stroke="white"/>
</svg>
