<svg width="233" height="56" viewBox="0 0 233 56" fill="none" xmlns="http://www.w3.org/2000/svg">
<path d="M113.18 24.5637V17.8815H119.096C119.66 17.8815 120.196 17.9349 120.706 18.0416C121.243 18.1216 121.712 18.2817 122.115 18.5218C122.517 18.7618 122.839 19.0953 123.081 19.5221C123.322 19.9489 123.443 20.4957 123.443 21.1626C123.443 22.363 123.081 23.2299 122.356 23.7634C121.632 24.2969 120.706 24.5637 119.579 24.5637H113.18ZM106.86 13V41.5691H120.787C122.075 41.5691 123.322 41.409 124.53 41.0889C125.764 40.7688 126.851 40.2753 127.79 39.6084C128.756 38.9416 129.521 38.088 130.084 37.0476C130.648 35.9806 130.93 34.7269 130.93 33.2864C130.93 31.4992 130.487 29.9787 129.601 28.725C128.743 27.4446 127.428 26.551 125.657 26.0441C126.945 25.4306 127.911 24.6437 128.555 23.6834C129.226 22.7231 129.561 21.5227 129.561 20.0822C129.561 18.7485 129.333 17.6281 128.877 16.7212C128.448 15.8142 127.83 15.094 127.025 14.5605C126.22 14.0003 125.254 13.6002 124.127 13.3601C123 13.12 121.753 13 120.384 13H106.86ZM113.18 36.6875V28.845H120.062C121.431 28.845 122.531 29.1651 123.363 29.8053C124.194 30.4189 124.61 31.4592 124.61 32.9263C124.61 33.6732 124.476 34.2868 124.208 34.7669C123.966 35.2471 123.631 35.6338 123.202 35.9273C122.772 36.194 122.276 36.3941 121.712 36.5275C121.149 36.6342 120.559 36.6875 119.941 36.6875H113.18Z" fill="white"/>
<path d="M134.194 20.8825V41.5691H139.909V32.2461C139.909 31.3125 140.003 30.4455 140.191 29.6453C140.379 28.845 140.687 28.1515 141.117 27.5646C141.573 26.9511 142.163 26.4709 142.888 26.1242C143.612 25.7774 144.498 25.604 145.544 25.604C145.893 25.604 146.255 25.6307 146.631 25.684C147.007 25.7107 147.329 25.7507 147.597 25.8041V20.5224C147.141 20.389 146.725 20.3223 146.349 20.3223C145.625 20.3223 144.927 20.429 144.256 20.6424C143.585 20.8558 142.955 21.1626 142.365 21.5627C141.774 21.9362 141.251 22.403 140.795 22.9632C140.339 23.4967 139.976 24.0835 139.708 24.7237H139.628V20.8825H134.194Z" fill="white"/>
<path d="M155.312 17.6815V13H149.596V17.6815H155.312ZM149.596 20.8825V41.5691H155.312V20.8825H149.596Z" fill="white"/>
<path d="M174.181 31.1658C174.181 32.0194 174.101 32.8463 173.94 33.6465C173.779 34.4468 173.51 35.167 173.135 35.8072C172.759 36.4208 172.249 36.9143 171.605 37.2877C170.988 37.6612 170.21 37.8479 169.271 37.8479C168.385 37.8479 167.62 37.6612 166.976 37.2877C166.359 36.8876 165.836 36.3808 165.407 35.7672C165.004 35.127 164.709 34.4068 164.521 33.6065C164.333 32.8063 164.24 32.006 164.24 31.2058C164.24 30.3522 164.32 29.5386 164.481 28.765C164.669 27.9647 164.951 27.2579 165.326 26.6443C165.729 26.0308 166.252 25.5373 166.896 25.1639C167.54 24.7904 168.332 24.6037 169.271 24.6037C170.21 24.6037 170.988 24.7904 171.605 25.1639C172.222 25.5373 172.719 26.0308 173.094 26.6443C173.497 27.2312 173.779 27.9247 173.94 28.725C174.101 29.4986 174.181 30.3122 174.181 31.1658ZM174.262 38.9282V41.5691H179.695V13H173.98V23.4033H173.899C173.255 22.3896 172.37 21.6294 171.243 21.1226C170.143 20.5891 168.976 20.3223 167.741 20.3223C166.212 20.3223 164.87 20.6291 163.716 21.2426C162.562 21.8295 161.596 22.6164 160.818 23.6034C160.067 24.5903 159.49 25.7374 159.088 27.0445C158.712 28.3249 158.524 29.6586 158.524 31.0457C158.524 32.4862 158.712 33.8733 159.088 35.207C159.49 36.5408 160.067 37.7278 160.818 38.7682C161.596 39.7818 162.576 40.5954 163.757 41.2089C164.937 41.7958 166.306 42.0892 167.862 42.0892C169.23 42.0892 170.451 41.8491 171.525 41.369C172.625 40.8622 173.51 40.0486 174.181 38.9282H174.262Z" fill="white"/>
<path d="M193.313 36.6875C192.427 36.6875 191.689 36.5008 191.099 36.1273C190.509 35.7539 190.026 35.2737 189.65 34.6869C189.301 34.1 189.046 33.4465 188.885 32.7263C188.751 31.9794 188.684 31.2324 188.684 30.4855C188.684 29.712 188.765 28.9784 188.926 28.2848C189.114 27.5646 189.395 26.9378 189.771 26.4043C190.173 25.8441 190.656 25.4039 191.22 25.0838C191.81 24.7637 192.508 24.6037 193.313 24.6037C194.252 24.6037 195.03 24.7771 195.647 25.1238C196.265 25.4706 196.761 25.9374 197.137 26.5243C197.512 27.1111 197.781 27.7914 197.942 28.5649C198.103 29.3118 198.183 30.1121 198.183 30.9657C198.183 31.7126 198.076 32.4328 197.861 33.1264C197.673 33.7933 197.378 34.3935 196.976 34.927C196.573 35.4605 196.063 35.8873 195.446 36.2074C194.829 36.5275 194.118 36.6875 193.313 36.6875ZM203.617 40.2486V20.8825H198.183V23.6434H198.103C197.405 22.443 196.533 21.5894 195.486 21.0826C194.467 20.5757 193.273 20.3223 191.904 20.3223C190.455 20.3223 189.167 20.6024 188.04 21.1626C186.94 21.7228 186.014 22.483 185.263 23.4433C184.512 24.3769 183.935 25.4706 183.532 26.7244C183.157 27.9514 182.969 29.2318 182.969 30.5656C182.969 31.9794 183.13 33.3264 183.452 34.6069C183.801 35.8606 184.337 36.9676 185.062 37.9279C185.786 38.8615 186.712 39.6084 187.839 40.1686C188.966 40.7021 190.308 40.9689 191.864 40.9689C193.125 40.9689 194.319 40.7155 195.446 40.2086C196.6 39.6751 197.485 38.8615 198.103 37.7679H198.183V40.4887C198.21 41.9558 197.848 43.1696 197.096 44.1299C196.372 45.0902 195.205 45.5703 193.595 45.5703C192.575 45.5703 191.676 45.3569 190.898 44.9301C190.12 44.53 189.596 43.7964 189.328 42.7294H183.653C183.733 43.9031 184.055 44.9035 184.619 45.7304C185.209 46.584 185.934 47.2775 186.792 47.811C187.678 48.3445 188.644 48.7313 189.69 48.9714C190.764 49.2382 191.81 49.3715 192.83 49.3715C195.218 49.3715 197.123 49.0514 198.545 48.4112C199.967 47.771 201.054 46.9841 201.806 46.0505C202.557 45.1435 203.04 44.1565 203.255 43.0895C203.496 42.0225 203.617 41.0756 203.617 40.2486Z" fill="white"/>
<path d="M221.823 29.0051H212.525C212.552 28.605 212.632 28.1515 212.767 27.6446C212.928 27.1378 213.183 26.6577 213.531 26.2042C213.907 25.7507 214.39 25.3773 214.98 25.0838C215.597 24.7637 216.362 24.6037 217.275 24.6037C218.67 24.6037 219.703 24.9771 220.374 25.724C221.071 26.4709 221.554 27.5646 221.823 29.0051ZM212.525 32.6062H227.538C227.646 31.0057 227.511 29.4719 227.136 28.0048C226.76 26.5376 226.143 25.2305 225.284 24.0835C224.452 22.9365 223.379 22.0295 222.064 21.3627C220.749 20.6691 219.207 20.3223 217.436 20.3223C215.852 20.3223 214.403 20.6024 213.089 21.1626C211.801 21.7228 210.687 22.4963 209.748 23.4833C208.809 24.4436 208.084 25.5907 207.574 26.9244C207.065 28.2582 206.81 29.6986 206.81 31.2458C206.81 32.8463 207.051 34.3134 207.534 35.6472C208.044 36.9809 208.755 38.128 209.667 39.0883C210.58 40.0486 211.693 40.7955 213.008 41.329C214.323 41.8358 215.799 42.0892 217.436 42.0892C219.797 42.0892 221.809 41.5557 223.473 40.4887C225.137 39.4217 226.371 37.6478 227.176 35.167H222.145C221.957 35.8072 221.447 36.4208 220.615 37.0076C219.783 37.5678 218.791 37.8479 217.637 37.8479C216.027 37.8479 214.793 37.4344 213.934 36.6075C213.075 35.7806 212.606 34.4468 212.525 32.6062Z" fill="white"/>
<path d="M74.2869 31.1658C74.2869 32.0194 74.2064 32.8463 74.0454 33.6465C73.8845 34.4468 73.6161 35.167 73.2405 35.8072C72.8648 36.4208 72.355 36.9142 71.711 37.2877C71.0938 37.6612 70.3157 37.8479 69.3765 37.8479C68.491 37.8479 67.7263 37.6612 67.0823 37.2877C66.4651 36.8876 65.9419 36.3807 65.5125 35.7672C65.1101 35.127 64.8149 34.4068 64.6271 33.6065C64.4392 32.8063 64.3453 32.006 64.3453 31.2058C64.3453 30.3522 64.4258 29.5386 64.5868 28.765C64.7746 27.9647 65.0564 27.2579 65.4321 26.6443C65.8345 26.0308 66.3578 25.5373 67.0018 25.1639C67.6458 24.7904 68.4373 24.6037 69.3765 24.6037C70.3157 24.6037 71.0938 24.7904 71.711 25.1639C72.3281 25.5373 72.8245 26.0308 73.2002 26.6443C73.6027 27.2312 73.8845 27.9247 74.0454 28.725C74.2064 29.4986 74.2869 30.3122 74.2869 31.1658ZM74.3674 38.9282V41.5691H79.8011V13H74.0857V23.4033H74.0052C73.3612 22.3896 72.4757 21.6294 71.3487 21.1226C70.2486 20.5891 69.0813 20.3223 67.847 20.3223C66.3175 20.3223 64.9759 20.6291 63.8221 21.2426C62.6683 21.8295 61.7023 22.6164 60.9241 23.6034C60.1728 24.5903 59.5959 25.7374 59.1934 27.0445C58.8177 28.3249 58.6299 29.6586 58.6299 31.0457C58.6299 32.4862 58.8177 33.8733 59.1934 35.207C59.5959 36.5408 60.1728 37.7278 60.9241 38.7682C61.7023 39.7818 62.6817 40.5954 63.8623 41.2089C65.043 41.7958 66.4115 42.0892 67.9678 42.0892C69.3363 42.0892 70.5572 41.8491 71.6305 41.369C72.7306 40.8622 73.6161 40.0486 74.2869 38.9282H74.3674Z" fill="#ABDA02"/>
<path d="M97.7254 29.0051H88.4277C88.4546 28.6049 88.5351 28.1515 88.6692 27.6446C88.8302 27.1378 89.0851 26.6577 89.434 26.2042C89.8096 25.7507 90.2926 25.3773 90.883 25.0838C91.5001 24.7637 92.2649 24.6037 93.1772 24.6037C94.5725 24.6037 95.6056 24.9771 96.2764 25.724C96.974 26.4709 97.457 27.5646 97.7254 29.0051ZM88.4277 32.6062H103.441C103.548 31.0057 103.414 29.4719 103.038 28.0048C102.663 26.5376 102.045 25.2305 101.187 24.0835C100.355 22.9365 99.2817 22.0295 97.9669 21.3627C96.652 20.6691 95.1092 20.3223 93.3382 20.3223C91.755 20.3223 90.306 20.6024 88.9912 21.1626C87.7032 21.7228 86.5897 22.4963 85.6505 23.4833C84.7114 24.4436 83.9869 25.5907 83.477 26.9244C82.9672 28.2582 82.7123 29.6986 82.7123 31.2458C82.7123 32.8463 82.9538 34.3134 83.4368 35.6472C83.9466 36.9809 84.6577 38.128 85.57 39.0883C86.4823 40.0486 87.5959 40.7955 88.9107 41.329C90.2255 41.8358 91.7014 42.0892 93.3382 42.0892C95.6995 42.0892 97.712 41.5557 99.3756 40.4887C101.039 39.4217 102.274 37.6478 103.079 35.167H98.0474C97.8595 35.8072 97.3497 36.4208 96.5179 37.0076C95.6861 37.5678 94.6932 37.8479 93.5394 37.8479C91.9294 37.8479 90.6951 37.4344 89.8365 36.6075C88.9778 35.7806 88.5082 34.4468 88.4277 32.6062Z" fill="#ABDA02"/>
<path d="M44.5589 42H38.9518H35.9067C34.0461 42 33.2674 40.4685 33.1106 39.7027C32.9744 39.0459 32.7809 38.4111 32.5354 37.8036C32.1209 36.4925 32.826 35.7767 33.2303 35.5827L36.6954 33.5793C37.173 34.3764 37.558 35.243 37.8772 36.1387C38.0605 36.6342 38.7442 37.552 40.0122 37.2592L43.8067 36.2493C44.2854 38.0977 44.5589 40.0146 44.5589 42Z" fill="url(#paint0_linear_464_16)"/>
<path fill-rule="evenodd" clip-rule="evenodd" d="M37.995 26.1856C35.2598 23.4472 31.8409 21.3934 27.9433 20.3665L26.5073 25.7748C29.3792 26.5279 31.9776 28.1025 34.029 30.1563L37.995 26.1856Z" fill="url(#paint1_linear_464_16)"/>
<path d="M7.63484 33.5108C6.19889 36.0438 5.37833 38.9192 5.37833 41.9999H2.82928C2.28361 41.9999 1.45212 41.8099 0.646604 40.9514C0.00219601 40.2646 -0.039981 39.1737 0.0194816 38.7141C0.34852 36.5398 0.991392 34.4656 1.86786 32.5261C2.11038 31.9599 2.9592 30.9916 4.41432 31.6489L7.63484 33.5108Z" fill="url(#paint2_linear_464_16)"/>
<path d="M44.56 42C44.56 40.0146 44.2865 38.0977 43.8078 36.2493L47.3408 35.3091C47.9707 35.1433 49.3169 35.2021 49.6628 36.763C49.7932 37.4376 49.8997 38.1243 49.9807 38.8182C50.0448 39.2171 49.986 40.2282 49.2376 41.0815C48.4893 41.9348 47.4187 42 47.1329 42H44.56Z" fill="#ABDA02"/>
<path d="M34.0297 30.1564L40.6308 23.5473C41.0918 23.1137 42.2761 22.5327 43.326 23.6773C44.0862 24.5515 44.7954 25.4769 45.4459 26.461C45.7193 27.0123 45.9718 28.2852 44.7943 28.966L36.6964 33.6478C35.9443 32.3471 35.0553 31.1833 34.0297 30.1564Z" fill="#ABDA02"/>
<path d="M33.4141 22.626C30.132 20.7091 26.3027 19.6138 22.2 19.6138C20.7931 19.6138 19.4206 19.7516 18.0825 20.0028C16.8976 20.2265 16.2249 19.2853 16.0367 18.7868L15.4979 16.7576C15.372 16.1405 15.4633 14.8313 16.8352 14.5312C18.5686 14.1862 20.3843 14 22.2 14C26.5703 14 30.7366 15.0214 34.4785 16.8436C35.0155 17.0964 35.9336 17.9494 35.31 19.339L33.4141 22.626Z" fill="#ABDA02"/>
<path d="M22.1317 25.2272C23.6361 25.2272 25.1404 25.4326 26.508 25.7749L25.5108 29.5307C25.3819 30.0213 24.8021 30.9722 23.5132 30.8519C23.0887 30.7989 22.651 30.7725 22.2001 30.7725C16.7625 30.7725 12.2648 34.6411 11.2167 39.7287C11.1321 40.0842 10.8174 40.9046 10.2353 41.3416C9.50776 41.888 8.91012 42 8.4424 42H5.37891C5.37891 32.6894 12.9006 25.2272 22.1317 25.2272Z" fill="#ABDA02"/>
<defs>
<linearGradient id="paint0_linear_464_16" x1="38.484" y1="33.5793" x2="38.484" y2="42" gradientUnits="userSpaceOnUse">
<stop stop-color="#6410D6"/>
<stop offset="1" stop-color="#A310D6"/>
</linearGradient>
<linearGradient id="paint1_linear_464_16" x1="32.2511" y1="20.3665" x2="32.2511" y2="30.1563" gradientUnits="userSpaceOnUse">
<stop stop-color="#6410D6"/>
<stop offset="1" stop-color="#A310D6"/>
</linearGradient>
<linearGradient id="paint2_linear_464_16" x1="3.81742" y1="31.4285" x2="3.81742" y2="41.9999" gradientUnits="userSpaceOnUse">
<stop stop-color="#6410D6"/>
<stop offset="1" stop-color="#A310D6"/>
</linearGradient>
</defs>
</svg>
