<svg width="69" height="68" viewBox="0 0 69 68" fill="none" xmlns="http://www.w3.org/2000/svg">
<path d="M59.5087 60.9384C54.8154 60.9384 8.63916 61.2412 8.63916 61.2412L11.0615 51.5518C28.6741 52.006 58.9334 52.3693 63.2936 52.6115C68.744 52.9143 68.5926 52.6115 68.744 54.7311C68.8651 56.4268 64.202 60.9384 59.5087 60.9384Z" fill="black"/>
<path d="M1.95697 52.277C1.94487 52.2478 1.93365 52.2203 1.92328 52.1945C1.97144 52.1526 2.02364 52.1064 2.0794 52.0563C2.34137 51.8211 2.71105 51.4751 3.17317 51.0341C4.09876 50.151 5.4104 48.8722 7.00521 47.3025C10.1956 44.1623 14.527 39.8499 19.1872 35.1904C28.508 25.8711 39.148 15.1594 44.6136 9.65131C46.443 7.8077 49.3847 7.7521 51.3065 9.51185L57.2329 14.9385C58.8284 16.3993 59.6151 18.5439 59.3428 20.69L55.0456 54.5582C54.6252 57.8714 51.8165 60.3612 48.4768 60.3811L9.07375 60.6158C7.26275 60.6266 5.59942 59.6285 4.77447 58.0228C4.06608 56.6441 3.25148 55.0371 2.65034 53.7886C2.34877 53.1623 2.10583 52.6363 1.95697 52.277ZM1.81981 51.9019C1.81997 51.9021 1.82083 51.9055 1.8219 51.9118C1.82018 51.9049 1.81965 51.9017 1.81981 51.9019Z" fill="#2F40DB" stroke="black" stroke-width="1.21118"/>
<path d="M6.79792 12.6204C7.13167 10.2456 9.15257 8.47235 11.5506 8.45011L47.4718 8.11704C51.5443 8.07928 54.697 11.6723 54.1302 15.7053L49.4331 49.1273C48.9742 52.3926 46.1955 54.8308 42.8982 54.8614L6.4319 55.1995C3.47011 55.227 1.1772 52.6138 1.58942 49.6807L6.79792 12.6204Z" fill="#495BFD" stroke="black" stroke-width="1.21118"/>
<path fill-rule="evenodd" clip-rule="evenodd" d="M23.2483 38.9479V37.7327L20.818 36.1125C21.8981 36.6526 24.7875 37.7327 27.704 37.7327C30.6204 37.7327 33.2398 36.3825 34.1849 35.7074L32.5647 37.3277C32.9697 38.0028 34.1039 39.272 35.4001 38.9479C37.0203 38.5428 41.8811 35.3024 41.8811 34.0872C41.8811 32.872 40.6659 28.8214 36.6153 23.9607C32.7753 19.3527 31.8476 19.841 31.0713 20.2495C31.0287 20.2719 30.9866 20.2941 30.9444 20.3152L30.9377 20.3186L30.9377 20.3186C30.1298 20.7227 29.3231 21.1263 28.9191 21.5302V22.7454H23.2483C23.3833 22.0703 23.3293 20.7201 22.0331 20.7201C20.4129 20.7201 16.7674 25.5808 16.3623 27.201C15.9572 28.8213 15.5522 34.897 17.1724 36.9225C18.4686 38.5428 21.7631 38.948 23.2483 38.9479ZM26.0838 31.2515C26.0838 32.8174 24.8144 34.0869 23.2484 34.0869C21.6824 34.0869 20.413 32.8174 20.413 31.2515C20.413 29.6855 21.6824 28.4161 23.2484 28.4161C24.8144 28.4161 26.0838 29.6855 26.0838 31.2515ZM34.1849 31.2515C34.1849 32.8175 32.9154 34.087 31.3495 34.087C29.7835 34.087 28.514 32.8175 28.514 31.2515C28.514 29.6856 29.7835 28.4161 31.3495 28.4161C32.9154 28.4161 34.1849 29.6856 34.1849 31.2515Z" fill="white"/>
</svg>
