<svg width="25" height="25" viewBox="0 0 25 25" fill="none" xmlns="http://www.w3.org/2000/svg">
<path d="M6.5 2.5C5.96957 2.5 5.46086 2.71071 5.08579 3.08579C4.71071 3.46086 4.5 3.96957 4.5 4.5V20.5C4.5 21.0304 4.71071 21.5391 5.08579 21.9142C5.46086 22.2893 5.96957 22.5 6.5 22.5H18.5C19.0304 22.5 19.5391 22.2893 19.9142 21.9142C20.2893 21.5391 20.5 21.0304 20.5 20.5V10.328C20.4999 9.79761 20.2891 9.28899 19.914 8.914L14.086 3.086C13.711 2.7109 13.2024 2.50011 12.672 2.5H6.5ZM6 4.5C6 4.36739 6.05268 4.24021 6.14645 4.14645C6.24021 4.05268 6.36739 4 6.5 4H12.5V8.5C12.5 9.03043 12.7107 9.53914 13.0858 9.91421C13.4609 10.2893 13.9696 10.5 14.5 10.5H19V20.5C19 20.6326 18.9473 20.7598 18.8536 20.8536C18.7598 20.9473 18.6326 21 18.5 21H6.5C6.36739 21 6.24021 20.9473 6.14645 20.8536C6.05268 20.7598 6 20.6326 6 20.5V4.5ZM17.88 9H14.5C14.3674 9 14.2402 8.94732 14.1464 8.85355C14.0527 8.75979 14 8.63261 14 8.5V5.12L17.88 9Z" fill="white"/>
</svg>
