<svg width="202" height="60" viewBox="0 0 202 60" fill="none" xmlns="http://www.w3.org/2000/svg">
<g clip-path="url(#clip0_603_98)">
<path d="M172.265 33.6548H179.574V22.6847H201.5V19.0281C201.5 17.1997 199.673 15.3714 197.845 15.3714H175.919C174.092 15.3714 172.265 17.1997 172.265 19.0281V33.6548Z" fill="#BEA0EB"/>
<path d="M179.574 44.6249H175.919C174.092 44.6249 172.265 42.7966 172.265 40.9682V37.3115H179.574V44.6249Z" fill="#D35CFF"/>
<path d="M144.855 37.3115V32.436H163.128V27.5604H144.855V22.6847H166.783V19.0281C166.783 17.1997 164.955 15.3714 163.128 15.3714H141.201C139.374 15.3714 137.546 17.1997 137.546 19.0281V40.9682C137.546 42.7965 139.374 44.6249 141.201 44.6249H163.128C164.955 44.6249 166.783 42.7965 166.783 40.9682V37.3115H144.855Z" fill="#BEA0EB"/>
<path d="M104.655 37.3115H111.965V44.6249H108.31C106.483 44.6249 104.655 42.7966 104.655 40.9682V37.3115Z" fill="#BEA0EB"/>
<path fill-rule="evenodd" clip-rule="evenodd" d="M108.31 15.3714C106.483 15.3714 104.655 17.1997 104.655 19.0281V37.3115H122.928C130.237 37.3115 133.892 31.8265 133.892 26.3414C133.892 20.8564 130.237 15.3714 122.928 15.3714H108.31ZM122.928 22.6847H111.965V29.9981H122.928C125.669 29.9981 126.583 27.6878 126.583 26.3414C126.583 24.995 125.669 22.6847 122.928 22.6847Z" fill="#BEA0EB"/>
<path d="M99.1737 19.0281C99.1737 17.1997 97.3464 15.3714 95.5191 15.3714H73.5918C71.7646 15.3714 69.9373 17.1997 69.9373 19.0281V40.9682C69.9373 42.7965 71.7646 44.6249 73.5918 44.6249H77.2464V22.6847H81.8146V44.6249H87.2964V22.6847H91.8646V44.6249H95.5191C97.3464 44.6249 99.1737 42.7965 99.1737 40.9682C99.1737 39.1398 99.1737 19.0281 99.1737 19.0281Z" fill="#BEA0EB"/>
<path d="M35.2191 19.0281C35.2191 17.1998 37.0458 15.3714 38.8731 15.3726H42.5282V37.3126H57.1464V15.3726H60.8004C62.6276 15.3726 64.4555 17.1998 64.4555 19.0281V40.9682C64.4555 42.7966 62.6276 44.626 60.8004 44.626H38.8731C37.0458 44.626 35.2191 42.7966 35.2191 40.9682V19.0281Z" fill="#BEA0EB"/>
<path d="M22.4353 15.3726H26.0825C27.9098 15.3726 29.7371 17.1998 29.7371 19.0281L29.7444 22.6859H22.4353V15.3726Z" fill="#D35CFF"/>
<path d="M29.7446 26.3416H22.4355V37.3128H0.508246L0.500885 40.9684C0.500885 42.7967 2.32816 44.6262 4.15543 44.6262H26.0827C27.91 44.6262 29.7446 42.7967 29.7373 40.9684L29.7446 26.3416Z" fill="#BEA0EB"/>
</g>
<defs>
<clipPath id="clip0_603_98">
<rect width="201" height="58.507" fill="white" transform="translate(0.5 0.74646)"/>
</clipPath>
</defs>
</svg>
