<svg width="215" height="46" viewBox="0 0 215 46" fill="none" xmlns="http://www.w3.org/2000/svg">
<g id="linea.ef01e202 1" clip-path="url(#clip0_295_169)">
<path id="Vector" d="M28.7521 31.8524H24.1938V9.67065H28.7521V31.8524Z" fill="white"/>
<path id="Vector_2" d="M45.2229 9.23523C47.7392 9.23523 49.7949 10.1175 51.3877 11.8822C52.9781 13.6468 53.7757 15.8904 53.7757 18.6107V31.8501H49.2174V19.3051C49.2174 17.5978 48.6674 16.1861 47.5673 15.0723C46.4673 13.9585 45.1083 13.4016 43.488 13.4016C41.6638 13.4016 40.1742 13.9585 39.0168 15.0723C37.8595 16.1861 37.2797 17.5978 37.2797 19.3051V31.8501H32.7214V9.67066H37.2797V15.4C37.887 13.491 38.8931 11.9853 40.2979 10.8853C41.7005 9.78525 43.3437 9.23523 45.2252 9.23523H45.2229Z" fill="white"/>
<path id="Vector_3" d="M67.9867 9.23523C71.5457 9.23523 74.4402 10.5094 76.6678 13.0556C78.8953 15.604 79.8074 18.6841 79.4018 22.3027H61.0404C61.3589 24.0972 62.184 25.5524 63.5155 26.6662C64.847 27.78 66.4512 28.3369 68.3327 28.3369C69.7788 28.3369 71.0736 27.9817 72.2172 27.2735C73.3608 26.5654 74.25 25.6028 74.8871 24.3859L78.7074 26.0795C77.7243 27.961 76.3194 29.4644 74.4975 30.5942C72.6756 31.7241 70.5763 32.2878 68.2021 32.2878C64.8745 32.2878 62.0808 31.1878 59.8235 28.99C57.5661 26.7922 56.4363 24.0559 56.4363 20.7856C56.4363 17.5153 57.5432 14.7744 59.757 12.5583C61.9708 10.3444 64.7118 9.23752 67.9844 9.23752L67.9867 9.23523ZM67.9867 13.1862C66.3068 13.1862 64.8538 13.6995 63.6232 14.7285C62.3925 15.7552 61.5744 17.0936 61.171 18.7437H74.8023C74.4264 17.0936 73.622 15.7552 72.3937 14.7285C71.163 13.7018 69.694 13.1862 67.9867 13.1862Z" fill="white"/>
<path id="Vector_4" d="M92.0042 9.23523C94.6672 9.23523 96.8375 9.92963 98.515 11.3184C100.193 12.7072 101.034 14.7056 101.034 17.309V31.8524H96.4754V25.9489C95.1141 30.1749 92.38 32.2878 88.2709 32.2878C86.3596 32.2878 84.7692 31.7172 83.495 30.5736C82.2207 29.43 81.5859 27.9335 81.5859 26.0818C81.5859 23.9115 82.3514 22.2821 83.8868 21.1981C85.42 20.1141 87.3749 19.4403 89.7468 19.1791L94.0438 18.7437C95.6641 18.5993 96.4754 17.8751 96.4754 16.5734C96.4754 15.5031 96.0629 14.6483 95.2378 14.0135C94.4128 13.3764 93.3357 13.0579 92.0042 13.0579C90.6727 13.0579 89.4924 13.4062 88.5528 14.1006C87.6132 14.795 87.0128 15.8079 86.7515 17.1394L82.2368 16.0532C82.6424 13.97 83.7264 12.313 85.4934 11.0824C87.258 9.854 89.4283 9.23752 92.0042 9.23752V9.23523ZM89.7468 28.5959C91.6283 28.5959 93.2188 27.9656 94.5205 26.7075C95.8222 25.4493 96.4731 23.9803 96.4731 22.3004V21.0858C96.127 21.6656 95.286 22.0254 93.9545 22.1698L89.7445 22.69C88.6445 22.8367 87.7691 23.1598 87.1182 23.6663C86.4673 24.1728 86.1419 24.8603 86.1419 25.7289C86.1419 26.5975 86.4673 27.2918 87.1182 27.8121C87.7691 28.3323 88.6445 28.5936 89.7445 28.5936L89.7468 28.5959Z" fill="white"/>
<path id="Vector_5" d="M21.0542 31.8524H0V9.67065H4.81724V27.5554H21.0542V31.8524Z" fill="white"/>
<path id="Vector_6" d="M105.331 9.23514C107.704 9.23514 109.628 7.3113 109.628 4.93813C109.628 2.56495 107.704 0.641113 105.331 0.641113C102.958 0.641113 101.034 2.56495 101.034 4.93813C101.034 7.3113 102.958 9.23514 105.331 9.23514Z" fill="white"/>
<path id="Vector_7" d="M132.418 20.3254C134.107 20.4731 135.457 21.0324 136.47 22.0032C137.505 22.9528 138.022 24.1769 138.022 25.6753C138.022 27.3214 137.42 28.7037 136.217 29.8222C135.035 30.9407 133.516 31.5 131.659 31.5H121.845V9.3407H130.709C132.566 9.3407 134.086 9.89996 135.268 11.0185C136.47 12.137 137.072 13.5193 137.072 15.1654C137.072 16.5161 136.65 17.6452 135.806 18.5526C134.983 19.4601 133.854 20.051 132.418 20.3254ZM130.551 11.525H124.283V19.344H130.551C131.775 19.344 132.777 18.9747 133.558 18.2361C134.339 17.4763 134.729 16.5372 134.729 15.4187C134.729 14.3213 134.339 13.4032 133.558 12.6646C132.777 11.9048 131.775 11.525 130.551 11.525ZM124.283 29.3157H131.374C132.577 29.3157 133.569 28.9359 134.35 28.1761C135.13 27.4164 135.521 26.4878 135.521 25.3904C135.521 24.2718 135.13 23.3433 134.35 22.6046C133.569 21.866 132.577 21.4967 131.374 21.4967H124.283V29.3157ZM143.279 15.482V19.7872C143.827 17.9512 144.672 16.6744 145.811 15.9568C146.972 15.2393 148.302 15.0177 149.8 15.2921V17.603C148.006 17.202 146.465 17.4763 145.178 18.426C143.912 19.3546 143.279 20.663 143.279 22.3514V31.5H140.905V15.482H143.279ZM151.485 10.7336C151.485 10.2904 151.633 9.92107 151.928 9.62561C152.224 9.33015 152.593 9.18242 153.036 9.18242C153.458 9.18242 153.817 9.33015 154.113 9.62561C154.429 9.92107 154.587 10.2904 154.587 10.7336C154.587 11.1556 154.429 11.5144 154.113 11.8099C153.817 12.1053 153.458 12.2531 153.036 12.2531C152.593 12.2531 152.224 12.1053 151.928 11.8099C151.633 11.5144 151.485 11.1556 151.485 10.7336ZM154.208 31.5H151.833V15.482H154.208V31.5ZM171.401 20.1354V8.07446H173.775V31.5H171.401V26.8465C170.852 28.366 169.976 29.5795 168.773 30.487C167.57 31.3734 166.178 31.8166 164.595 31.8166C162.421 31.8166 160.606 31.0252 159.15 29.4424C157.715 27.8595 156.997 25.8758 156.997 23.491C156.997 21.1273 157.715 19.1541 159.15 17.5713C160.606 15.9674 162.421 15.1654 164.595 15.1654C166.178 15.1654 167.57 15.6192 168.773 16.5266C169.976 17.413 170.852 18.6159 171.401 20.1354ZM165.26 29.6006C167.032 29.6006 168.499 29.0203 169.66 27.8595C170.82 26.6988 171.401 25.2426 171.401 23.491C171.401 21.7394 170.82 20.2832 169.66 19.1224C168.499 17.9617 167.032 17.3814 165.26 17.3814C163.634 17.3814 162.252 17.9723 161.113 19.1541C159.994 20.3148 159.435 21.7605 159.435 23.491C159.435 25.2215 159.994 26.6777 161.113 27.8595C162.252 29.0203 163.634 29.6006 165.26 29.6006ZM190.955 20.0721V15.482H193.329V29.8222C193.329 32.1859 192.516 34.1591 190.891 35.7419C189.287 37.3458 187.293 38.1478 184.908 38.1478C183.199 38.1478 181.679 37.7152 180.35 36.8499C179.02 36.0057 178.018 34.8767 177.343 33.4627L179.495 32.4497C180.002 33.526 180.73 34.3807 181.679 35.0138C182.629 35.647 183.705 35.9635 184.908 35.9635C186.618 35.9635 188.053 35.3726 189.214 34.1908C190.374 33.03 190.955 31.5739 190.955 29.8222V26.7199C190.406 28.2183 189.53 29.4107 188.327 30.2971C187.124 31.1834 185.731 31.6266 184.149 31.6266C181.975 31.6266 180.16 30.8458 178.704 29.2841C177.269 27.7013 176.551 25.7386 176.551 23.396C176.551 21.0535 177.269 19.1013 178.704 17.5396C180.16 15.9568 181.975 15.1654 184.149 15.1654C185.731 15.1654 187.124 15.6086 188.327 16.495C189.53 17.3814 190.406 18.5737 190.955 20.0721ZM184.845 29.4424C186.618 29.4424 188.074 28.8725 189.214 27.7329C190.374 26.5722 190.955 25.1266 190.955 23.396C190.955 21.6866 190.374 20.2621 189.214 19.1224C188.074 17.9617 186.618 17.3814 184.845 17.3814C183.199 17.3814 181.806 17.9617 180.666 19.1224C179.548 20.2621 178.989 21.6866 178.989 23.396C178.989 25.1055 179.548 26.5405 180.666 27.7013C181.806 28.862 183.199 29.4424 184.845 29.4424ZM204.367 15.1654C206.836 15.1654 208.862 16.0412 210.445 17.7929C212.049 19.5234 212.756 21.6655 212.566 24.2191H198.479C198.648 25.823 199.292 27.142 200.41 28.1761C201.55 29.1891 202.932 29.6956 204.557 29.6956C205.802 29.6956 206.91 29.3896 207.881 28.7776C208.852 28.1656 209.59 27.3319 210.097 26.2767L212.123 27.1315C211.448 28.5454 210.445 29.685 209.116 30.5503C207.786 31.3945 206.256 31.8166 204.526 31.8166C202.141 31.8166 200.136 31.0252 198.511 29.4424C196.907 27.8384 196.105 25.8547 196.105 23.491C196.105 21.1273 196.896 19.1541 198.479 17.5713C200.062 15.9674 202.025 15.1654 204.367 15.1654ZM204.367 17.2864C202.911 17.2864 201.645 17.7507 200.568 18.6793C199.492 19.6078 198.817 20.8002 198.542 22.2564H210.16C209.928 20.8213 209.274 19.6395 208.198 18.7109C207.142 17.7612 205.866 17.2864 204.367 17.2864Z" fill="white"/>
</g>
<defs>
<clipPath id="clip0_295_169">
<rect width="215" height="45" fill="white" transform="translate(0 0.5)"/>
</clipPath>
</defs>
</svg>
