<svg width="190" height="55" viewBox="0 0 190 55" fill="none" xmlns="http://www.w3.org/2000/svg">
<path d="M50.1831 54.0855H42.3354V15.8968H50.1831V54.0855Z" fill="white"/>
<path d="M78.5394 15.1472C82.8716 15.1472 86.4107 16.6662 89.1529 19.7042C91.891 22.7423 93.2641 26.6049 93.2641 31.2883V54.0815H85.4165V32.4838C85.4165 29.5444 84.4695 27.1139 82.5757 25.1964C80.6818 23.2789 78.3421 22.3201 75.5527 22.3201C72.412 22.3201 69.8474 23.2789 67.8549 25.1964C65.8625 27.1139 64.8642 29.5444 64.8642 32.4838V54.0815H57.0166V15.8968H64.8642V25.7606C65.9098 22.474 67.6419 19.8818 70.0605 17.9879C72.4751 16.0941 75.3041 15.1472 78.5434 15.1472H78.5394Z" fill="white"/>
<path d="M117.731 15.1472C123.858 15.1472 128.841 17.3409 132.676 21.7243C136.511 26.1118 138.082 31.4145 137.383 37.6445H105.772C106.32 40.7338 107.741 43.2393 110.033 45.1568C112.325 47.0743 115.087 48.0331 118.326 48.0331C120.816 48.0331 123.045 47.4215 125.014 46.2023C126.983 44.9832 128.514 43.3261 129.611 41.231L136.188 44.1467C134.495 47.386 132.077 49.9743 128.94 51.9194C125.803 53.8645 122.189 54.8351 118.102 54.8351C112.373 54.8351 107.563 52.9413 103.677 49.1575C99.7904 45.3738 97.8452 40.6628 97.8452 35.0326C97.8452 29.4023 99.7509 24.6835 103.562 20.8682C107.374 17.0568 112.092 15.1511 117.727 15.1511L117.731 15.1472ZM117.731 21.9492C114.839 21.9492 112.337 22.833 110.218 24.6046C108.1 26.3722 106.691 28.6763 105.997 31.5171H129.465C128.818 28.6763 127.433 26.3722 125.318 24.6046C123.199 22.837 120.67 21.9492 117.731 21.9492Z" fill="white"/>
<path d="M159.079 15.1472C163.664 15.1472 167.4 16.3426 170.289 18.7336C173.177 21.1246 174.625 24.5651 174.625 29.0472V54.0855H166.777V43.9218C164.433 51.1974 159.726 54.8351 152.652 54.8351C149.362 54.8351 146.623 53.8527 144.43 51.8839C142.236 49.9151 141.143 47.3386 141.143 44.1507C141.143 40.4143 142.461 37.609 145.104 35.7428C147.744 33.8765 151.109 32.7166 155.193 32.2668L162.591 31.5171C165.38 31.2685 166.777 30.0218 166.777 27.7807C166.777 25.9382 166.067 24.4665 164.647 23.3736C163.226 22.2767 161.372 21.7283 159.079 21.7283C156.787 21.7283 154.755 22.328 153.137 23.5235C151.52 24.719 150.486 26.4629 150.036 28.7553L142.264 26.8851C142.962 23.2986 144.828 20.446 147.87 18.3272C150.908 16.2124 154.645 15.1511 159.079 15.1511V15.1472ZM155.193 48.4789C158.432 48.4789 161.171 47.3939 163.412 45.2278C165.653 43.0617 166.773 40.5326 166.773 37.6406V35.5494C166.177 36.5477 164.729 37.1671 162.437 37.4157L155.189 38.3113C153.295 38.5638 151.788 39.1201 150.668 39.9921C149.547 40.8641 148.987 42.0477 148.987 43.5431C148.987 45.0384 149.547 46.2339 150.668 47.1295C151.788 48.0252 153.295 48.475 155.189 48.475L155.193 48.4789Z" fill="white"/>
<path d="M36.9301 54.0855H0.682617V15.8968H8.9761V46.6876H36.9301V54.0855Z" fill="white"/>
<path d="M182.023 15.1472C186.109 15.1472 189.421 11.835 189.421 7.74932C189.421 3.6636 186.109 0.351471 182.023 0.351471C177.937 0.351471 174.625 3.6636 174.625 7.74932C174.625 11.835 177.937 15.1472 182.023 15.1472Z" fill="white"/>
</svg>
