<svg width="68" height="67" viewBox="0 0 68 67" fill="none" xmlns="http://www.w3.org/2000/svg">
<path d="M58.0541 59.2486C53.4298 59.2486 7.93262 59.5469 7.93262 59.5469L10.3194 50C27.6729 50.4475 57.4872 50.8055 61.7834 51.0442C67.1535 51.3425 67.0043 51.0442 67.1535 53.1326C67.2729 54.8033 62.6784 59.2486 58.0541 59.2486Z" fill="black"/>
<mask id="path-2-inside-1_4540_22" fill="white">
<path d="M2.04431 51.18C2.41445 51.3033 33.5757 19.9429 44.3459 9.08908C46.3769 7.04229 49.6402 6.98463 51.7668 8.9319L57.6061 14.2787C59.321 15.849 60.1666 18.1541 59.8739 20.4608L55.64 53.831C55.1881 57.3922 52.1691 60.0684 48.5793 60.0898L9.75578 60.3211C7.74936 60.333 5.90234 59.2269 4.98542 57.4422C3.58859 54.7235 1.76323 51.0863 2.04431 51.18Z"/>
</mask>
<path d="M2.04431 51.18C2.41445 51.3033 33.5757 19.9429 44.3459 9.08908C46.3769 7.04229 49.6402 6.98463 51.7668 8.9319L57.6061 14.2787C59.321 15.849 60.1666 18.1541 59.8739 20.4608L55.64 53.831C55.1881 57.3922 52.1691 60.0684 48.5793 60.0898L9.75578 60.3211C7.74936 60.333 5.90234 59.2269 4.98542 57.4422C3.58859 54.7235 1.76323 51.0863 2.04431 51.18Z" fill="#036DB9"/>
<path d="M2.04431 51.18L1.66707 52.3121L2.04431 51.18ZM51.7668 8.9319L52.5727 8.05176L51.7668 8.9319ZM55.64 53.831L54.4561 53.6808L55.64 53.831ZM57.6061 14.2787L58.412 13.3986L57.6061 14.2787ZM58.6901 20.3106L54.4561 53.6808L56.8238 53.9812L61.0578 20.611L58.6901 20.3106ZM48.5722 58.8964L9.74867 59.1277L9.76288 61.5144L48.5865 61.2831L48.5722 58.8964ZM6.04688 56.8969C5.34937 55.5393 4.54966 53.9616 3.96087 52.7387C3.66452 52.1232 3.43125 51.6175 3.29133 51.2798C3.25703 51.197 3.23079 51.1302 3.21176 51.0784C3.19149 51.0233 3.185 51.0003 3.18519 51.001C3.18532 51.0015 3.19104 51.0223 3.1967 51.0572C3.20066 51.0816 3.21515 51.1733 3.20542 51.2979C3.19947 51.3741 3.16722 51.7626 2.81672 52.0741C2.37518 52.4664 1.87035 52.3799 1.66707 52.3121L2.42155 50.0478C2.2007 49.9742 1.68242 49.8891 1.23139 50.2899C0.871388 50.6098 0.83361 51.0137 0.825926 51.1121C0.806748 51.3577 0.866458 51.5692 0.880198 51.6203C0.927645 51.7969 1.00762 52.0034 1.08636 52.1934C1.25329 52.5963 1.51096 53.1522 1.81042 53.7742C2.41324 55.0262 3.22463 56.6265 3.92395 57.9876L6.04688 56.8969ZM1.66707 52.3121C1.94982 52.4063 2.18789 52.3694 2.28384 52.3502C2.39734 52.3275 2.48423 52.2931 2.53082 52.2731C2.6249 52.2325 2.69644 52.1879 2.729 52.1669C2.8018 52.1202 2.86763 52.0691 2.91263 52.0332C3.01021 51.9552 3.1293 51.8516 3.25938 51.7347C3.52442 51.4967 3.89395 51.1508 4.35031 50.7153C5.26576 49.8418 6.56078 48.5793 8.13265 47.0321C11.2778 43.9364 15.5469 39.6861 20.1389 35.0949C29.3235 25.9117 39.8077 15.3568 45.193 9.92965L43.4988 8.24852C38.114 13.6752 27.6325 24.2274 18.4513 33.4071C13.8604 37.9973 9.59666 42.2422 6.45841 45.3311C4.88858 46.8762 3.60425 48.1283 2.70265 48.9886C2.2505 49.42 1.90207 49.7458 1.66472 49.9589C1.54361 50.0677 1.4654 50.1345 1.42269 50.1686C1.39754 50.1887 1.40749 50.1791 1.43904 50.1588C1.45098 50.1512 1.50555 50.116 1.58638 50.0811C1.62635 50.0639 1.70753 50.0314 1.81627 50.0097C1.90745 49.9915 2.14169 49.9545 2.42155 50.0478L1.66707 52.3121ZM50.9609 9.81203L56.8002 15.1589L58.412 13.3986L52.5727 8.05176L50.9609 9.81203ZM45.193 9.92965C46.767 8.34346 49.3004 8.29156 50.9609 9.81203L52.5727 8.05176C49.98 5.67769 45.9869 5.74113 43.4988 8.24852L45.193 9.92965ZM9.74867 59.1277C8.18634 59.137 6.7556 58.2763 6.04688 56.8969L3.92395 57.9876C5.04908 60.1775 7.31239 61.529 9.76288 61.5144L9.74867 59.1277ZM54.4561 53.6808C54.0795 56.6484 51.5637 58.8786 48.5722 58.8964L48.5865 61.2831C52.7745 61.2582 56.2967 58.1359 56.8238 53.9812L54.4561 53.6808ZM61.0578 20.611C61.3993 17.9199 60.4127 15.2305 58.412 13.3986L56.8002 15.1589C58.2293 16.4674 58.934 18.3884 58.6901 20.3106L61.0578 20.611Z" fill="black" mask="url(#path-2-inside-1_4540_22)"/>
<path d="M7.50989 12.4351C7.83873 10.0952 9.82991 8.34806 12.1926 8.32615L47.5856 7.99798C51.5982 7.96077 54.7046 11.501 54.1462 15.4747L49.5181 48.4051C49.0659 51.6224 46.328 54.0248 43.0793 54.0549L7.14926 54.3881C4.23102 54.4151 1.97183 51.8404 2.37799 48.9505L7.50989 12.4351Z" fill="#009AFD" stroke="black" stroke-width="1.19337"/>
<path d="M26.0281 33.7731L33.7786 26.5034C34.0341 26.2637 34.4383 25.8643 34.1085 25.5447C33.8446 25.2891 33.4488 25.4915 33.2839 25.6246C29.8759 27.8082 22.9115 32.2872 22.3178 32.7346C21.5757 33.2938 20.5863 33.134 20.0916 33.134C19.5969 33.134 15.6391 32.0156 15.4742 31.9357C15.3093 31.8558 13.7427 31.3765 13.9076 30.7374C14.0396 30.2261 14.5123 29.9385 14.7322 29.8587C22.2078 26.7963 37.522 20.5598 38.9731 20.1124C40.4243 19.665 40.842 20.8314 40.8695 21.4705C40.0725 26.6898 38.3795 37.7036 37.9837 40.0043C37.5879 42.3051 35.73 41.8684 34.8505 41.3624C32.5968 39.9245 27.7596 36.8248 26.4404 35.9301C25.1211 35.0353 25.6158 34.1193 26.0281 33.7731Z" fill="white"/>
</svg>
