<svg width="17" height="16" viewBox="0 0 17 16" fill="none" xmlns="http://www.w3.org/2000/svg">
<path fill-rule="evenodd" clip-rule="evenodd" d="M4.45124 9.34665C4.47989 9.3562 4.50934 9.36312 4.53924 9.36732C4.72786 9.81176 4.91541 10.2567 5.10191 10.702C5.43724 11.5033 5.77524 12.3287 5.84924 12.566C5.94191 12.858 6.03924 13.0567 6.14591 13.1927C6.20124 13.262 6.26458 13.3233 6.33924 13.37C6.37814 13.3943 6.41976 13.414 6.46324 13.4287C6.67658 13.5087 6.87124 13.4753 6.99324 13.4347C7.06484 13.4102 7.13296 13.3766 7.19591 13.3347L7.19924 13.3333L9.08324 12.1587L11.2599 13.8267C11.2919 13.8513 11.3266 13.872 11.3639 13.8887C11.6252 14.002 11.8786 14.042 12.1172 14.01C12.3546 13.9767 12.5432 13.8773 12.6839 13.7647C12.8454 13.6345 12.9742 13.4682 13.0599 13.2793L13.0659 13.2647L13.0679 13.2593L13.0692 13.2567V13.2553L13.0699 13.2547C13.0815 13.226 13.0904 13.1963 13.0966 13.166L15.0832 3.14932C15.0895 3.11726 15.0926 3.08466 15.0926 3.05199C15.0926 2.75865 14.9819 2.47932 14.7226 2.31065C14.4999 2.16599 14.2526 2.15932 14.0959 2.17132C13.9279 2.18465 13.7719 2.22599 13.6672 2.25932C13.6087 2.27789 13.5508 2.29879 13.4939 2.32199L13.4866 2.32532L2.34391 6.69599L2.34258 6.69665C2.30488 6.71052 2.26774 6.72586 2.23124 6.74265C2.14288 6.78238 2.05812 6.82966 1.97791 6.88399C1.82658 6.98732 1.47791 7.27132 1.53724 7.74065C1.58391 8.11399 1.83991 8.34399 1.99658 8.45465C2.08191 8.51532 2.16324 8.55865 2.22324 8.58732C2.24991 8.60065 2.30724 8.62332 2.33191 8.63399L2.33858 8.63599L4.45124 9.34665ZM13.8766 3.24532H13.8752C13.8695 3.24787 13.8637 3.25031 13.8579 3.25265L2.70191 7.62932C2.69617 7.63164 2.69039 7.63386 2.68458 7.63599L2.67791 7.63799C2.65753 7.64599 2.63751 7.65489 2.61791 7.66465C2.63647 7.67528 2.65561 7.68485 2.67524 7.69332L4.76991 8.39865C4.80734 8.41127 4.84315 8.42828 4.87658 8.44932L11.7946 4.39932L11.8012 4.39599C11.8281 4.37966 11.8557 4.36453 11.8839 4.35065C11.9319 4.32599 12.0086 4.28999 12.0952 4.26332C12.1552 4.24465 12.3332 4.19199 12.5252 4.25399C12.6271 4.28609 12.7178 4.34618 12.7872 4.4274C12.8565 4.50862 12.9016 4.6077 12.9172 4.71332C12.9421 4.80582 12.9428 4.90314 12.9192 4.99599C12.8726 5.17932 12.7446 5.32199 12.6279 5.43132C12.5279 5.52465 11.2306 6.77532 9.95124 8.00999L8.20924 9.68999L7.89924 9.98999L11.8139 12.9913C11.8667 13.0135 11.9241 13.0226 11.9812 13.018C12.01 13.0141 12.0371 13.0021 12.0592 12.9833C12.0863 12.9605 12.1095 12.9335 12.1279 12.9033L12.1292 12.9027L14.0559 3.18732C13.9952 3.20192 13.9357 3.22108 13.8779 3.24465L13.8766 3.24532ZM8.23591 11.508L7.45458 10.9093L7.26524 12.1127L8.23591 11.508ZM6.73791 9.72132L7.51458 8.97132L9.25658 7.28999L9.90524 6.66465L5.55858 9.20932L5.58191 9.26399C5.85605 9.91161 6.12716 10.5605 6.39524 11.2107L6.58391 10.0107C6.60098 9.89936 6.65527 9.7978 6.73791 9.72132Z" fill="white"/>
</svg>
