<svg width="17" height="16" viewBox="0 0 17 16" fill="none" xmlns="http://www.w3.org/2000/svg">
<g clip-path="url(#clip0_81_7)">
<path fill-rule="evenodd" clip-rule="evenodd" d="M14.6759 2.54476C13.5568 1.37653 11.7433 0.849893 10.2342 1.23869C9.40474 1.45237 8.64745 1.94916 8.17089 2.78241C7.79462 3.4403 7.62005 4.2606 7.67588 5.23226C7.4553 5.2091 7.18208 5.16298 6.86412 5.07569C5.90275 4.81176 4.50448 4.16379 2.9012 2.58793C2.73288 2.42195 2.52056 2.30762 2.28932 2.25846C2.05785 2.20925 1.81713 2.22741 1.59566 2.31079C1.37418 2.39416 1.18125 2.53927 1.0397 2.72891C0.911128 2.90115 0.829841 3.10359 0.803312 3.31614C0.425027 4.9174 0.624895 6.60145 1.3685 8.07029C1.94031 9.19981 2.80504 10.1455 3.86273 10.8146C3.35159 11.1033 2.80526 11.3279 2.23601 11.4823C2.21812 11.4871 2.20045 11.4927 2.18303 11.499C1.94402 11.5858 1.73751 11.744 1.59157 11.9523C1.44563 12.1605 1.36734 12.4086 1.36734 12.6629C1.36734 12.9171 1.44563 13.1652 1.59157 13.3735C1.7344 13.5772 1.93524 13.7331 2.16778 13.821C6.27842 15.5049 9.76192 15.0838 12.138 13.3772C14.4523 11.7149 15.6034 8.90833 15.268 5.97521L16.4623 3.50126C16.562 3.29467 16.5485 3.05131 16.4266 2.85701C16.3046 2.66271 16.0913 2.54476 15.8619 2.54476H14.6759ZM8.42191 5.89714L8.53891 6.55346C8.8987 6.48932 9.13978 6.14748 9.07942 5.78704C8.89415 4.68064 9.04972 3.93144 9.32829 3.44437C9.6028 2.9644 10.0377 2.66619 10.5668 2.52987C11.6727 2.24497 13.0975 2.6966 13.8592 3.63231C13.9858 3.78782 14.1757 3.87809 14.3762 3.87809H14.7998L13.9815 5.57302C13.9245 5.69124 13.9036 5.82367 13.9215 5.95372C14.2736 8.51321 13.2924 10.9063 11.3601 12.2942C9.47806 13.6461 6.5802 14.1204 2.89858 12.6775C3.86837 12.3736 4.77591 11.896 5.57657 11.2671C5.76261 11.121 5.85728 10.8872 5.82533 10.6528C5.79338 10.4184 5.6396 10.2185 5.42124 10.1275C4.18052 9.61039 3.16519 8.6673 2.55808 7.46806C1.96252 6.29165 1.79817 4.94458 2.09206 3.66083C3.79879 5.30154 5.34692 6.04183 6.51113 6.36145C7.10521 6.52454 7.59256 6.57623 7.94158 6.58519C8.11593 6.58967 8.25547 6.58348 8.35629 6.57531C8.40671 6.57122 8.44745 6.56663 8.47804 6.56263C8.49333 6.56063 8.50609 6.55877 8.51626 6.5572L8.52955 6.55507L8.53472 6.55419L8.53694 6.55381L8.53795 6.55363C8.53844 6.55354 8.53891 6.55346 8.42191 5.89714Z" fill="white"/>
</g>
<defs>
<clipPath id="clip0_81_7">
<rect width="16" height="16" fill="white" transform="translate(0.593018)"/>
</clipPath>
</defs>
</svg>
